<svg xmlns="http://www.w3.org/2000/svg" viewBox="0 0 750 134.25"><defs><style>.cls-1{fill:#231815;}.cls-2{fill:#005bab;}.cls-3{fill:#4c4948;}.cls-4{fill:none;stroke:#231815;stroke-miterlimit:10;stroke-width:1.64px;}</style></defs><title>footer</title><g id="圖層_1" data-name="圖層 1"><path class="cls-1" d="M141.55,103.06V88.71h1.9V94.6h7.46V88.71h1.9v14.34h-1.9V96.29h-7.46v6.76Z"/><path class="cls-1" d="M165.94,101.36a6,6,0,0,1-1.9,1.45,5.15,5.15,0,0,1-2.22.48,4.39,4.39,0,0,1-3.49-1.49,4,4,0,0,1-1-2.71,3.75,3.75,0,0,1,.86-2.4,7.14,7.14,0,0,1,2.56-1.88A8.59,8.59,0,0,1,159.4,93a3.18,3.18,0,0,1-.32-1.34,3,3,0,0,1,1-2.25,3.57,3.57,0,0,1,2.55-1,3.32,3.32,0,0,1,2.4.9,2.9,2.9,0,0,1,.93,2.16q0,2-2.71,3.49l2.57,3.28a8.15,8.15,0,0,0,.69-2l1.83.39a10,10,0,0,1-1.27,3.09,10.23,10.23,0,0,0,2.24,2.2l-1.18,1.4A10.21,10.21,0,0,1,165.94,101.36ZM164.83,100l-3.23-4a6.18,6.18,0,0,0-1.93,1.58,2.55,2.55,0,0,0-.5,1.44,3.07,3.07,0,0,0,.69,1.81,2.3,2.3,0,0,0,2,.94,3.24,3.24,0,0,0,1.64-.49A4,4,0,0,0,164.83,100Zm-2.48-6.09a4.69,4.69,0,0,0,1.48-1.18,2,2,0,0,0,.34-1.12,1.62,1.62,0,0,0-.46-1.2,1.58,1.58,0,0,0-1.16-.46,1.64,1.64,0,0,0-1.19.46,1.51,1.51,0,0,0-.47,1.13,1.65,1.65,0,0,0,.17.7,3.65,3.65,0,0,0,.51.78Z"/><path class="cls-1" d="M177,103.06V90.4h-4.73V88.71h11.37V90.4h-4.75v12.65Z"/><path class="cls-1" d="M205,98l1.9.48a6.39,6.39,0,0,1-2.15,3.57A5.92,5.92,0,0,1,201,103.3a6.81,6.81,0,0,1-3.77-.94A5.9,5.9,0,0,1,195,99.62a9.75,9.75,0,0,1-.76-3.85,8.46,8.46,0,0,1,.86-3.91,5.87,5.87,0,0,1,2.44-2.53,7.12,7.12,0,0,1,3.48-.87,5.88,5.88,0,0,1,3.62,1.1,5.69,5.69,0,0,1,2,3.08l-1.87.44a4.43,4.43,0,0,0-1.45-2.28,3.86,3.86,0,0,0-2.39-.71,4.64,4.64,0,0,0-2.76.79A4.19,4.19,0,0,0,196.64,93a8.57,8.57,0,0,0-.45,2.75,8.73,8.73,0,0,0,.53,3.19,4,4,0,0,0,1.66,2,4.65,4.65,0,0,0,2.44.68,4.08,4.08,0,0,0,2.7-.92A4.7,4.7,0,0,0,205,98Z"/><path class="cls-1" d="M210.38,97.86a5.35,5.35,0,0,1,1.6-4.28,4.84,4.84,0,0,1,3.27-1.15,4.66,4.66,0,0,1,3.5,1.4,5.34,5.34,0,0,1,1.36,3.88,6.87,6.87,0,0,1-.6,3.16,4.25,4.25,0,0,1-1.75,1.79,5.1,5.1,0,0,1-2.51.64,4.67,4.67,0,0,1-3.53-1.4A5.59,5.59,0,0,1,210.38,97.86Zm1.81,0a4.42,4.42,0,0,0,.87,3,2.9,2.9,0,0,0,4.37,0,4.53,4.53,0,0,0,.87-3,4.29,4.29,0,0,0-.88-2.92,2.9,2.9,0,0,0-4.37,0A4.41,4.41,0,0,0,212.19,97.86Z"/><path class="cls-1" d="M224.18,103.06V92.66h1.58v1.48a3.73,3.73,0,0,1,3.31-1.71,4.34,4.34,0,0,1,1.73.34,2.72,2.72,0,0,1,1.18.89,3.4,3.4,0,0,1,.55,1.3,10.1,10.1,0,0,1,.1,1.71v6.39h-1.76V96.73a4.75,4.75,0,0,0-.2-1.61,1.69,1.69,0,0,0-.73-.85A2.32,2.32,0,0,0,228.7,94a2.85,2.85,0,0,0-1.94.71,3.53,3.53,0,0,0-.82,2.71v5.67Z"/><path class="cls-1" d="M236.63,100l1.74-.27a2.43,2.43,0,0,0,.82,1.6,2.85,2.85,0,0,0,1.87.56,2.75,2.75,0,0,0,1.8-.49,1.48,1.48,0,0,0,.59-1.16,1.07,1.07,0,0,0-.52-.94,7.62,7.62,0,0,0-1.8-.6,16.38,16.38,0,0,1-2.69-.85,2.56,2.56,0,0,1-1.52-2.38,2.68,2.68,0,0,1,.32-1.29,2.86,2.86,0,0,1,.87-1,3.64,3.64,0,0,1,1.12-.51,5.33,5.33,0,0,1,1.52-.21,6,6,0,0,1,2.15.35,2.92,2.92,0,0,1,1.36,1,3.73,3.73,0,0,1,.61,1.61l-1.72.23a1.88,1.88,0,0,0-.68-1.25,2.49,2.49,0,0,0-1.59-.45,2.87,2.87,0,0,0-1.73.4,1.17,1.17,0,0,0-.52.94,1,1,0,0,0,.22.62,1.55,1.55,0,0,0,.68.47q.26.1,1.56.45a21.74,21.74,0,0,1,2.61.82,2.64,2.64,0,0,1,1.16.92,2.58,2.58,0,0,1,.42,1.51,3,3,0,0,1-.51,1.66,3.32,3.32,0,0,1-1.48,1.2,5.39,5.39,0,0,1-2.19.43,4.88,4.88,0,0,1-3.09-.84A3.91,3.91,0,0,1,236.63,100Z"/><path class="cls-1" d="M253.2,101.48l.25,1.56a6.56,6.56,0,0,1-1.33.16,3,3,0,0,1-1.49-.3,1.7,1.7,0,0,1-.74-.8,6.3,6.3,0,0,1-.22-2.08V94h-1.29V92.66h1.29V90.09L251.43,89v3.63h1.77V94h-1.77v6.08a3.06,3.06,0,0,0,.09,1,.73.73,0,0,0,.3.34,1.17,1.17,0,0,0,.6.13A5.85,5.85,0,0,0,253.2,101.48Z"/><path class="cls-1" d="M256.91,103.06V92.66h1.58v1.58a4.29,4.29,0,0,1,1.12-1.46,2,2,0,0,1,1.13-.35,3.43,3.43,0,0,1,1.81.57l-.61,1.63a2.52,2.52,0,0,0-1.29-.38,1.68,1.68,0,0,0-1,.35,1.88,1.88,0,0,0-.66,1,6.86,6.86,0,0,0-.29,2.05v5.44Z"/><path class="cls-1" d="M272.41,103.06v-1.53a3.8,3.8,0,0,1-3.3,1.76,4.21,4.21,0,0,1-1.72-.35,2.83,2.83,0,0,1-1.18-.89,3.32,3.32,0,0,1-.54-1.31,8.94,8.94,0,0,1-.11-1.64V92.66h1.76v5.76a10.28,10.28,0,0,0,.11,1.86,1.83,1.83,0,0,0,.7,1.09,2.18,2.18,0,0,0,1.33.4,2.89,2.89,0,0,0,1.49-.41,2.25,2.25,0,0,0,1-1.11,5.55,5.55,0,0,0,.29-2V92.66H274v10.39Z"/><path class="cls-1" d="M285.53,99.25l1.73.23a4.49,4.49,0,0,1-1.45,2.8,4.23,4.23,0,0,1-2.87,1,4.46,4.46,0,0,1-3.43-1.39,5.66,5.66,0,0,1-1.3-4,7.24,7.24,0,0,1,.56-2.94,3.89,3.89,0,0,1,1.7-1.89,5,5,0,0,1,2.48-.63,4.31,4.31,0,0,1,2.77.86,3.93,3.93,0,0,1,1.38,2.43l-1.71.26a2.84,2.84,0,0,0-.87-1.58,2.24,2.24,0,0,0-1.5-.53,2.73,2.73,0,0,0-2.16,1,4.53,4.53,0,0,0-.83,3,4.68,4.68,0,0,0,.8,3,2.61,2.61,0,0,0,2.09.95,2.47,2.47,0,0,0,1.73-.64A3.16,3.16,0,0,0,285.53,99.25Z"/><path class="cls-1" d="M294.62,101.48l.25,1.56a6.56,6.56,0,0,1-1.33.16,3,3,0,0,1-1.49-.3,1.7,1.7,0,0,1-.74-.8,6.3,6.3,0,0,1-.22-2.08V94H289.8V92.66h1.29V90.09L292.85,89v3.63h1.77V94h-1.77v6.08a3.06,3.06,0,0,0,.09,1,.73.73,0,0,0,.3.34,1.17,1.17,0,0,0,.6.13A5.85,5.85,0,0,0,294.62,101.48Z"/><path class="cls-1" d="M298.35,90.74v-2h1.76v2Zm0,12.32V92.66h1.76v10.39Z"/><path class="cls-1" d="M304.14,97.86a5.36,5.36,0,0,1,1.6-4.28A4.84,4.84,0,0,1,309,92.43a4.66,4.66,0,0,1,3.5,1.4,5.34,5.34,0,0,1,1.36,3.88,6.87,6.87,0,0,1-.6,3.16,4.25,4.25,0,0,1-1.75,1.79,5.1,5.1,0,0,1-2.51.64,4.67,4.67,0,0,1-3.53-1.4A5.59,5.59,0,0,1,304.14,97.86Zm1.81,0a4.42,4.42,0,0,0,.87,3,2.9,2.9,0,0,0,4.37,0,4.53,4.53,0,0,0,.87-3,4.29,4.29,0,0,0-.88-2.92,2.9,2.9,0,0,0-4.37,0A4.41,4.41,0,0,0,306,97.86Z"/><path class="cls-1" d="M317.95,103.06V92.66h1.59v1.48a3.73,3.73,0,0,1,3.31-1.71,4.34,4.34,0,0,1,1.73.34,2.72,2.72,0,0,1,1.18.89,3.4,3.4,0,0,1,.55,1.3,10.1,10.1,0,0,1,.1,1.71v6.39h-1.76V96.73a4.75,4.75,0,0,0-.21-1.61,1.69,1.69,0,0,0-.73-.85,2.32,2.32,0,0,0-1.23-.32,2.86,2.86,0,0,0-1.94.71,3.53,3.53,0,0,0-.82,2.71v5.67Z"/><path class="cls-1" d="M345.6,97.43V95.75h6.08v5.32a10.73,10.73,0,0,1-2.89,1.68,8.56,8.56,0,0,1-3.05.56,8.14,8.14,0,0,1-3.84-.91,6,6,0,0,1-2.61-2.62,8.24,8.24,0,0,1-.88-3.83,8.88,8.88,0,0,1,.88-3.91,5.82,5.82,0,0,1,2.52-2.7,7.89,7.89,0,0,1,3.79-.88,7.5,7.5,0,0,1,2.81.5,4.67,4.67,0,0,1,2,1.4,6.23,6.23,0,0,1,1.09,2.35l-1.71.47a5.32,5.32,0,0,0-.8-1.72,3.29,3.29,0,0,0-1.37-1,5,5,0,0,0-2-.38,5.83,5.83,0,0,0-2.25.4,4.2,4.2,0,0,0-1.53,1,5,5,0,0,0-.91,1.42,7.51,7.51,0,0,0-.55,2.89A7,7,0,0,0,341,99,4.23,4.23,0,0,0,343,101a6,6,0,0,0,2.68.63,6.37,6.37,0,0,0,2.41-.47,6.22,6.22,0,0,0,1.78-1V97.43Z"/><path class="cls-1" d="M356.24,103.06V92.66h1.58v1.58a4.29,4.29,0,0,1,1.12-1.46,2,2,0,0,1,1.13-.35,3.43,3.43,0,0,1,1.81.57l-.61,1.63a2.52,2.52,0,0,0-1.29-.38,1.68,1.68,0,0,0-1,.35,1.88,1.88,0,0,0-.66,1,6.86,6.86,0,0,0-.29,2.05v5.44Z"/><path class="cls-1" d="M364.28,97.86a5.36,5.36,0,0,1,1.6-4.28,4.84,4.84,0,0,1,3.27-1.15,4.66,4.66,0,0,1,3.5,1.4A5.34,5.34,0,0,1,374,97.71a6.87,6.87,0,0,1-.6,3.16,4.25,4.25,0,0,1-1.75,1.79,5.1,5.1,0,0,1-2.51.64,4.67,4.67,0,0,1-3.53-1.4A5.59,5.59,0,0,1,364.28,97.86Zm1.81,0a4.42,4.42,0,0,0,.87,3,2.9,2.9,0,0,0,4.37,0,4.53,4.53,0,0,0,.87-3,4.29,4.29,0,0,0-.88-2.92,2.9,2.9,0,0,0-4.37,0A4.41,4.41,0,0,0,366.09,97.86Z"/><path class="cls-1" d="M384.89,103.06v-1.53a3.8,3.8,0,0,1-3.3,1.76,4.21,4.21,0,0,1-1.72-.35,2.83,2.83,0,0,1-1.18-.89,3.32,3.32,0,0,1-.54-1.31A8.94,8.94,0,0,1,378,99.1V92.66h1.76v5.76a10.27,10.27,0,0,0,.11,1.86,1.83,1.83,0,0,0,.7,1.09,2.18,2.18,0,0,0,1.33.4,2.9,2.9,0,0,0,1.49-.41,2.26,2.26,0,0,0,1-1.11,5.55,5.55,0,0,0,.29-2V92.66h1.76v10.39Z"/><path class="cls-1" d="M391.23,107V92.66h1.6V94a4,4,0,0,1,1.28-1.19,3.53,3.53,0,0,1,1.73-.4,4.1,4.1,0,0,1,2.35.68A4.21,4.21,0,0,1,399.73,95a7.07,7.07,0,0,1,.52,2.73,6.94,6.94,0,0,1-.57,2.87,4.35,4.35,0,0,1-4,2.64,3.31,3.31,0,0,1-1.58-.37A3.58,3.58,0,0,1,393,102V107Zm1.59-9.12a4.52,4.52,0,0,0,.81,3,2.49,2.49,0,0,0,2,1,2.55,2.55,0,0,0,2-1,4.71,4.71,0,0,0,.84-3.08,4.59,4.59,0,0,0-.82-3,2.46,2.46,0,0,0-2-1,2.54,2.54,0,0,0-2,1.05A4.71,4.71,0,0,0,392.83,97.92Z"/><path class="cls-2" d="M71,45.66C72.23,47,72.55,45,72.55,45s1.79-4.49,14.72-4.49c0,0,11.43.32,14.5,4.49,0,0,.31,2,1.58.66,0,0,5.57-4.39,2.94-11,0,0-2.42-7.45-18.4-7.45H86.43c-16,0-18.4,7.45-18.4,7.45C65.39,41.27,71,45.66,71,45.66Z"/><path class="cls-2" d="M87,41.71h-.3C74.42,41.85,73.91,46,73.91,46c-1.78,6.25,2.54,4.71,2.54,4.71,2.51-2.3.1-4.81.1-4.81S78,43.62,87,43.58s10.43,2.3,10.43,2.3-2.42,2.51.11,4.81c0,0,4.31,1.54,2.52-4.71,0,0-.51-4.13-12.75-4.27H87Z"/><path class="cls-2" d="M85.49,64.16l.21-5.26c1-1.53,1.89.22,1.89.22l-.43,5.14c-.52,2.2,1.48.77,1.48.77l5.78-7.33c2.95-3.4,1.16-5.7,1.16-5.7-1.58-2.73-5-3.28-5-3.28-1.37-2.84-3.27-2.84-3.27-2.84-2.31,0-3.57,2.74-3.57,2.74A18.06,18.06,0,0,0,79.28,51c-3.37,3.4-.85,6.36-.85,6.36l5.06,7.34C85.49,67.12,85.49,64.16,85.49,64.16Z"/><path class="cls-2" d="M58.4,76.72C60,75.93,58.26,75,58.26,75s-3.72-3.08.29-15.39c0,0,3.84-10.75,8.75-12.39,0,0,2,.32,1.11-1.3,0,0-2.44-6.65-9.51-6.19,0,0-7.83,0-12.77,15.22l-.44,1.38c-4.95,15.21,1.39,19.81,1.39,19.81C52.51,80.67,58.4,76.72,58.4,76.72Z"/><path class="cls-2" d="M59.62,74c5.39,3.64,5.26-.95,5.26-.95-1.41-3.11-4.55-1.59-4.55-1.59s-1.69-2.07,1-10.63,5.4-9.2,5.4-9.2,1.65,3.08,4.62,1.38c0,0,2.79-3.63-3.7-3.85,0,0-4.08-.8-8,10.8h0l-.09.29c0,.11-.06.2-.09.29h0C55.84,72.26,59.62,74,59.62,74Z"/><path class="cls-2" d="M76.35,65.08l4.76,2c1.92,1.18,1.18-1.16,1.18-1.16L77.1,58.14C74.79,54.29,72,55.28,72,55.28a7.77,7.77,0,0,0-4.69,3.78c-3.13.43-3.71,2.23-3.71,2.23-.71,2.2,1.49,4.24,1.49,4.24a18.8,18.8,0,0,0,.93,5c2.19,4.25,5.78,2.76,5.78,2.76l8.53-2.54c2.91-1.16.11-2.06.11-2.06l-4.94-1.83C74.41,65.33,76.35,65.08,76.35,65.08Z"/><path class="cls-2" d="M82.33,97.56s-4.08,2.59-14.54-5c0,0-9.05-7-9.09-12.16,0,0,.91-1.79-.89-1.45,0,0-7.09.26-8.83,7.12,0,0-2.42,7.45,10.52,16.83l1.17.87c12.93,9.4,19.27,4.79,19.27,4.79C85.93,104.78,84,98,84,98,83.75,96.15,82.33,97.56,82.33,97.56Z"/><path class="cls-2" d="M69.83,90.23c-7.23-5.31-7.09-8-7.09-8s3.45-.61,2.76-4c0,0-2.59-3.78-4.81,2.32,0,0-2,3.65,7.8,11h0a1.7,1.7,0,0,1,.26.18,1.91,1.91,0,0,0,.24.17h0C79,99,81.81,96,81.81,96c5.11-4,.72-5.3.72-5.3-3.39.38-2.92,3.85-2.92,3.85S77.13,95.47,69.83,90.23Z"/><path class="cls-2" d="M83.14,74.46l-3.26,4.12c-1.75.63-1.41-1.29-1.41-1.29l3.37-3.92c1.71-1.46-.74-1.49-.74-1.49l-9,2.54c-4.39,1-4.29,3.93-4.29,3.93A7.77,7.77,0,0,0,70,84c-.56,3.09,1,4.22,1,4.22,1.87,1.36,4.5-.11,4.5-.11a18.62,18.62,0,0,0,5,.64c4.71-.77,4.41-4.65,4.41-4.65l.23-8.9C84.88,72.06,83.14,74.46,83.14,74.46Z"/><path class="cls-2" d="M112.55,80.51c-1.8-.31-.89,1.46-.89,1.46s1.18,4.68-9.28,12.28c0,0-9.43,6.45-14.36,4.9,0,0-1.41-1.42-1.67.39,0,0-1.93,6.83,4.05,10.6,0,0,6.34,4.6,19.27-4.81l1.18-.84c12.93-9.4,10.51-16.85,10.51-16.85C119.63,80.78,112.55,80.51,112.55,80.51Z"/><path class="cls-2" d="M110,82c-2.23-6.12-4.82-2.34-4.82-2.34-.69,3.36,2.75,4,2.75,4s.15,2.66-7.09,8S91,95.87,91,95.87s.47-3.45-2.92-3.83c0,0-4.38,1.29.73,5.29,0,0,2.84,3,12.82-4h0c.09-.07.17-.12.24-.17a2.09,2.09,0,0,1,.25-.19h0C112,85.63,110,82,110,82Z"/><path class="cls-2" d="M99.61,75.42l-8.4-3c-3-.78-1.29,1.61-1.29,1.61l2.92,4.38c0,1.87-1.66.94-1.66.94L88.5,75c-.86-2.07-1.64.24-1.64.24l-.37,9.34c-.38,4.48,2.41,5.29,2.41,5.29,2.89,1.28,6-.31,6-.31,2.78,1.5,4.31.39,4.31.39,1.87-1.36,1.29-4.33,1.29-4.33A18.22,18.22,0,0,0,102.67,81C103.4,76.32,99.61,75.42,99.61,75.42Z"/><path class="cls-2" d="M127.34,58.18l-.45-1.38c-4.94-15.2-12.76-15.2-12.76-15.2-7.06-.47-9.51,6.18-9.51,6.18-.86,1.62,1.1,1.3,1.1,1.3s4.83.32,8.83,12.62c0,0,3.21,11,.21,15.16,0,0-1.78.92-.14,1.71,0,0,5.89,4,11.33-.58C125.95,78,132.28,73.39,127.34,58.18Z"/><path class="cls-2" d="M113.31,61.78c0-.1-.06-.2-.09-.28h0c-3.9-11.61-8-10.82-8-10.82-6.49.23-3.7,3.85-3.7,3.85,3,1.69,4.62-1.39,4.62-1.39s2.58.68,5.4,9.22,1,10.62,1,10.62-3.15-1.52-4.56,1.58c0,0-.12,4.58,5.27,1,0,0,3.78-1.78.12-13.45h0C113.37,62,113.34,61.88,113.31,61.78Z"/><path class="cls-2" d="M109.45,63.35c-.71-2.2-3.7-2.55-3.7-2.55a18.47,18.47,0,0,0-3.66-3.46c-4.27-2.15-6.3,1.17-6.3,1.17l-5.41,7.07c-1.68,2.65,1.14,1.73,1.14,1.73l5.06-1.42c1.78.52.37,1.87.37,1.87l-5,1.19c-2.24.18-.27,1.63-.27,1.63l8.77,3.24c4.13,1.76,5.77-.65,5.77-.65,2.12-2.35,1.57-5.82,1.57-5.82C110,65.15,109.45,63.35,109.45,63.35Z"/><ellipse class="cls-2" cx="86.31" cy="69.62" rx="2.25" ry="2.25"/><path class="cls-1" d="M150.11,78.28h-3.24V61.39a47.76,47.76,0,0,1-5.28,8.7l-3-1.34a40,40,0,0,0,7.55-12.5h-7V53h7.66V47.74q-3.5.26-5.88.3l-.48-3.2a96.16,96.16,0,0,0,15-1.52l.56,3.2a51.05,51.05,0,0,1-6,.89,0,0,0,0,0,0,0V53h6.55v3.24h-6.47a108,108,0,0,1,7.07,9.63l-2.6,1.86q-1.93-3.2-4.54-6.92Zm11.31-1.19h-3.24V45.21q0-.52.52-.52h13q.71,0,.71.67V77.08h-3.24V75.37h-7.77Zm7.77-4.95V48.37q0-.45-.48-.45h-6.84q-.48,0-.45.45V72.14Z"/><path class="cls-1" d="M200.32,60.35h-12l-.48.56q-1,1.19-2.31,2.42,2.86,2.9,3.76,3.94l-2.42,1.9q-1-1.26-3.61-3.87A28.86,28.86,0,0,1,179,68.38l-2.38-2.31a41.43,41.43,0,0,0,7.7-5.73h-7.14V57.26h9.93q1.08-1.49,1.9-2.86h-9.15V51.31h10.6a22.72,22.72,0,0,0,.89-2.86H178.49V45.36h13.39q.19-1.08.33-2.31l3.2.37q-.19.93-.33,1.93h15.29v3.09h-16q-.41,1.6-.78,2.86h15.29V54.4H200a27.22,27.22,0,0,0,1.82,2.86h9.78v3.09H204.3a33.83,33.83,0,0,0,7.89,5.47l-2.45,2.53a52,52,0,0,1-5.1-3.65,39.07,39.07,0,0,1-4.8,3.83l-1.93-2.46a44.1,44.1,0,0,0,4.43-3.46Q201.44,61.69,200.32,60.35ZM191.1,72.1a63,63,0,0,1-11.49,6.14l-1.26-3a59,59,0,0,0,11-5.73Zm5-9.34V74.7A3.77,3.77,0,0,1,194.37,78q-1.71,1.08-6.43-.07l0-3.35q3.72,1,4.61.37a1.4,1.4,0,0,0,.33-1.08V62.77Zm.37-8.37H192.4q-.82,1.41-1.71,2.86h7.44Q197.27,55.89,196.45,54.4Zm3.2,15.66a107.78,107.78,0,0,1,10.49,5.73l-1.75,2.68a100,100,0,0,0-10.34-5.62Z"/><path class="cls-1" d="M216.95,45.25q-.11-.74.6-.78a30.49,30.49,0,0,0,5.28-1.15l1.56,2.75V44.95a.89.89,0,0,1,1-1h14q1,0,1,1V67.82H245V63.17h-3.42V60.09H245V55.14h-3.42V52.05H245V47.59q0-.41-.41-.41h-3V44.24h5.73q.74,0,.74.78v22.8h2v3.09h-35.3V67.82h2.16Zm10.6,29.64a30.75,30.75,0,0,1-11.79,3.42,9.29,9.29,0,0,0-.15-3.2,21.47,21.47,0,0,0,5.47-.93,25,25,0,0,0,5.06-2.38Zm-3.16-7.07V46.21a28,28,0,0,1-4.09,1q-.45,0-.41.37v4.5h3.42v3.09h-3.42v4.95h3.42v3.09h-3.42v4.65Zm13.09,0V47.29q0-.41-.45-.41h-9.3c-.27,0-.41.16-.41.41V67.82Zm-1.34-1.6h-7.36a.37.37,0,0,1-.37-.41V53.54a.33.33,0,0,1,.37-.37h7.36c.27,0,.41.12.41.37V65.82C236.52,66.09,236.39,66.22,236.14,66.22Zm.11-17.52v2.64h-7.77V48.71Zm-5.1,7.1a.1.1,0,0,0-.11.11v7.51c0,.1,0,.15.11.15h2.6a.13.13,0,0,0,.15-.15V55.92c0-.07,0-.11-.15-.11Zm8.15,16.51a55.31,55.31,0,0,1,10.6,3l-.93,3a54.71,54.71,0,0,0-10.41-2.94Z"/><path class="cls-1" d="M254.77,55.44l-1.45-2.83a15.1,15.1,0,0,0,5.5-2.45,4.58,4.58,0,0,0,1.86-3.57V43.28h2.94v3.31a10.78,10.78,0,0,1-.67,2.75,60.92,60.92,0,0,1,6.17,3.2l-1.45,2.75a63.14,63.14,0,0,0-6.17-3.72A15.88,15.88,0,0,1,254.77,55.44Zm1.12-12.09A25.17,25.17,0,0,1,259,47.7l-2.46,1.64a24.13,24.13,0,0,0-3-4.2Zm22.43,7.85a12.83,12.83,0,0,1-5.84,4.24l-1.71-2.68a15.34,15.34,0,0,0,2.68-1.08q3.16-1.9,3.31-4.8V43.13h2.94v3.76a9.64,9.64,0,0,1-.3,1.9,81.73,81.73,0,0,1,7.1,4.72l-1.45,2h.71l2.68,1.34a35.23,35.23,0,0,1-1.75,6.73l-2.79-1a25.54,25.54,0,0,0,1-3.68c0-.3-.12-.45-.37-.45H256.78c-.2,0-.3.13-.3.3v4.84h-2.94V56.11a.49.49,0,0,1,.56-.56h30A60.82,60.82,0,0,0,278.32,51.2ZM259,78.39h-2.94V69.83a.88.88,0,0,1,1-1h9.6l.71-2h-8.22a.37.37,0,0,1-.37-.41V60a.33.33,0,0,1,.37-.37H282q.41,0,.41.37v6.47c0,.27-.16.41-.41.41H270.47l-.71,2h14.39q1,0,1,1v8.52h-2.94V76.94H259Zm23.25-4.24V72.06q0-.41-.45-.41H259.42q-.45,0-.41.41v2.08Zm-20.46-12c-.1,0-.14,0-.11.11v2c0,.07,0,.12.11.15h17.48c.1,0,.15-.07.15-.15v-2c0-.07-.05-.11-.15-.11Zm8-17.3a22.22,22.22,0,0,1-2.49,4.54l-2.53-1.52a30,30,0,0,0,2.42-4.39Zm3.46-1.23a24.71,24.71,0,0,1,2.23,4.83l-2.75,1.15a26.73,26.73,0,0,0-2.16-4.69Zm12.91,1.3a25,25,0,0,1-2.27,4.57l-2.6-1.41a26.51,26.51,0,0,0,2.19-4.43Z"/><path class="cls-1" d="M298.85,59.16c0-.25-.09-.37-.19-.37h-5.36l-1.23-1.9,5.32-9.45c0-.1,0-.14,0-.11h-5.24V44.06h8.37L302,46.14l-5.65,9.41h4.76q1.12.07,1.08,1.12A33.37,33.37,0,0,1,299,70.35l.07.07q3.46,3.91,10.49,3.79h16.85l-.89,3.38H310.75a32,32,0,0,1-7.07-1,14,14,0,0,1-6.17-3.53,41.52,41.52,0,0,1-4,5.43l-2.72-2.45a33.61,33.61,0,0,0,4.5-5.8A29.31,29.31,0,0,1,292,62.43l2.94-.82a32,32,0,0,0,2,5.5A19.44,19.44,0,0,0,298.85,59.16Zm3.57,10.41V66.48h9.3V64.37h-7.81V61.28h7.81V58.93H305V56h6.73V53.58H302V50.64h9.75V48.37H305V45.43h6.73V43H315v2.45h7.77q1,0,1,1v4.24h2.38v2.94h-2.38v4.35a.89.89,0,0,1-1,1H315v2.34h9.22v3.09H315v2.12h10.56v3.09H315v3.94h-3.24V69.57ZM315,50.64h5.54v-2a.27.27,0,0,0-.3-.26H315ZM315,56h5.24c.2,0,.3-.12.3-.3V53.58H315Z"/><path class="cls-1" d="M340.88,61.46l.41.63-2.72,1.75q-.82-1.56-1.82-3.24V78.42h-3.09V62.58A37.78,37.78,0,0,1,332,66.71l-3.2-.63A35.48,35.48,0,0,0,333,53.58h-3.31V50.34h4V43.13h3.09v7.22h3v3.24h-3v1.67q2.12,2.94,4.05,6.06a15.08,15.08,0,0,0-1-2.6l1.52-.34a41.72,41.72,0,0,0,2.57-4,27.54,27.54,0,0,0-5.1-5.21q.89-1.19,1.79-2.34a5.43,5.43,0,0,1,1.08.93,48,48,0,0,0,1.79-4.65q1.34.6,2.72,1.15a48.58,48.58,0,0,1-2.42,5.54l1.49,1.71a23.08,23.08,0,0,0,1-3.61l2.86.59q-.56,3.27-4.05,8.85l1.52-.37q-.33-.89-.45-1.23l2.53-.71a54.73,54.73,0,0,1,1.71,5.62l-2.57.52q-.15-.67-.37-1.38Zm22.95,1.23v2.94h-8.89a22.27,22.27,0,0,0,1.71,4.13q1.3-1.49,2.79-3.5l2.42,1.67a39.3,39.3,0,0,1-3.65,4.46q1.79,2.34,2.23,2.34.26,0,.37-.41a28.86,28.86,0,0,0,.56-4.39l3.05.93q-.67,6-2.12,7.33a2.28,2.28,0,0,1-1.23.52q-2.31,0-5.13-4.43a29,29,0,0,1-9.63,4.13l-1.41-2.79a29.76,29.76,0,0,0,9.56-3.87A29,29,0,0,1,352,65.63h-7.1a.33.33,0,0,0-.37.37v1.56a70.47,70.47,0,0,1,6.81,2.83L350,73.33a55.13,55.13,0,0,0-5.54-2.75,12.2,12.2,0,0,1-3.31,8L338.39,77a11.3,11.3,0,0,0,2.42-3.87,14,14,0,0,0,.59-4.17V63.51a.72.72,0,0,1,.82-.82h9q-1.86-6.55-2.12-19.38l3.12.22q0,2.72.07,5.21.82-1,1.52-2a6.53,6.53,0,0,1,1,.78,43.29,43.29,0,0,0,2-4.43q1.34.67,2.6,1.34a42.28,42.28,0,0,1-2.57,5.1,23.67,23.67,0,0,1,1.6,1.79,27.61,27.61,0,0,0,2.19-5.62l2.83.74q-.82,3.68-5.1,9.82l2.12-.45q-.37-1-.48-1.3l2.49-.78q1.67,4.61,2,6.21l-2.53.6a16.61,16.61,0,0,0-.56-1.9l-3.53.74a15.66,15.66,0,0,1,2.34,2L359,62.69Zm-10.75-5.36,1.53-.3q1.08-1.34,2.31-3.16a27.68,27.68,0,0,0-4.61-4.57A72.41,72.41,0,0,0,353.08,57.34Zm4.05,2.19-3.57.71q.26,1.3.52,2.45h3.72a11.14,11.14,0,0,0-1.93-1.56Z"/><path class="cls-1" d="M374.91,78.28H372V62.5q-1,2.68-1.93,4.61L367,66.45a39.18,39.18,0,0,0,4.69-13.09h-3.94V50.27H372v-7h2.94v7h3.72v3.09h-3.72v1.15q2.53,3.39,4.76,7l-2.49,1.6q-1-1.9-2.27-3.94Zm8.48-.19h-2.94V72h-2.6V69.09h2.6v-9a.59.59,0,0,1,.67-.67h7.66v-1.9h-9.89V54.73h5.88v-2h-4.54V50h4.54v-2h-5.28V45.43h5.28V43h2.94v2.45h5.24V43h2.94v2.45h5.36v2.64h-5.36v2h4.76v2.64h-4.76v2h6.25v2.79H391.72v1.9h7.92q.71,0,.71.67v9h2.08V72h-2.08v2.9A3.07,3.07,0,0,1,399,77.64q-1.86,1.3-6.66.15l0-3.24q3.53,1.08,4.35.52a1.56,1.56,0,0,0,.78-1.34V72h-14Zm5.39-16h-5.17a.2.2,0,0,0-.22.22v2h5.39Zm0,7V67h-5.39v2.12Zm4.17-21h-5.24v2h5.24Zm0,6.66v-2h-5.24v2Zm-1.23,9.6h5.69v-2c0-.15-.09-.22-.26-.22h-5.43Zm5.69,4.76V67h-5.69v2.12Z"/><path class="cls-3" d="M471,54.9c0,.16-.11.22-.28.22s-.3.07-.3.2c-.63,1.38-1.42,3-2.37,4.71a27.29,27.29,0,0,1-1.44,2.38c3.62-.33,7.23-.78,10.85-1.36a24.33,24.33,0,0,0-2.35-3.47c0-.11.41-.38,1.26-.78a34.59,34.59,0,0,1,2.61,4,21.7,21.7,0,0,1,1.66,3.53c0,.09-.52.27-1.55.53a14.13,14.13,0,0,0-.92-2.44c-4.23.6-8.93,1.16-14.08,1.64a.65.65,0,0,0-.57.36c-.07.24-.17.36-.35.36s-.54-.67-1.11-2c1,0,1.94-.13,2.9-.22a56.25,56.25,0,0,0,2.88-5.62,19.78,19.78,0,0,0,.92-2.78c0-.09.09-.13.22-.13Q471,54.7,471,54.9Zm7,10.49q.33,0,.33.27v8.42q0,.27-.33.27h-.85c-.24,0-.35-.09-.35-.27V72.94H466.29v1q0,.27-.33.27h-.85c-.24,0-.35-.09-.35-.27V65.74a.31.31,0,0,1,.35-.36Zm-1.2,6.18V66.79H466.29v4.78Z"/><path class="cls-3" d="M492.25,54.45c0,.2-.09.31-.22.33s-.22.18-.22.44V73.89q0,.27-.33.27h-.85c-.24,0-.35-.09-.35-.27V68.27c-1.79.73-3.57,1.4-5.36,2q-.39.6-.59.6c-.15,0-.44-.62-.87-1.91a30.56,30.56,0,0,0,3.49-1c1.18-.38,2.29-.8,3.33-1.24V60.79H484q-.26,0-.26-.33v-.71q0-.33.26-.33h6.3v-5c0-.18.11-.27.35-.27C491.71,54.19,492.25,54.28,492.25,54.45ZM502.39,60a19.73,19.73,0,0,1-1.94,1.4A18.16,18.16,0,0,1,497,63.12a.48.48,0,0,1-.2.07v8.2c0,.64.39,1,1.2,1h2.11c.83,0,1.31-.16,1.48-.47a10.54,10.54,0,0,0,.74-2.93,2.35,2.35,0,0,0,.89.82c.17.09.28.18.28.31a9.72,9.72,0,0,1-.92,3.11,1.43,1.43,0,0,1-1.37.62h-3.4c-1.7,0-2.55-.53-2.55-1.56V54.45c0-.18,0-.27.15-.27l1.46.2c.15,0,.24.09.24.16s0,.24-.13.27a.22.22,0,0,0-.2.24v6.49a8.84,8.84,0,0,0,2.62-1.18,15.39,15.39,0,0,0,2.42-2,.2.2,0,0,1,.15,0,16.67,16.67,0,0,1,1.2,1.38c0,.13-.13.18-.35.18h-.17A.65.65,0,0,0,502.39,60Z"/><path class="cls-3" d="M514.71,57.32v-3c0-.16.11-.24.35-.24,1.13,0,1.7.09,1.7.24s-.09.31-.22.33-.22.18-.22.44v2.27h8.35a.23.23,0,0,1,.26.27v.87q0,.33-.26.33H505.78q-.26,0-.26-.33v-.87a.23.23,0,0,1,.26-.27Zm0,5V59.83c0-.16.11-.24.35-.24,1.13,0,1.7.09,1.7.24s-.09.31-.22.33-.22.18-.22.44v1.67h6.56c.28,0,.44.11.44.33V71c0,.36-.35.64-1,.82a10.75,10.75,0,0,1-2.42.31.28.28,0,0,1-.31-.27,4.29,4.29,0,0,0-.54-1.47s.07-.07.22-.07a11.55,11.55,0,0,0,2-.09c.24-.07.37-.18.37-.36V63.74h-5.36V74.16c0,.18-.15.27-.41.27h-.85c-.24,0-.35-.09-.35-.27V63.74h-5.62v8.15c0,.18-.15.27-.41.27h-.85c-.24,0-.35-.09-.35-.27V62.52c0-.16.11-.24.35-.24Z"/><path class="cls-3" d="M534.36,55c0,.13-.07.18-.15.18a.73.73,0,0,0-.52.24,31.31,31.31,0,0,1-2,4.11V74.07c0,.18-.15.27-.41.27h-.85c-.24,0-.35-.09-.35-.27V61.81c-.52.67-1.22,1.44-2,2.38a.53.53,0,0,1-.44-.22c-.22-.18-.46-.36-.68-.56a.29.29,0,0,1-.15-.27c.65-.71,1.33-1.49,2-2.29a18.4,18.4,0,0,0,2.29-3.49A20.82,20.82,0,0,0,532.42,54c0-.11.07-.18.15-.18A6.65,6.65,0,0,1,534.36,55Zm12,16c.17,0,.26.13.26.36v.87c0,.29-.09.44-.26.44H533.6c-.17,0-.24-.16-.24-.44v-.87c0-.22.07-.36.24-.36Zm-1.44-13.26q.26,0,.26.33v.87c0,.24-.09.36-.26.36h-10c-.17,0-.26-.11-.26-.36V58q0-.33.26-.33Z"/><path class="cls-3" d="M553.18,56.72A18.24,18.24,0,0,1,555,58.63c0,.22-.07.33-.15.33a.92.92,0,0,1-.26.18h4a17.14,17.14,0,0,0-1.35-1.91c0-.16.3-.38.94-.69a.22.22,0,0,1,.17.09,15.71,15.71,0,0,1,1.61,1.82c0,.22,0,.33-.13.33a2.11,2.11,0,0,1-.57.36h3.73a3.8,3.8,0,0,1-.41-.36c-.09,0-.13-.09-.13-.16s0,0,0-.09a2.35,2.35,0,0,0,.65-.4,5.9,5.9,0,0,0,1-1q.36-.47.78-1.13s0-.09.09-.09l1.11.84a.57.57,0,0,1,.15.27.1.1,0,0,1-.11.09.49.49,0,0,0-.24.11,9.51,9.51,0,0,1-.87,1.13,6.79,6.79,0,0,1-.83.76h3c.22,0,.35.09.35.27v3.73c0,.18-.13.24-.35.24h-.85c-.22,0-.33-.07-.33-.24V60.36H551.13v2.69c0,.18-.13.27-.35.27h-.85q-.33,0-.33-.27V59.41q0-.27.33-.27h3.51a20.32,20.32,0,0,0-1.37-1.82c0-.16.31-.38.94-.69A.22.22,0,0,1,553.18,56.72Zm3.66,4.64c.15,0,.24.07.24.13s0,.22-.11.24a.27.27,0,0,0-.13.27v1.56c0,.64.35,1,1.09,1h2.81a4.53,4.53,0,0,0,1.48-.13c.2-.07.44-.33.74-.82a2.16,2.16,0,0,0,.83.76c.17.09.28.18.28.29-.41.67-.72,1-.94,1.07a2.42,2.42,0,0,1-1.37.24h-4a6.07,6.07,0,0,1-.65,0,7.07,7.07,0,0,1-1,1.2c-.13.16-.24.29-.33.38h8.67a.59.59,0,0,1,.35.11,2.08,2.08,0,0,1,.41.58,12.69,12.69,0,0,1-1.68,2.07,10.36,10.36,0,0,1-2,1.49,9.86,9.86,0,0,1-1,.51c.46.13.94.24,1.42.36a28.18,28.18,0,0,0,5.32.36,1.12,1.12,0,0,1-.2.44,5.07,5.07,0,0,0-.33.89.24.24,0,0,1-.24.22,23.65,23.65,0,0,1-5-.56,16.89,16.89,0,0,1-2.88-.93,32.73,32.73,0,0,1-3.46.93c-.92.2-2.11.38-3.6.56a.42.42,0,0,1-.39-.18c-.17-.24-.35-.49-.5-.73q-.13-.13-.13-.2c0-.07.07-.11.22-.11.92-.09,1.83-.2,2.72-.33a28.49,28.49,0,0,0,3.55-.78,5.79,5.79,0,0,1-1.18-1,7.65,7.65,0,0,1-1.83-2.27,12,12,0,0,1-1.53,1,6.62,6.62,0,0,1-1.52.71c-.09,0-.17-.09-.26-.29s-.44-.49-.7-.75a.57.57,0,0,1-.15-.27,16,16,0,0,0,2.46-1,11.94,11.94,0,0,0,2-1.4,11.68,11.68,0,0,0,1.33-1.47,1.19,1.19,0,0,1-.48-1v-3c0-.11,0-.18.09-.18Zm-2.29,1.13c.09.13.15.22.15.29s0,.09-.13.09a.76.76,0,0,0-.33.16,11.48,11.48,0,0,1-1.09,1.51,14.48,14.48,0,0,1-1.77,1.56c-.17,0-.28,0-.33-.18a5.8,5.8,0,0,1-.72-.62c-.11,0-.15-.09-.15-.16s0-.07.06-.11a2.44,2.44,0,0,0,.83-.53,6.06,6.06,0,0,0,1.24-1.24c.31-.4.63-.89,1-1.47,0-.09,0-.13.09-.13Zm9.72-7.22a41.89,41.89,0,0,1-5.29.8c-2.31.2-4.66.29-7.08.29-.24,0-.39-.07-.44-.22a2.72,2.72,0,0,0-.26-.78.66.66,0,0,1-.06-.31c3,0,5.38-.09,7.1-.24a32.55,32.55,0,0,0,5.56-.87,3.2,3.2,0,0,1,.52-.09.37.37,0,0,1,.26.13c.68.6,1,1,1,1.16s-.09.36-.26.36l-.5-.27A4.33,4.33,0,0,0,564.27,55.28Zm-7.65,14.84a8.09,8.09,0,0,0,2.22,1.47,15.31,15.31,0,0,0,1.79-.82,7,7,0,0,0,1.81-1.4,4.53,4.53,0,0,0,.54-.58h-7.45A6.27,6.27,0,0,0,556.62,70.12Zm3.86-8c.44.36.81.69,1.11,1,0,0,0,.07-.09.16a9.7,9.7,0,0,1-.68.89,13.23,13.23,0,0,0-1.48-1.27,7,7,0,0,0-1.07-.64,3.74,3.74,0,0,1,.59-.91c.07-.09.13-.13.17-.13A16.94,16.94,0,0,1,560.48,62.08Zm5.58,1.38a11,11,0,0,1,1.07,1.76,4,4,0,0,1-1.35.44,5.69,5.69,0,0,0-.81-1.47,11,11,0,0,0-1.74-2c0-.09.35-.33,1.09-.69A18.71,18.71,0,0,1,566.06,63.45Z"/><path class="cls-3" d="M577.86,55.23q.33,0,.33.27v6.24q0,.27-.33.27h-1.81v3.73h2.48c.15,0,.24.13.24.35v.69c0,.22-.09.33-.24.33h-2.48v4c1-.22,1.94-.49,2.85-.76a.31.31,0,0,1,.13,0c.11,0,.17.09.17.27a4.94,4.94,0,0,1-.09,1.29c-2.35.6-4.75,1.16-7.15,1.64-.26.4-.46.62-.59.62s-.44-.64-.85-1.91a10.88,10.88,0,0,0,1.09-.18V64.43c0-.09.09-.16.26-.16,1,0,1.53.09,1.53.24s-.07.29-.15.29-.17.16-.17.4v6.58c.46-.09.94-.18,1.44-.31V62H572c-.24,0-.35-.09-.35-.27V55.5c0-.18.11-.27.35-.27Zm-1.11,1.4h-3.66v4h3.66Zm7.08-2c.15.13.24.22.24.31a.24.24,0,0,1-.17.24.26.26,0,0,0-.28.27c-.09.27-.15.49-.2.69h5.16a.61.61,0,0,1,.37.16,2.69,2.69,0,0,1,.48.71,22.58,22.58,0,0,1-1.15,3,15,15,0,0,1-1.35,2.18,4.61,4.61,0,0,1-.44.49,6.73,6.73,0,0,0,1.66,1.07,9.74,9.74,0,0,0,2.64,1c.11,0,.17.09.17.13a.29.29,0,0,1-.11.24,10.11,10.11,0,0,0-.83.84c-.11.16-.2.22-.26.22a.88.88,0,0,1-.33-.16,16.16,16.16,0,0,1-1.68-.71,10.48,10.48,0,0,1-2-1.27c-.13-.11-.26-.22-.37-.33a1.63,1.63,0,0,1-.17.13,11.84,11.84,0,0,1-2.57,1.49,12.28,12.28,0,0,1-2.46.84.47.47,0,0,1-.46-.22c-.17-.24-.35-.51-.52-.78a.35.35,0,0,1-.13-.22c0-.07,0-.11.15-.16a18.77,18.77,0,0,0,1.83-.49,10.07,10.07,0,0,0,2.79-1.44c.15-.11.28-.22.41-.33l-.15-.18a6.63,6.63,0,0,1-1.15-2,7.3,7.3,0,0,1-.52-1.36c-.22.47-.44.91-.65,1.31a9.71,9.71,0,0,1-1.09,1.47,1.41,1.41,0,0,1-.46-.07c-.28-.11-.57-.22-.85-.31-.09,0-.13-.09-.13-.13a.26.26,0,0,1,.07-.18,13,13,0,0,0,2.29-4.22,24.57,24.57,0,0,0,.65-2.55c0-.09.09-.16.15-.16Zm5,11.84c.22,0,.35.09.35.27v7.2c0,.18-.13.27-.35.27H588q-.33,0-.33-.27v-1h-5.21v1c0,.18-.11.27-.33.27h-.85c-.24,0-.35-.09-.35-.27V66.79a.31.31,0,0,1,.35-.36Zm-1.18,5.22V67.83h-5.21v3.82ZM583.9,58.92A8.38,8.38,0,0,0,585,61a2.39,2.39,0,0,0,.35.44l.39-.42a9,9,0,0,0,1.22-2.11,9.26,9.26,0,0,0,.54-1.4h-4A8.27,8.27,0,0,0,583.9,58.92Z"/><path class="cls-3" d="M611.89,71.12c.17,0,.26.13.26.36v.87c0,.27-.09.42-.26.42H592.73c-.17,0-.26-.16-.26-.42v-.87c0-.22.09-.36.26-.36ZM610.1,55.68q.26,0,.26.33v.87c0,.31-.09.44-.26.44H594.43c-.17,0-.24-.13-.24-.44V56c0-.22.07-.33.24-.33ZM609.16,63c.17,0,.26.13.26.36v.87c0,.29-.09.42-.26.42H595.55c-.17,0-.26-.13-.26-.42v-.87c0-.22.09-.36.26-.36Z"/><path class="cls-3" d="M622.6,55.61a13.22,13.22,0,0,1-1.48.71A14.81,14.81,0,0,1,619,57q-.72.2-1.77.4v2.27h4.95c.15,0,.24.13.24.36v.69c0,.24-.09.36-.24.36h-4.95v3.13h4.95c.15,0,.24.11.24.33v.69c0,.24-.09.36-.24.36h-4.95v3.75a9,9,0,0,0,1-.2c1.7-.31,3.29-.64,4.79-1a.31.31,0,0,1,.15,0,.16.16,0,0,1,.15.18,4.47,4.47,0,0,1-.09,1.22c-2,.44-4,.82-6,1.18v3.42c0,.18-.13.27-.35.27H616q-.33,0-.33-.27V70.94a1.89,1.89,0,0,1-.44.09c-.22.42-.37.62-.5.62s-.41-.6-.85-1.82c.54-.07,1.13-.16,1.79-.27V55.77a.23.23,0,0,1,.26-.27l1.22.49q.85-.17,1.63-.4a9.15,9.15,0,0,0,2-.78,7.25,7.25,0,0,0,1.24-.78h.11c.07,0,.13.07.22.18a12,12,0,0,1,1,1.29c0,.13-.07.18-.15.18l-.52-.09S622.62,55.61,622.6,55.61Zm9.63,8.31a.43.43,0,0,1,.31.13,2.69,2.69,0,0,1,.37.73,25.86,25.86,0,0,1-1.18,3.16,14.12,14.12,0,0,1-1.37,2.31c-.2.24-.39.47-.57.67A6.68,6.68,0,0,0,631.38,72a11.89,11.89,0,0,0,2.7,1.07c.11,0,.17.09.17.16a.41.41,0,0,1-.11.24,6.35,6.35,0,0,0-.76.78c-.11.13-.17.2-.22.2a2.13,2.13,0,0,1-.37-.16c-.52-.22-1.11-.47-1.72-.76A14.24,14.24,0,0,1,629,72.16a1.44,1.44,0,0,1-.26-.24c-.07.07-.11.11-.13.11a13.76,13.76,0,0,1-2.64,1.6,14.31,14.31,0,0,1-2.51.87.39.39,0,0,1-.33-.16l-.41-.69c-.09-.09-.11-.13-.11-.18a.14.14,0,0,1,.15-.16c.61-.18,1.24-.36,1.87-.58a9.88,9.88,0,0,0,2.88-1.56,2.28,2.28,0,0,0,.26-.22,5.2,5.2,0,0,1-.48-.58,6.42,6.42,0,0,1-1.2-2.15,12,12,0,0,1-1-2.93h-1c-.13,0-.17-.11-.17-.33v-.69c0-.22,0-.36.17-.36Zm-1.63-9a.31.31,0,0,1,.35.33v5.15c0,.18,0,.31.15.36a1.14,1.14,0,0,0,.61.13h.17c.33,0,.54-.07.65-.24a3.48,3.48,0,0,0,.39-1.13s.07-.09.24-.09a1.63,1.63,0,0,1,.26.09,3.17,3.17,0,0,0,.7.24.35.35,0,0,1,.3.36,8.07,8.07,0,0,1-.72,1.89c-.2.31-.61.44-1.24.44h-1.53a2.48,2.48,0,0,1-1.29-.27.73.73,0,0,1-.24-.64V56.28h-3v1a13,13,0,0,1-.24,2.55,4.85,4.85,0,0,1-.87,1.82,5.18,5.18,0,0,1-1.11,1,.53.53,0,0,1-.39-.13l-.57-.71a.39.39,0,0,1-.13-.29,4.33,4.33,0,0,0,1.63-2.22,9,9,0,0,0,.24-2.13v-2c0-.22.07-.33.24-.33ZM627,66.9a8,8,0,0,0,1.11,2.2,4.94,4.94,0,0,0,.68.89c.22-.24.44-.49.63-.73A11.35,11.35,0,0,0,630.71,67a14.18,14.18,0,0,0,.63-1.67h-4.77A10,10,0,0,0,627,66.9Z"/><path class="cls-3" d="M644,70.92a4.25,4.25,0,0,1-3.2,1.36,4.11,4.11,0,0,1-4.16-3l1.39-.62a2.86,2.86,0,0,0,2.77,2.22,2.71,2.71,0,0,0,2.11-1,4.11,4.11,0,0,0,1-2.89c0-2.35-.87-3.55-2.61-3.55a2.77,2.77,0,0,0-2.64,1.8h-1.37V57.52h7.54V59h-6v4a3.11,3.11,0,0,1,2.51-1,3.73,3.73,0,0,1,3,1.35,6.42,6.42,0,0,1-.26,7.58Z"/><path class="cls-3" d="M652.29,72.09V60.43h-3.05v-.89h.15a4,4,0,0,0,1.87-.47,2.79,2.79,0,0,0,1.42-1.55h1.11V72.09Z"/><path class="cls-3" d="M665.45,56.88V54.37c0-.18.11-.27.35-.27,1.07,0,1.61.09,1.61.27s-.09.31-.22.33-.2.18-.2.44v1.73h5.54V54.45q0-.27.33-.27c1.07,0,1.61.09,1.61.27s-.07.31-.2.33-.22.18-.22.44v1.64h4.16c.17,0,.26.13.26.36v.69c0,.24-.09.35-.26.35h-4.16v2.78h5.27c.17,0,.26.13.26.36v.69q0,.33-.26.33h-5.08a14,14,0,0,0,1.57,2,9.2,9.2,0,0,0,2.14,1.8,7.38,7.38,0,0,0,2,1,.24.24,0,0,1-.2.24c-.31.31-.57.62-.78.89s-.15.18-.2.18a10.51,10.51,0,0,1-2.57-1.73,8.33,8.33,0,0,1-1.09-1v4.78c0,.18-.13.24-.35.24H674c-.24,0-.35-.07-.35-.24V70H666v1.67c0,.62.37,1,1.11,1h7.47c.87,0,1.37-.22,1.55-.67a4.89,4.89,0,0,0,.59-1.51,3.43,3.43,0,0,0,1.13.62.32.32,0,0,1,.24.33,5,5,0,0,1-.83,1.84c-.28.49-1,.76-2.16.76H666.3c-1.2,0-1.79-.47-1.79-1.38V65.74c-.39.4-.76.73-1.11,1A16.35,16.35,0,0,1,661,68.43a.47.47,0,0,1-.37-.13l-.83-.78a.5.5,0,0,1-.07-.22,11.29,11.29,0,0,0,1.83-1.07,13.13,13.13,0,0,0,2.2-1.89,18.71,18.71,0,0,0,1.52-1.91h-4.79q-.26,0-.26-.33v-.69c0-.22.09-.36.26-.36h4.92V58.28h-3.81c-.17,0-.26-.11-.26-.35v-.69c0-.22.09-.36.26-.36Zm8.93,7.91s0,0,0-.07a13.66,13.66,0,0,1-1.46-2.29H667.1c-.7,1-1.29,1.82-1.72,2.35ZM666,68.61h7.65V66.16H666Zm6.56-7.55V58.28H667v2.78Z"/><path class="cls-3" d="M689.54,68.52v3.6H688v-3.6h-5.93V67l6.06-9.53h1.42v9.6h1.94v1.42ZM688,60.3l-4.36,6.8H688Z"/><path class="cls-3" d="M701.17,62.61c.11,0,.17.09.17.27v.69c0,.24-.07.36-.17.36h-3.75c-.26.73-.54,1.42-.83,2.09h3.64c.17,0,.26.09.26.24a32.6,32.6,0,0,1-.31,4.62,6.47,6.47,0,0,1-.78,2.49c-.31.58-1.13.89-2.48.89-1,0-1.44-.16-1.46-.44a3.81,3.81,0,0,0-.59-1.2v-.18a10,10,0,0,0,2,.25,1.5,1.5,0,0,0,1.37-.56,5,5,0,0,0,.57-1.82,24.54,24.54,0,0,0,.31-3H696c-.17.4-.35.76-.52,1.11,0,.09-.07.11-.11.11-1-.22-1.46-.36-1.46-.44a18,18,0,0,0,1.29-2.31,9.45,9.45,0,0,0,.72-1.84h-2c-.13,0-.17-.11-.17-.36v-.69c0-.18,0-.27.17-.27Zm-.85-7.46c.22,0,.35.09.35.27v5.38c0,.18-.13.27-.35.27h-5.19c-.24,0-.35-.09-.35-.27V55.41c0-.18.11-.27.35-.27Zm-1.11,1.31h-3v3.29h3Zm8.61-2.09c0,.2-.09.31-.22.33s-.22.18-.22.44v.53h5.36c.11,0,.17.09.17.27v.69c0,.22-.07.33-.17.33h-5.36v1.58h5.71c.22,0,.35.09.35.24V62c0,.18-.13.27-.35.27h-.85A.23.23,0,0,1,712,62V59.83h-8.41v3l2.38-.44V60.61c0-.16.09-.24.26-.24q1.44.13,1.44.33c0,.11-.09.22-.26.36v1.11L711,61.5c.11,0,.17.09.17.24v.69c0,.24-.07.36-.17.36l-3.57.69v1c0,.18,0,.27.17.27h3.83q.42,0,.85-1.47l1.29.78c-.5,1.4-1.09,2.09-1.79,2.09h-4.68c-.74,0-1.11-.31-1.11-1v-1.4l-2.37.44a29.39,29.39,0,0,1-.33,4.93,14.76,14.76,0,0,1-.83,3.09,8,8,0,0,1-.89,1.78.46.46,0,0,1-.22,0,4.8,4.8,0,0,0-.81-.56.43.43,0,0,1-.09-.27,8.66,8.66,0,0,0,.94-2.11,17.93,17.93,0,0,0,.57-3,33.07,33.07,0,0,0,.2-3.93V58.79c0-.16.09-.24.26-.24h3.49V54.37c0-.18.11-.27.35-.27C707.27,54.1,707.82,54.19,707.82,54.37Zm-.44,13.11c0,.16-.06.24-.17.27a.69.69,0,0,0-.24.6V69a9,9,0,0,1-.15,1.44,3.5,3.5,0,0,1-.57,1.51,5.1,5.1,0,0,1-1.09,1.2,9.12,9.12,0,0,1-1.59,1c-.09,0-.15-.07-.22-.18a5.08,5.08,0,0,0-.65-.58c-.11-.09-.15-.16-.15-.2a9,9,0,0,0,1.52-.87,4,4,0,0,0,.78-.82,3.72,3.72,0,0,0,.52-1.22,5.94,5.94,0,0,0,.13-1.27V67.47c0-.18,0-.27.09-.27A9.77,9.77,0,0,1,707.38,67.47Zm3.07-.09c0,.09-.09.22-.26.36v4.42c0,.18,0,.27.17.27h1.37c.35,0,.68-.67,1-2l1.29.78q-.82,2.6-2,2.6h-2.2c-.74,0-1.11-.33-1.11-1V67.3c0-.16.09-.24.26-.24Q710.45,67.19,710.45,67.38Z"/><path class="cls-3" d="M469,88.61V101.3h-2V88.61h-4.64V86.7h11.29v1.91Z"/><path class="cls-3" d="M475.4,101.3V86.7h9v1.91h-7v4.27h6.23v1.91h-6.23v4.6h7v1.91Z"/><path class="cls-3" d="M486.6,101.3V86.7h2V99.38h7.5v1.91Z"/><path class="cls-3" d="M509.78,101.47c-3.12,0-4.66-2.49-4.66-7.47s1.55-7.51,4.66-7.51S514.44,89,514.44,94,512.87,101.47,509.78,101.47Zm1.92-11.86a2,2,0,0,0-1.92-1.13q-2.61,0-2.61,5.53c0,3.67.87,5.49,2.61,5.49a2.07,2.07,0,0,0,1.9-1.13,9.57,9.57,0,0,0,.72-4.35A10.24,10.24,0,0,0,511.7,89.61Z"/><path class="cls-3" d="M525.22,93.12A15.36,15.36,0,0,1,523,95.59a13.68,13.68,0,0,0-3.09,3.8h6.19v1.91h-8.78A12.07,12.07,0,0,1,519,97.41a17.32,17.32,0,0,1,2.7-3.11,12.47,12.47,0,0,0,1.92-2.2,3.32,3.32,0,0,0,.52-1.8c0-1.2-.81-1.82-2.4-1.82s-2.37,1.11-2.48,3.33l-1.87-.71a5.51,5.51,0,0,1,1.35-3.35,3.85,3.85,0,0,1,3-1.24,5,5,0,0,1,3.2,1,3.39,3.39,0,0,1,1.24,2.8A5.18,5.18,0,0,1,525.22,93.12Z"/><path class="cls-3" d="M528.66,97.23V95.5h5.45v1.73Z"/><path class="cls-3" d="M544.46,93.12a15.34,15.34,0,0,1-2.18,2.47,13.68,13.68,0,0,0-3.09,3.8h6.19v1.91h-8.78a12.07,12.07,0,0,1,1.61-3.89,17.32,17.32,0,0,1,2.7-3.11,12.47,12.47,0,0,0,1.92-2.2,3.32,3.32,0,0,0,.52-1.8c0-1.2-.81-1.82-2.4-1.82s-2.38,1.11-2.48,3.33l-1.87-.71a5.51,5.51,0,0,1,1.35-3.35,3.85,3.85,0,0,1,3-1.24,4.94,4.94,0,0,1,3.2,1,3.39,3.39,0,0,1,1.24,2.8A5.18,5.18,0,0,1,544.46,93.12Z"/><path class="cls-3" d="M554.13,94.41a26.43,26.43,0,0,0-.65,6.87h-2.11a25.7,25.7,0,0,1,.7-6.78,15.05,15.05,0,0,1,3.25-5.89h-7.23V86.7h9.81v1.78A14.21,14.21,0,0,0,554.13,94.41Z"/><path class="cls-3" d="M566.11,94.41a26.43,26.43,0,0,0-.65,6.87h-2.11a25.75,25.75,0,0,1,.7-6.78,15.06,15.06,0,0,1,3.25-5.89h-7.23V86.7h9.81v1.78A14.21,14.21,0,0,0,566.11,94.41Z"/><path class="cls-3" d="M580,100.1a4.13,4.13,0,0,1-3.2,1.38c-2,0-3.42-1.09-4.21-3.27l1.74-.75c.52,1.38,1.33,2,2.46,2,1.68,0,2.53-1.11,2.53-3.36q0-3.13-2.09-3.13a2.47,2.47,0,0,0-1.44.38,3,3,0,0,0-.85,1.2H573.1V86.7h7.67v1.91h-5.69V91.7a3.18,3.18,0,0,1,2.11-.67,3.68,3.68,0,0,1,3,1.4,5.81,5.81,0,0,1,1.11,3.71A5.58,5.58,0,0,1,580,100.1Z"/><path class="cls-3" d="M583.84,97.23V95.5h5.45v1.73Z"/><path class="cls-3" d="M599.3,100.27a4.56,4.56,0,0,1-3.2,1.2c-2.37,0-3.81-1.2-4.34-3.62l1.85-.62q.46,2.4,2.48,2.4a2.37,2.37,0,0,0,1.83-.71,2.29,2.29,0,0,0,.61-1.62,3,3,0,0,0-.61-1.87,2.13,2.13,0,0,0-1.66-.76h-1.77V92.92H596a1.89,1.89,0,0,0,1.42-.82,2.69,2.69,0,0,0,.68-1.69,1.69,1.69,0,0,0-1.9-1.93c-1.18,0-1.87.73-2.11,2.15l-1.85-.58a4.63,4.63,0,0,1,1.24-2.51,3.73,3.73,0,0,1,2.72-1,3.67,3.67,0,0,1,3.94,3.91,3.66,3.66,0,0,1-1.66,3.16A3.55,3.55,0,0,1,600,95.05a4.57,4.57,0,0,1,.57,2.24A3.88,3.88,0,0,1,599.3,100.27Z"/><path class="cls-3" d="M611.11,98v3.31h-2V98h-5.67V96.14l5.9-9.44h1.77v9.38h1.74V98Zm-2-7.42-3.38,5.51h3.38Z"/><path class="cls-3" d="M623.09,98v3.31h-2V98h-5.67V96.14l5.9-9.44h1.77v9.38h1.74V98Zm-2-7.42-3.38,5.51h3.38Z"/><path class="cls-3" d="M635.25,100.27a4.56,4.56,0,0,1-3.2,1.2c-2.37,0-3.81-1.2-4.34-3.62l1.85-.62q.46,2.4,2.48,2.4a2.37,2.37,0,0,0,1.83-.71,2.29,2.29,0,0,0,.61-1.62,3,3,0,0,0-.61-1.87,2.13,2.13,0,0,0-1.66-.76h-1.77V92.92H632a1.89,1.89,0,0,0,1.42-.82,2.69,2.69,0,0,0,.68-1.69,1.69,1.69,0,0,0-1.9-1.93c-1.18,0-1.87.73-2.11,2.15l-1.85-.58a4.63,4.63,0,0,1,1.24-2.51,3.73,3.73,0,0,1,2.72-1,3.67,3.67,0,0,1,3.94,3.91,3.66,3.66,0,0,1-1.66,3.16A3.54,3.54,0,0,1,636,95.05a4.56,4.56,0,0,1,.57,2.24A3.88,3.88,0,0,1,635.25,100.27Z"/><line class="cls-4" x1="433.5" y1="36.68" x2="433.5" y2="109.68"/></g></svg>