<svg xmlns="http://www.w3.org/2000/svg" viewBox="0 0 45.2 45.2"><defs><style>.cls-1{fill:none;}.cls-2{fill:#fff;}</style></defs><title>icon-hat2</title><g id="圖層_1" data-name="圖層 1"><path class="cls-1" d="M26.33,29l-.2-1.57-.41,0s-2.33-.11-4.15-.11c0,0-1.39,0-3.45,0h0a46.92,46.92,0,0,0-2,10.59s-.48,4.41.48,5.56a4,4,0,0,0,5.26.63,12,12,0,0,0,4.85-7.39l-.44-.17a51.54,51.54,0,0,0,1.61-5.28A11.38,11.38,0,0,0,26.33,29Z"/><path class="cls-1" d="M28.7,27.68l.13,2.11s.19.19,1,.25l1,.09.25,1a3,3,0,0,0,3.39.11l1.11-.36A3.58,3.58,0,0,0,36.67,30a8,8,0,0,1,1.86-.89,1.15,1.15,0,0,0,.68-1.31A65.3,65.3,0,0,1,28.7,27.68Z"/><path class="cls-1" d="M28.7,27.68l.13,2.11s.19.19,1,.25l1,.09.25,1a3,3,0,0,0,3.39.11l1.11-.36A3.58,3.58,0,0,0,36.67,30a8,8,0,0,1,1.86-.89,1.15,1.15,0,0,0,.68-1.31A65.3,65.3,0,0,1,28.7,27.68Z"/><path class="cls-1" d="M26.33,29l-.2-1.57-.41,0s-2.33-.11-4.15-.11c0,0-1.39,0-3.45,0h0a46.92,46.92,0,0,0-2,10.59s-.48,4.41.48,5.56a4,4,0,0,0,5.26.63,12,12,0,0,0,4.85-7.39l-.44-.17a51.54,51.54,0,0,0,1.61-5.28A11.38,11.38,0,0,0,26.33,29Z"/><path class="cls-2" d="M44.25,25a3,3,0,0,1-.68-.89c1.89-9.3-.78-13.26-.78-13.26C37.43-1,25.05,0,25.05,0A16.15,16.15,0,0,0,10.23,8.66a.86.86,0,0,1,.35.37.89.89,0,0,1-.27,1c-.12.12-.14-.06-.14-.06a1,1,0,0,0-.49-.28l0,.09c.34.12.37.28.37.28.16.58-.23.43-.23.43a.3.3,0,0,1,0-.44.44.44,0,0,0-.2-.11l-.22.45a.59.59,0,0,1,.26.23s.16.21-.11.52L9,11.83s-.18.13-.14-.07v-.18l-.2.51a.2.2,0,0,1,.11,0,.21.21,0,0,1,0,.41.2.2,0,0,1-.19-.16l-.17.48.06-.08s.16-.22.18.06l0,.82A.42.42,0,0,1,8.2,14H8l-.14.5a.61.61,0,0,0,.28,0,.3.3,0,0,1,.27-.35s.4.12-.07.49c0,0-.13.13-.53,0l0,.11c.42.15.6,0,.6,0s.13-.13.15,0a.89.89,0,0,1-.37,1,.93.93,0,0,1-.66.08A23.61,23.61,0,0,0,7,19c-7.43,3.41-7,4.48-7,4.48,0,2.83,9.34,3.6,15.72,3.8a59.39,59.39,0,0,0-1.48,9.11c-.57,4.48,1,6.26,1,6.26,1,2.21,3.81,2.49,3.81,2.49a7,7,0,0,0,6-1.67,33.13,33.13,0,0,0,3.81-6.35l.52-.05a5.61,5.61,0,0,0,.44-1.5,17.19,17.19,0,0,1,.89-2.7A15,15,0,0,0,34,32.16c.31-.28,3.08-1.83,3.08-1.83a3.46,3.46,0,0,0,1.53-.69A2.89,2.89,0,0,0,40,27.71a17.49,17.49,0,0,0,4.77-1C45.95,26.18,44.25,25,44.25,25ZM10.48,10.51s.38-.07.74,1v.05c.34,1.07,0,1.24,0,1.24-.5.33-.49-.09-.49-.09a.3.3,0,0,1,.42-.14s.16-.19-.1-1-.5-.85-.5-.85a.3.3,0,0,1-.43.13S9.89,10.53,10.48,10.51ZM9.12,11.88l.5-.65a.42.42,0,0,1,.58-.11,1.7,1.7,0,0,1,.34.32s.27,0,.34.23c0,0,.05.17-.16.37a.71.71,0,0,1-.14.54s-.15.22-.53.06l-.81-.3s-.18-.13,0-.15l.46-.11s.13-.12,0-.17L9.22,12S9,12.12,9.12,11.88Zm-.32.89s.07-.21.15,0l.25.41s.16.09.15-.08l-.27-.4s-.16-.22.12-.15l.77.27a.42.42,0,0,1,.28.52,1.72,1.72,0,0,1-.2.42s.05.27-.12.4c0,0-.14.1-.4,0a.71.71,0,0,1-.55,0s-.26-.07-.22-.49Zm.12,1.55a.3.3,0,0,1,.27.35s.23.09.9-.39.65-.73.65-.73a.3.3,0,0,1-.25-.37s.24-.35.44.21c0,0,.19.33-.72,1l0,0,0,0c-.92.65-1.18.37-1.18.37C8.51,14.43,8.91,14.31,8.91,14.31ZM11,15.46l-.11.08C9.7,16.4,9.12,16,9.12,16a.9.9,0,0,1-.37-1c0-.17.15,0,.15,0,.45.14,1.32-.45,1.32-.45,1-.7.85-1.13.85-1.13s-.08-.16.08-.13a.89.89,0,0,1,.81.66S12.19,14.59,11,15.46ZM12.39,13a.89.89,0,0,1-1,.05c-.15-.07,0-.16,0-.16.28-.39,0-1.4,0-1.4-.37-1.13-.81-1.16-.81-1.16s-.18,0-.1-.12a.89.89,0,0,1,.88-.57s.72,0,1.17,1.4l0,.13C13,12.6,12.39,13,12.39,13ZM26.72,36.68a12,12,0,0,1-4.85,7.39,4,4,0,0,1-5.26-.63c-1-1.15-.48-5.56-.48-5.56a46.92,46.92,0,0,1,2-10.59h0c2.07,0,3.45,0,3.45,0,1.82,0,4.15.11,4.15.11l.41,0,.2,1.57a11.38,11.38,0,0,1,1.56,2.22,51.54,51.54,0,0,1-1.61,5.28ZM38.53,29.1a8,8,0,0,0-1.86.89,3.58,3.58,0,0,1-1.08.92l-1.11.36a3,3,0,0,1-3.39-.11l-.25-1-1-.09c-.81-.06-1-.25-1-.25l-.13-2.11a65.3,65.3,0,0,0,10.51.11A1.15,1.15,0,0,1,38.53,29.1Z"/></g></svg>