<svg xmlns="http://www.w3.org/2000/svg" viewBox="0 0 46.48 47.24"><defs><style>.cls-1{fill:#fff;}</style></defs><title>工作區域 160</title><g id="圖層_1" data-name="圖層 1"><path class="cls-1" d="M39.09,36.38a1.4,1.4,0,0,1,2.05-.24l5.3,3.8a10.83,10.83,0,0,0-3.17-8.21,12.32,12.32,0,0,0-1.76-1.52l0,0a5.26,5.26,0,0,0-1.17-.72,4.77,4.77,0,0,0-1.26-.36h0a6,6,0,0,0-.82-.05c-.76,0-1.86-.12-2.53-.24a12,12,0,0,1-2.57-.91L26.4,20.85h0l0,0-4.29,5,6.34,6.64A7.25,7.25,0,0,1,30,35.9c.14,1.77.11,3.17.11,3.17h0a4.68,4.68,0,0,0,.74,2.6A5.26,5.26,0,0,0,32,43h0c3.33,3.28,8,4.18,11.13,2.33l-5.3-3.8a1.68,1.68,0,0,1-.6-2.15Z"/><path class="cls-1" d="M20.56,27.09l-.5-.42,1.25-1.46h0l.12-.15,4.25-5h0L35.16,9a3.31,3.31,0,0,0,3-1.47l2.5-4,.3-.48L37.88.43l-.41.38L34,4a3.17,3.17,0,0,0-1,3.17L23.75,18h0L19.5,23l-.13.16-.11.13h0l-1.3,1.53h0l-1.39-1.18a.84.84,0,0,0-1.19.17l-.16.19a.77.77,0,0,0,0,.08v0l0,0,0,0,0,0,0,0h0l0,.12h0l0,.06h0v0l0,0,0,0-.19-.16a.47.47,0,0,0-.67.08L1.23,39.59C-.3,41.38-.43,43.93,1,45.15l1.68,1.43c1.44,1.22,3.92.68,5.45-1.12L21,30.39a.46.46,0,0,0,0-.66l-.28-.23h0l.06,0,0,0,.05,0,0,0,.06,0,0,0,0,0,0,0,0,0,0,0s0,0,0,0,0-.06,0-.08l.16-.19a.81.81,0,0,0,.08-1.11ZM3.4,42.36A1,1,0,0,1,2,42.61a1,1,0,0,1,0-1.39l11.7-13.74a1,1,0,0,1,1.36-.25,1,1,0,0,1,0,1.39ZM18.09,31.18,6.39,44.91a1,1,0,0,1-1.34.27,1,1,0,0,1,.05-1.37L16.8,30.08a1,1,0,0,1,1.34-.27A1,1,0,0,1,18.09,31.18Z"/><path class="cls-1" d="M6.68,16l0,0a5.35,5.35,0,0,0,1.17.72,4.76,4.76,0,0,0,1.27.37,5.79,5.79,0,0,0,.82.05c.76,0,1.86.12,2.53.24a12,12,0,0,1,2.57.92l3.74,3.92,4.25-5-3.27-3.43a7.25,7.25,0,0,1-1.6-3.48c-.13-1.77-.11-3.17-.11-3.17h0a4.69,4.69,0,0,0-.74-2.6,5.32,5.32,0,0,0-1.15-1.31h0C12.84,0,8.21-.9,5,.94l5.3,3.81a1.68,1.68,0,0,1,.6,2.15l-1.82,3a1.4,1.4,0,0,1-2.06.24L1.76,6.31a10.83,10.83,0,0,0,3.16,8.21A12.37,12.37,0,0,0,6.68,16Z"/></g></svg>