<svg xmlns="http://www.w3.org/2000/svg" viewBox="0 0 300 110"><defs><style>.cls-1{fill:#2155a2;}.cls-2{fill:none;}.cls-3{fill:#4c4948;}.cls-4{fill:#7d7d7d;}</style></defs><title>decoration-tit</title><g id="圖層_1" data-name="圖層 1"><polygon class="cls-1" points="265.17 42.84 258.18 42.84 273.39 57.07 258.24 71.31 265.17 71.31 280.44 57.07 265.17 42.84"/><path class="cls-2" d="M175.95,37.64a10.28,10.28,0,0,0,3-4.32h-7.58A17.53,17.53,0,0,0,175.95,37.64Z"/><path class="cls-2" d="M80.27,48.88a21.53,21.53,0,0,0,5.12-3.1,9.71,9.71,0,0,0,3.31-4.66,17.15,17.15,0,0,0,.82-4.25H80.27Z"/><path class="cls-2" d="M101.74,48.39V36.87H93a14.25,14.25,0,0,0,2.25,5.85A20.42,20.42,0,0,0,101.74,48.39Z"/><rect class="cls-2" x="53.4" y="51.8" width="7.76" height="1.53"/><rect class="cls-2" x="43.31" y="51.8" width="7.06" height="1.53"/><path class="cls-2" d="M49.35,43.13h-.72l0,0Z"/><polygon class="cls-3" points="53.4 54.94 53.4 53.33 50.37 53.33 50.37 54.94 36.75 54.94 36.75 57.79 67.02 57.79 67.02 54.94 53.4 54.94"/><path class="cls-3" d="M61.16,51.31v.49h1.59V49.09H53.4V45.64c2.59-.21,4.78-.38,6.59-.56.65.77,1.3,1.53,1.95,2.37l2.7-1.74a40.71,40.71,0,0,0-6.69-6.4l-2.12,1.77c.58.49,1.16,1,1.77,1.57q-4,.29-8.25.48h9.83v1.77H45V43.13h3.61l4-4.38h9.35V36H41.83v2.71h7L44.7,43.35c-1.54.07-3.07.14-4.61.17l.68,3c0,.35.17.52.38.52s.44-.17.68-.56c3.14-.21,6-.42,8.53-.63v3.2H40.6V51.8h2.71v-.49Z"/><polygon class="cls-3" points="53.4 51.8 61.16 51.8 61.16 51.31 43.31 51.31 43.31 51.8 50.37 51.8 50.37 53.33 53.4 53.33 53.4 51.8"/><path class="cls-3" d="M45,44.91H59.18V43.13H49.35l-.76,0,0,0H45Z"/><path class="cls-3" d="M53.54,30.33V28.41c.44-.35.68-.63.68-.8s-.31-.38-.85-.45l-3-.24v3.41H37.43v7.21h3V33.18H63v4.35h3V30.33Z"/><path class="cls-2" d="M80.27,48.88a21.53,21.53,0,0,0,5.12-3.1,9.71,9.71,0,0,0,3.31-4.66,17.15,17.15,0,0,0,.82-4.25H80.27Z"/><path class="cls-2" d="M95.29,42.72a20.42,20.42,0,0,0,6.45,5.67V36.87H93A14.25,14.25,0,0,0,95.29,42.72Z"/><path class="cls-3" d="M92.79,33.88c.07-1.81.14-3.9.14-6.26H83.2v2.71h6.62q-.05,1.93-.1,3.55H77.06V58.35h3.21V49.05l2.66,2.09A27.41,27.41,0,0,0,88,47.56,13.93,13.93,0,0,0,91.6,42.3a.9.9,0,0,1,.07-.24,10.5,10.5,0,0,0,1.09,2.16,23,23,0,0,0,6.86,6.93l2.12-2.3v4.87c0,.83-.51,1.25-1.47,1.29l-3.48.07L98,58.35a17.85,17.85,0,0,0,4.2-.56c1.81-.49,2.73-1.53,2.73-3.13V33.88Zm-4.1,7.24a9.71,9.71,0,0,1-3.31,4.66,21.53,21.53,0,0,1-5.12,3.1v-12h9.25A17.15,17.15,0,0,1,88.7,41.12Zm13,7.27a20.42,20.42,0,0,1-6.45-5.67A14.25,14.25,0,0,1,93,36.87h8.7Z"/><path class="cls-3" d="M115.39,41.36l2,2.16A7.62,7.62,0,0,0,121,40.91a6.54,6.54,0,0,0,.89-3h3.41v5.29h2.8V28.31c.34-.38.55-.66.55-.83s-.27-.31-.75-.35l-2.59-.21V31h-4.81V28.55c.34-.35.55-.63.55-.8s-.24-.31-.72-.35l-2.63-.21v6.13h7.61v2.05h-9.73V38h3.62a3.31,3.31,0,0,1-.58,1.53A7,7,0,0,1,115.39,41.36Z"/><path class="cls-3" d="M144.71,33.88V31.16H139V28.41c.34-.35.55-.63.55-.8s-.27-.38-.79-.45l-2.8-.24v4.25h-6v2.71h6v4.21h-5.09V40.8h13.07V38.09H139V33.88Z"/><path class="cls-3" d="M142.05,50.72c.61,0,1-.07,1-.28a.68.68,0,0,0-.2-.45l-2.08-2.12a36.59,36.59,0,0,1-3.79,2.92,12.52,12.52,0,0,1-2.39-3.34h10.58V44.74H132.46V43.1c.34-.35.55-.63.55-.8s-.27-.38-.82-.45l-2.8-.24v3.13H115.53v2.71h10.21a32.67,32.67,0,0,1-3.35,1.67,41.5,41.5,0,0,1-7.92,2.3L116.72,54a42.26,42.26,0,0,0,7.34-2.79v3.45c-1.4.21-2.83.42-4.27.56l.68,2.89c0,.35.17.52.38.52s.44-.21.68-.56q7.78-1.72,11.47-2.71V52.92c-2,.49-4,.91-6,1.25V49.58a33.46,33.46,0,0,0,3.21-2.12h1.43a14.85,14.85,0,0,0,2.08,3.72,18.52,18.52,0,0,0,3.82,3.9,58.88,58.88,0,0,0,5.84,3.69l3.07-2.47A32.35,32.35,0,0,1,139,52.53C140,52,141,51.35,142.05,50.72Z"/><path class="cls-3" d="M178,45.47a2.06,2.06,0,0,1,.89-.31c.27-.07.41-.21.41-.42s-.14-.31-.41-.49L177,42.72a20,20,0,0,1-4.06,2A26.57,26.57,0,0,1,167.59,46l1.88,2.33A44.21,44.21,0,0,0,174.69,47,19.11,19.11,0,0,0,178,45.47Z"/><path class="cls-3" d="M184.86,51.8l-2.08-1.74a33.42,33.42,0,0,1-6.83,3.62,43.76,43.76,0,0,1-9,2.23l2,2.58A76.86,76.86,0,0,0,177.79,56a30.6,30.6,0,0,0,5.63-2.72,3.81,3.81,0,0,1,1.5-.56c.24-.07.38-.21.38-.42S185.13,52,184.86,51.8Z"/><path class="cls-3" d="M168.78,53.3a56.67,56.67,0,0,0,7.48-2A25.06,25.06,0,0,0,181,49a3.34,3.34,0,0,1,1.3-.45c.24-.07.38-.21.38-.42s-.14-.35-.41-.52l-2-1.67a25.43,25.43,0,0,1-5.73,3,35.47,35.47,0,0,1-7.61,1.88Z"/><path class="cls-3" d="M164.72,34.19,162.12,34v19.7h2.8V35.38a1.44,1.44,0,0,0,.51-.83C165.44,34.33,165.2,34.23,164.72,34.19Z"/><path class="cls-3" d="M175.78,41a29.49,29.49,0,0,0,7.82,2.92l1.84-3A33,33,0,0,1,178.58,39a12.88,12.88,0,0,0,3.55-5.71h2.12V30.47H172.13c.21-.52.44-1.08.65-1.64.44-.21.68-.42.68-.66s-.21-.28-.58-.35l-2.63-.63a31.46,31.46,0,0,1-4.68,9.26l2.56,1.36c.55-.8,1.06-1.64,1.57-2.51a23.21,23.21,0,0,0,3.65,4A41.17,41.17,0,0,1,165.44,42l2.8,2.05A35.66,35.66,0,0,0,175.78,41Zm-4.37-7.69H179a10.28,10.28,0,0,1-3,4.32A17.53,17.53,0,0,1,171.41,33.32Z"/><path class="cls-3" d="M163.59,28.83c0-.17-.17-.31-.48-.45l-2.73-1.32a57.5,57.5,0,0,1-3.14,8,45.5,45.5,0,0,1-4.06,7l2.25,2.3c.68-1.08,1.37-2.16,2-3.24v17.4h2.94v-23c.75-1.67,1.54-3.62,2.39-5.85Q163.59,29.35,163.59,28.83Z"/><path class="cls-2" d="M118.07,76.81h-1.3v6.62h1.3a3.46,3.46,0,0,0,2.6-.9,3.23,3.23,0,0,0,.8-2.35,3.56,3.56,0,0,0-.79-2.59A3.66,3.66,0,0,0,118.07,76.81Z"/><path class="cls-2" d="M104.46,78.17c0-.9-.62-1.37-1.82-1.37h-2.49v2.74h2.49a2.08,2.08,0,0,0,1.42-.42A1.23,1.23,0,0,0,104.46,78.17Z"/><path class="cls-2" d="M161.06,78.17c0-.9-.62-1.37-1.82-1.37h-2.49v2.74h2.49a2.08,2.08,0,0,0,1.42-.42A1.23,1.23,0,0,0,161.06,78.17Z"/><polygon class="cls-2" points="167.88 80.96 170.77 80.96 169.33 77.36 167.88 80.96"/><path class="cls-2" d="M91.78,76.74a2.2,2.2,0,0,0-1.83.91,4,4,0,0,0-.68,2.46,4,4,0,0,0,.7,2.47,2.25,2.25,0,0,0,3.64,0,4.71,4.71,0,0,0,0-4.93A2.21,2.21,0,0,0,91.78,76.74Z"/><path class="cls-2" d="M77.17,78.17c0-.9-.62-1.37-1.82-1.37H72.86v2.74h2.49a2.08,2.08,0,0,0,1.42-.42A1.23,1.23,0,0,0,77.17,78.17Z"/><path class="cls-2" d="M148.39,76.74a2.2,2.2,0,0,0-1.83.91,4,4,0,0,0-.68,2.46,4,4,0,0,0,.7,2.47,2.25,2.25,0,0,0,3.64,0,4.71,4.71,0,0,0,0-4.93A2.21,2.21,0,0,0,148.39,76.74Z"/><path class="cls-2" d="M196,76.74a2.2,2.2,0,0,0-1.83.91,4,4,0,0,0-.68,2.46,4,4,0,0,0,.7,2.47,2.25,2.25,0,0,0,3.64,0,4.71,4.71,0,0,0,0-4.93A2.21,2.21,0,0,0,196,76.74Z"/><rect class="cls-4" x="36.94" y="75.63" width="1.26" height="8.97"/><polygon class="cls-4" points="48.41 82.6 43.96 75.64 42.6 75.64 42.6 84.61 43.84 84.61 43.84 77.64 48.29 84.61 49.64 84.61 49.64 75.64 48.41 75.64 48.41 82.6"/><polygon class="cls-4" points="52.73 76.81 55.58 76.81 55.58 84.61 56.81 84.61 56.81 76.81 59.66 76.81 59.66 75.64 52.73 75.64 52.73 76.81"/><polygon class="cls-4" points="62.74 84.61 68.28 84.61 68.28 83.43 63.96 83.43 63.96 80.61 67.79 80.61 67.79 79.43 63.96 79.43 63.96 76.81 68.28 76.81 68.28 75.64 62.74 75.64 62.74 84.61"/><path class="cls-4" d="M78.43,78.17a2.31,2.31,0,0,0-.87-1.9,3.47,3.47,0,0,0-2.18-.64H71.63v9h1.23V80.73h2.42l2,3.88h1.39L76.6,80.54A2.34,2.34,0,0,0,78.43,78.17Zm-5.57,1.38V76.81h2.49c1.2,0,1.82.46,1.82,1.37a1.23,1.23,0,0,1-.4,1,2.08,2.08,0,0,1-1.42.42Z"/><rect class="cls-4" x="82.6" y="75.63" width="1.26" height="8.97"/><path class="cls-4" d="M91.78,75.53A3.34,3.34,0,0,0,89,76.89a5.83,5.83,0,0,0,0,6.46,3.31,3.31,0,0,0,2.81,1.37,3.34,3.34,0,0,0,2.81-1.37,5.83,5.83,0,0,0,0-6.46A3.38,3.38,0,0,0,91.78,75.53Zm1.82,7.06a2.25,2.25,0,0,1-3.64,0,4,4,0,0,1-.7-2.47,4,4,0,0,1,.68-2.46,2.28,2.28,0,0,1,3.65,0,4.71,4.71,0,0,1,0,4.93Z"/><path class="cls-4" d="M105.71,78.17a2.31,2.31,0,0,0-.87-1.9,3.46,3.46,0,0,0-2.18-.64H98.92v9h1.23V80.73h2.42l2,3.88H106l-2.11-4.07A2.34,2.34,0,0,0,105.71,78.17Zm-5.57,1.38V76.81h2.49c1.21,0,1.82.46,1.82,1.37a1.23,1.23,0,0,1-.4,1,2.08,2.08,0,0,1-1.42.42Z"/><path class="cls-4" d="M118.07,75.63h-2.53v9h2.53a4.76,4.76,0,0,0,3.44-1.17,4.32,4.32,0,0,0,1.23-3.25,4.58,4.58,0,0,0-1.23-3.52A5,5,0,0,0,118.07,75.63Zm2.6,6.9a3.46,3.46,0,0,1-2.6.9h-1.3V76.81h1.3a3.66,3.66,0,0,1,2.61.78,3.56,3.56,0,0,1,.79,2.59A3.23,3.23,0,0,1,120.67,82.53Z"/><polygon class="cls-4" points="126.09 84.61 131.64 84.61 131.64 83.43 127.31 83.43 127.31 80.61 131.14 80.61 131.14 79.43 127.31 79.43 127.31 76.81 131.64 76.81 131.64 75.64 126.09 75.64 126.09 84.61"/><path class="cls-4" d="M138.45,76.74a2.09,2.09,0,0,1,2,1.53l1.19-.45a3.22,3.22,0,0,0-3.2-2.31,3.27,3.27,0,0,0-2.66,1.37,5.19,5.19,0,0,0-1.07,3.36,4.88,4.88,0,0,0,1,3.22,3.28,3.28,0,0,0,4.59.57,4.67,4.67,0,0,0,1.21-1.83l-1.15-.48a3.61,3.61,0,0,1-.83,1.34,1.85,1.85,0,0,1-1.29.44,1.89,1.89,0,0,1-1.55-.81,3.75,3.75,0,0,1-.74-2.46,4,4,0,0,1,.79-2.59A2.12,2.12,0,0,1,138.45,76.74Z"/><path class="cls-4" d="M148.39,75.53a3.34,3.34,0,0,0-2.81,1.37,5.83,5.83,0,0,0,0,6.46,3.31,3.31,0,0,0,2.81,1.37,3.34,3.34,0,0,0,2.81-1.37,5.83,5.83,0,0,0,0-6.46A3.38,3.38,0,0,0,148.39,75.53Zm1.82,7.06a2.25,2.25,0,0,1-3.64,0,4,4,0,0,1-.7-2.47,4,4,0,0,1,.68-2.46,2.28,2.28,0,0,1,3.65,0,4.71,4.71,0,0,1,0,4.93Z"/><path class="cls-4" d="M162.32,78.17a2.31,2.31,0,0,0-.87-1.9,3.46,3.46,0,0,0-2.18-.64h-3.75v9h1.23V80.73h2.42l2,3.88h1.39l-2.11-4.07A2.34,2.34,0,0,0,162.32,78.17Zm-5.57,1.38V76.81h2.49c1.21,0,1.82.46,1.82,1.37a1.23,1.23,0,0,1-.4,1,2.08,2.08,0,0,1-1.42.42Z"/><path class="cls-4" d="M168.71,75.63l-3.63,9h1.31l1-2.47h3.88l1,2.47h1.31l-3.63-9ZM167.88,81l1.45-3.61L170.77,81Z"/><polygon class="cls-4" points="176.05 76.81 178.9 76.81 178.9 84.61 180.13 84.61 180.13 76.81 182.98 76.81 182.98 75.64 176.05 75.64 176.05 76.81"/><rect class="cls-4" x="186.87" y="75.63" width="1.26" height="8.97"/><path class="cls-4" d="M196,75.53a3.34,3.34,0,0,0-2.81,1.37,5.82,5.82,0,0,0,0,6.46A3.31,3.31,0,0,0,196,84.72a3.34,3.34,0,0,0,2.81-1.37,5.83,5.83,0,0,0,0-6.46A3.38,3.38,0,0,0,196,75.53Zm1.82,7.06a2.25,2.25,0,0,1-3.64,0,4,4,0,0,1-.7-2.47,4,4,0,0,1,.68-2.46,2.28,2.28,0,0,1,3.65,0,4.71,4.71,0,0,1,0,4.93Z"/><polygon class="cls-4" points="209 75.64 209 82.6 204.54 75.64 203.19 75.64 203.19 84.61 204.42 84.61 204.42 77.64 208.88 84.61 210.23 84.61 210.23 75.64 209 75.64"/></g></svg>