<svg xmlns="http://www.w3.org/2000/svg" viewBox="0 0 300 110"><defs><style>.cls-1{fill:none;}.cls-2{fill:#4c4948;}.cls-3{fill:#7d7d7d;}.cls-4{fill:#2155a2;}</style></defs><title>construction-tit</title><g id="圖層_1" data-name="圖層 1"><rect class="cls-1" x="96.97" y="35.27" width="4.13" height="1.92"/><rect class="cls-1" x="96.97" y="30.64" width="4.13" height="1.91"/><rect class="cls-1" x="172" y="29.94" width="8.4" height="4.25"/><rect class="cls-1" x="43.31" y="51.31" width="17.85" height="2.02"/><rect class="cls-1" x="45.02" y="43.13" width="14.17" height="1.77"/><path class="cls-2" d="M41.88,27.4l-2.46-.31a9.38,9.38,0,0,1-.82,2.75,6.54,6.54,0,0,1-1,1.5l2.25.94A7.39,7.39,0,0,0,41,30.78a10.78,10.78,0,0,0,.85-2.19,1.29,1.29,0,0,0,.51-.8C42.35,27.58,42.18,27.47,41.88,27.4Z"/><path class="cls-2" d="M51.77,27.61,49.56,27a12.26,12.26,0,0,1-.85,2.47,6.94,6.94,0,0,1-1,1.6l2.25.8a13.77,13.77,0,0,0,1.6-3.27c.34-.24.55-.45.55-.66S52,27.64,51.77,27.61Z"/><path class="cls-2" d="M46.11,31.68a.27.27,0,0,1,0-.1,17.42,17.42,0,0,0,1-4.49c.27-.14.41-.28.41-.38s-.14-.31-.38-.35l-2.56-.49a13,13,0,0,1-1.06,5,5.15,5.15,0,0,1-2,2A9.5,9.5,0,0,1,38,34.29l1.74,2.33a11.59,11.59,0,0,0,4.61-2.33,5.07,5.07,0,0,0,.58-.63A13.31,13.31,0,0,0,46.52,35a17.12,17.12,0,0,0,3.17,1.67l2-2.44a13.4,13.4,0,0,1-3.11-1A11.68,11.68,0,0,1,46.11,31.68Z"/><path class="cls-2" d="M63.07,33.14a12.5,12.5,0,0,1-2.83-1.71A19.94,19.94,0,0,0,61.16,27c.27-.17.41-.31.41-.42s-.14-.31-.37-.35l-2.56-.49a14.24,14.24,0,0,1-1,5.08A5.55,5.55,0,0,1,55.8,32.9a8.31,8.31,0,0,1-3.31,1.39l1.74,2.33a10.42,10.42,0,0,0,4.27-2.37,4.77,4.77,0,0,0,.65-.77A11.94,11.94,0,0,0,61,34.88a18.63,18.63,0,0,0,3.41,1.74l2-2.44A14.19,14.19,0,0,1,63.07,33.14Z"/><path class="cls-2" d="M66.55,27.85l-2.32-.63a11,11,0,0,1-1,2.4A6.86,6.86,0,0,1,62,31.19l2.39.8a10.1,10.1,0,0,0,2-3,1.21,1.21,0,0,0,.55-.8C66.9,28,66.76,27.89,66.55,27.85Z"/><path class="cls-2" d="M54.23,32.27a9.8,9.8,0,0,0,1.26-1.5,13.15,13.15,0,0,0,.89-2.19c.34-.28.51-.49.51-.66s-.17-.31-.44-.38l-2.35-.31a8.06,8.06,0,0,1-.89,2.71,6.63,6.63,0,0,1-1.09,1.5Z"/><rect class="cls-1" x="45.02" y="43.13" width="14.17" height="1.77"/><rect class="cls-1" x="43.31" y="51.31" width="17.85" height="2.02"/><path class="cls-2" d="M52.25,48.84l1-1.74h8.64V41H42.35V47.1h7.58l-1,1.74h-8.6v8h2.94V55.8H61.16v1.08H64.1v-8ZM45,44.91V43.13H59.18v1.77Zm16.15,8.42H43.31v-2H61.16Z"/><polygon class="cls-2" points="37.44 43.55 40.37 43.55 40.37 39.48 63.69 39.48 63.69 43.55 66.62 43.55 66.62 37.04 37.44 37.04 37.44 43.55"/><rect class="cls-1" x="96.97" y="35.27" width="4.13" height="1.92"/><rect class="cls-1" x="96.97" y="30.64" width="4.13" height="1.91"/><path class="cls-2" d="M104,39.9V35.27h3V32.55h-3V27.92H97V27.5a1.48,1.48,0,0,0,.51-.8c0-.28-.27-.42-.78-.45L93.9,26v1.91H87.48v2.71H93.9v1.91H84.68v2.71H93.9v1.92H87.48V39.9H93.9v2.16h-7.2v2.71h7.2V47H85.64v2.85H93.9V53.5a30.16,30.16,0,0,1-5.39-.66,13.76,13.76,0,0,1-5.05-2,3.76,3.76,0,0,0,.24-.52c1.09-2.65,1.74-6.79,1.95-12.36H81.27l3.55-7.34q.82-.47.82-.94a.67.67,0,0,0-.34-.45l-1.67-1a1.44,1.44,0,0,0-.78-.28L82,28.2H76.28v2.85h5.09L76.15,42.19l2.66.94,1.09-2.3h2.8a25.52,25.52,0,0,1-1.6,8,27,27,0,0,1-2.53-3.38l-2.42.94a21.81,21.81,0,0,0,3.41,5.12A11.1,11.1,0,0,1,75.64,55l2.25,2.47A15,15,0,0,0,82,53.5a15.89,15.89,0,0,0,3.34,1.64,28.79,28.79,0,0,0,6.45,1.32A134.73,134.73,0,0,0,105.6,57l1.47-3.41c-1.64.1-3,.14-4,.14-2.25,0-4.3,0-6.11-.1V49.82h8.26V47H97V44.77h7.44V42.05H97V39.9ZM97,30.64h4.13v1.91H97Zm0,4.63h4.13v1.92H97Z"/><polygon class="cls-2" points="132.33 50.89 132.33 32.41 143.15 32.41 143.15 29.28 117.93 29.28 117.93 32.41 129.02 32.41 129.02 50.89 116.08 50.89 116.08 54.03 145.13 54.03 145.13 50.89 132.33 50.89"/><rect class="cls-1" x="172" y="29.94" width="8.4" height="4.25"/><path class="cls-2" d="M177.46,53.33V49h6.93V46.27h-6.93V42.05c1.57-.28,3.17-.59,4.75-1a9,9,0,0,1,1.19-.14l.85.17c.27,0,.41-.07.41-.28a.86.86,0,0,0-.21-.56l-2.18-2.16a49.13,49.13,0,0,1-7.2,1.46,61.56,61.56,0,0,1-7.75.7l2,2.85c1.74-.14,3.48-.35,5.19-.63v3.76H168V49h6.52v4.35h-7.34V56h18V53.33Z"/><path class="cls-2" d="M183.33,27.23H169.06V36.9h14.27Zm-2.94,7H172V29.94h8.4Z"/><path class="cls-2" d="M167.46,36.35h-4.92v-6a27,27,0,0,0,2.63-1,2,2,0,0,1,.82-.21l.82.17c.24,0,.38-.07.38-.28a.86.86,0,0,0-.17-.52l-2.08-2.05a27.49,27.49,0,0,1-5,1.84,24.39,24.39,0,0,1-5.39.87l2,2.71a24.31,24.31,0,0,0,3.07-.66v5.15h-4.95v2.71h4.2A34.62,34.62,0,0,1,157,44.14a27.72,27.72,0,0,1-3.17,5.12l2.66,2.44a36.05,36.05,0,0,0,2.7-5.57c.1-.28.24-.66.38-1.08V57.16h2.94V43.38a32.8,32.8,0,0,0,2.25,5.08L167,46a24.24,24.24,0,0,1-3.72-6.93h4.13Z"/><path class="cls-1" d="M164.24,80.89a2.57,2.57,0,0,0-1.42-.35H161v2.9h1.81a2.54,2.54,0,0,0,1.47-.41,1.15,1.15,0,0,0,.55-.94A1.35,1.35,0,0,0,164.24,80.89Z"/><path class="cls-1" d="M49.25,76.74a2.2,2.2,0,0,0-1.83.91,4,4,0,0,0-.68,2.46,4,4,0,0,0,.7,2.47,2.25,2.25,0,0,0,3.64,0,4.71,4.71,0,0,0,0-4.93A2.21,2.21,0,0,0,49.25,76.74Z"/><path class="cls-1" d="M135.53,76.74a2.2,2.2,0,0,0-1.83.91,4,4,0,0,0-.68,2.46,4,4,0,0,0,.7,2.47,2.25,2.25,0,0,0,3.64,0,4.71,4.71,0,0,0,0-4.93A2.21,2.21,0,0,0,135.53,76.74Z"/><path class="cls-1" d="M91,78.17c0-.9-.62-1.37-1.82-1.37H86.68v2.74h2.49a2.08,2.08,0,0,0,1.42-.42A1.23,1.23,0,0,0,91,78.17Z"/><path class="cls-1" d="M164.07,79a1.13,1.13,0,0,0,.54-1c0-.79-.58-1.19-1.71-1.19H161v2.53h1.65A2.37,2.37,0,0,0,164.07,79Z"/><path class="cls-3" d="M39.32,76.74a2.09,2.09,0,0,1,2,1.53l1.19-.45a3.22,3.22,0,0,0-3.2-2.31,3.27,3.27,0,0,0-2.66,1.37,5.19,5.19,0,0,0-1.07,3.36,4.88,4.88,0,0,0,1,3.22,3.28,3.28,0,0,0,4.59.57,4.66,4.66,0,0,0,1.2-1.83l-1.15-.48a3.61,3.61,0,0,1-.83,1.34,1.84,1.84,0,0,1-1.29.44,1.89,1.89,0,0,1-1.55-.81,3.75,3.75,0,0,1-.74-2.46,4,4,0,0,1,.79-2.59A2.12,2.12,0,0,1,39.32,76.74Z"/><path class="cls-3" d="M49.25,75.53a3.34,3.34,0,0,0-2.81,1.37,5.83,5.83,0,0,0,0,6.46,3.31,3.31,0,0,0,2.81,1.37,3.34,3.34,0,0,0,2.81-1.37,5.83,5.83,0,0,0,0-6.46A3.38,3.38,0,0,0,49.25,75.53Zm1.82,7.06a2.25,2.25,0,0,1-3.64,0,4,4,0,0,1-.7-2.47,4,4,0,0,1,.68-2.46,2.28,2.28,0,0,1,3.65,0,4.71,4.71,0,0,1,0,4.93Z"/><polygon class="cls-3" points="62.2 82.6 57.74 75.64 56.39 75.64 56.39 84.61 57.62 84.61 57.62 77.64 62.08 84.61 63.43 84.61 63.43 75.64 62.2 75.64 62.2 82.6"/><path class="cls-3" d="M70,79.2q-2-.7-2-1.27,0-1.19,1.65-1.19a2,2,0,0,1,1.36.42,2.75,2.75,0,0,1,.55,1l1.15-.48a3.77,3.77,0,0,0-.88-1.49,3.22,3.22,0,0,0-2.18-.68,3.44,3.44,0,0,0-2,.53,2.15,2.15,0,0,0-.9,1.87,2,2,0,0,0,.82,1.67,6.12,6.12,0,0,0,1.73.82c1.54.55,2.31,1.11,2.31,1.68a1.22,1.22,0,0,1-.5,1,2.41,2.41,0,0,1-1.51.42,1.93,1.93,0,0,1-2-1.75l-1.12.46a2.9,2.9,0,0,0,3.09,2.5,3.81,3.81,0,0,0,2.25-.63,2.28,2.28,0,0,0,1-2,2.42,2.42,0,0,0-.92-2A7.23,7.23,0,0,0,70,79.2Z"/><polygon class="cls-3" points="75.43 76.81 78.28 76.81 78.28 84.61 79.51 84.61 79.51 76.81 82.36 76.81 82.36 75.64 75.43 75.64 75.43 76.81"/><path class="cls-3" d="M92.24,78.17a2.31,2.31,0,0,0-.87-1.9,3.47,3.47,0,0,0-2.18-.64H85.44v9h1.23V80.73H89.1l2,3.88h1.39l-2.11-4.07A2.34,2.34,0,0,0,92.24,78.17Zm-5.57,1.38V76.81h2.49c1.2,0,1.82.46,1.82,1.37a1.23,1.23,0,0,1-.4,1,2.08,2.08,0,0,1-1.42.42Z"/><path class="cls-3" d="M101.32,80.89a3.16,3.16,0,0,1-.54,2.1,2.31,2.31,0,0,1-1.71.51,2.27,2.27,0,0,1-1.7-.51,3.08,3.08,0,0,1-.54-2.1V75.63H95.61v5.26a4,4,0,0,0,.91,3,3.4,3.4,0,0,0,2.56.86,3.45,3.45,0,0,0,2.57-.86,4,4,0,0,0,.92-3V75.63h-1.24Z"/><path class="cls-3" d="M109.65,76.74a2.09,2.09,0,0,1,2,1.53l1.19-.45a3.22,3.22,0,0,0-3.2-2.31A3.27,3.27,0,0,0,107,76.88a5.19,5.19,0,0,0-1.07,3.36,4.88,4.88,0,0,0,1,3.22,3.28,3.28,0,0,0,4.59.57,4.66,4.66,0,0,0,1.2-1.83l-1.15-.48a3.61,3.61,0,0,1-.83,1.34,1.84,1.84,0,0,1-1.28.44,1.89,1.89,0,0,1-1.55-.81,3.75,3.75,0,0,1-.74-2.46,4,4,0,0,1,.79-2.59A2.12,2.12,0,0,1,109.65,76.74Z"/><polygon class="cls-3" points="115.53 76.81 118.38 76.81 118.38 84.61 119.61 84.61 119.61 76.81 122.46 76.81 122.46 75.64 115.53 75.64 115.53 76.81"/><rect class="cls-3" x="126.35" y="75.63" width="1.26" height="8.97"/><path class="cls-3" d="M135.53,75.53a3.34,3.34,0,0,0-2.81,1.37,5.83,5.83,0,0,0,0,6.46,3.31,3.31,0,0,0,2.81,1.37,3.34,3.34,0,0,0,2.81-1.37,5.83,5.83,0,0,0,0-6.46A3.38,3.38,0,0,0,135.53,75.53Zm1.82,7.06a2.25,2.25,0,0,1-3.64,0,4,4,0,0,1-.7-2.47,4,4,0,0,1,.68-2.46,2.28,2.28,0,0,1,3.65,0,4.71,4.71,0,0,1,0,4.93Z"/><polygon class="cls-3" points="148.48 82.6 144.02 75.64 142.67 75.64 142.67 84.61 143.9 84.61 143.9 77.64 148.36 84.61 149.71 84.61 149.71 75.64 148.48 75.64 148.48 82.6"/><path class="cls-3" d="M164.92,79.9a2.2,2.2,0,0,0,1-1.87c0-1.57-1-2.36-2.94-2.36h-3.13v8.94h3.06a4,4,0,0,0,2.1-.55,2.2,2.2,0,0,0,1.15-2A2.35,2.35,0,0,0,164.92,79.9ZM161,76.84h1.89c1.14,0,1.71.4,1.71,1.19a1.13,1.13,0,0,1-.54,1,2.37,2.37,0,0,1-1.42.38H161ZM164.29,83a2.54,2.54,0,0,1-1.47.41H161v-2.9h1.81a2.57,2.57,0,0,1,1.42.35,1.35,1.35,0,0,1,.6,1.19A1.15,1.15,0,0,1,164.29,83Z"/><path class="cls-3" d="M175.17,80.89a3.16,3.16,0,0,1-.54,2.1,2.31,2.31,0,0,1-1.71.51,2.27,2.27,0,0,1-1.7-.51,3.08,3.08,0,0,1-.54-2.1V75.63h-1.23v5.26a4,4,0,0,0,.91,3,3.4,3.4,0,0,0,2.56.86,3.45,3.45,0,0,0,2.57-.86,4,4,0,0,0,.92-3V75.63h-1.24Z"/><path class="cls-3" d="M183,79.2q-2-.7-2-1.27,0-1.19,1.65-1.19a2,2,0,0,1,1.36.42,2.75,2.75,0,0,1,.55,1l1.15-.48a3.78,3.78,0,0,0-.88-1.49,3.23,3.23,0,0,0-2.18-.68,3.44,3.44,0,0,0-2,.53,2.16,2.16,0,0,0-.9,1.87,2,2,0,0,0,.82,1.67,6.12,6.12,0,0,0,1.73.82c1.54.55,2.31,1.11,2.31,1.68a1.22,1.22,0,0,1-.5,1,2.41,2.41,0,0,1-1.51.42,1.93,1.93,0,0,1-2-1.75l-1.12.46a2.9,2.9,0,0,0,3.09,2.5,3.81,3.81,0,0,0,2.25-.63,2.28,2.28,0,0,0,1-2,2.42,2.42,0,0,0-.92-2A7.23,7.23,0,0,0,183,79.2Z"/><rect class="cls-3" x="189.76" y="75.63" width="1.26" height="8.97"/><polygon class="cls-3" points="201.23 82.6 196.77 75.64 195.42 75.64 195.42 84.61 196.65 84.61 196.65 77.64 201.11 84.61 202.46 84.61 202.46 75.64 201.23 75.64 201.23 82.6"/><polygon class="cls-3" points="206.08 84.61 211.62 84.61 211.62 83.43 207.29 83.43 207.29 80.61 211.12 80.61 211.12 79.43 207.29 79.43 207.29 76.81 211.62 76.81 211.62 75.64 206.08 75.64 206.08 84.61"/><path class="cls-3" d="M217.94,79.2q-2-.7-2-1.27,0-1.19,1.65-1.19a2,2,0,0,1,1.36.42,2.75,2.75,0,0,1,.55,1l1.15-.48a3.77,3.77,0,0,0-.88-1.49,3.23,3.23,0,0,0-2.18-.68,3.44,3.44,0,0,0-2,.53,2.16,2.16,0,0,0-.9,1.87,2,2,0,0,0,.82,1.67,6.12,6.12,0,0,0,1.73.82c1.54.55,2.32,1.11,2.32,1.68a1.22,1.22,0,0,1-.5,1,2.41,2.41,0,0,1-1.51.42,1.93,1.93,0,0,1-2-1.75l-1.12.46a2.9,2.9,0,0,0,3.09,2.5,3.81,3.81,0,0,0,2.25-.63,2.28,2.28,0,0,0,1-2,2.42,2.42,0,0,0-.92-2A7.23,7.23,0,0,0,217.94,79.2Z"/><path class="cls-3" d="M228.79,80.14a7.23,7.23,0,0,0-1.94-.94q-2-.7-2-1.27,0-1.19,1.65-1.19a2,2,0,0,1,1.36.42,2.75,2.75,0,0,1,.55,1l1.15-.48a3.77,3.77,0,0,0-.88-1.49,3.23,3.23,0,0,0-2.18-.68,3.44,3.44,0,0,0-2,.53,2.16,2.16,0,0,0-.9,1.87,2,2,0,0,0,.82,1.67,6.12,6.12,0,0,0,1.73.82c1.54.55,2.31,1.11,2.31,1.68a1.22,1.22,0,0,1-.5,1,2.41,2.41,0,0,1-1.51.42,1.93,1.93,0,0,1-2-1.75l-1.12.46a2.9,2.9,0,0,0,3.09,2.5,3.81,3.81,0,0,0,2.25-.63,2.28,2.28,0,0,0,1-2A2.42,2.42,0,0,0,228.79,80.14Z"/><polygon class="cls-4" points="265.17 71.31 258.24 71.31 273.39 57.07 258.18 42.84 265.17 42.84 280.44 57.07 265.17 71.31"/></g></svg>