<svg xmlns="http://www.w3.org/2000/svg" viewBox="0 0 212.88 68.71"><defs><style>.cls-1{fill:#4c4948;}.cls-2{fill:#749fd4;}</style></defs><title>工作區域 133</title><g id="圖層_1" data-name="圖層 1"><path class="cls-1" d="M34.51,24.12c-.26.45-.73.52-1.75.52H20.88c3.14,2.54,8.88,4.21,13.82,4.73l0,.41c-1.75.48-3.07,2.09-3.55,4.47A19.12,19.12,0,0,1,20,24.64h-.11v9.65c0,.26-1.61,1.19-4.31,1.19h-1V27.81C11,30.75,6,32.88.22,34.29L0,33.74a27.52,27.52,0,0,0,10.93-9.1H.51L.33,24H14.62V19.76H4.5l-.18-.6H14.62V15.1h-12l-.18-.6h8.92a2.71,2.71,0,0,1-1.72-1.16,7.37,7.37,0,0,0,.07-.89A6.42,6.42,0,0,0,8.56,8.57l.26-.19c4.42.67,5.92,2.24,5.92,3.65a2.7,2.7,0,0,1-2.3,2.46h7.86a37.16,37.16,0,0,0,1.13-6.23l6.43,1.6c-.11.45-.48.67-1.39.63a25.94,25.94,0,0,1-5.26,4h4.42l2.49-3.06,4.61,3.13c-.29.45-.77.52-1.75.52h-11v4.06h4.83l2.34-2.91,4.42,3c-.26.45-.77.52-1.72.52H19.93V24h7.31l2.56-3.21ZM.8,8.2.62,7.6H7.31A2.89,2.89,0,0,1,6,6.67,7.29,7.29,0,0,0,4.24,1.38l.22-.22c4.79.56,6.36,2.35,6.36,3.91A2.73,2.73,0,0,1,8.88,7.6h2.6V0l6,.6c-.07.41-.33.67-1.24.78V7.6h2.08V0l6.07.6c-.07.41-.37.67-1.24.78V7.6h.77a45.15,45.15,0,0,0,1.5-6.41L31.7,3c-.11.45-.48.63-1.39.6a28.23,28.23,0,0,1-5.52,4h2.74L29.94,4.7l4.53,3c-.26.45-.73.52-1.72.52Z"/><path class="cls-1" d="M47.6,22.07l.22-.11c3.84,1.68,5.12,3.69,5.12,5.29a2.55,2.55,0,0,1-2.41,2.65,2.35,2.35,0,0,1-1.94-1.12,10,10,0,0,0,.07-1.08,14.3,14.3,0,0,0-1.06-5.26V34.18c0,.26-1.46,1.3-3.87,1.3h-.88V24.19c-1.1,3.65-2.74,6.71-5,8.54l-.51-.3A36.8,36.8,0,0,0,39,21.92l3.88.78V19.46c-.88.3-1.83.63-2.85,1a1.48,1.48,0,0,1-1.1.82l-1.5-4.81h4.46A111.32,111.32,0,0,0,46.5,4.73l6,2.35a.94.94,0,0,1-1,.52,2.56,2.56,0,0,1-.51,0,82.83,82.83,0,0,1-7.53,8.87L48,16.33a8.77,8.77,0,0,0-1-2.46l.33-.19c4.17,1.38,5.56,3.32,5.56,4.88a2.64,2.64,0,0,1-2.56,2.61,2.47,2.47,0,0,1-2-1.16,5.88,5.88,0,0,0,0-.82,9,9,0,0,0-.15-1.72l-.62.22ZM37.73,6.45a14.07,14.07,0,0,1,3.18.82c.51-2,1-4.81,1.43-7.27l6.22,2.05c-.15.48-.55.75-1.5.75a34,34,0,0,1-4.9,5.11,3.09,3.09,0,0,1,1.65,2.57,2.47,2.47,0,0,1-2.38,2.42A2.33,2.33,0,0,1,39.63,12a10.13,10.13,0,0,0-2.16-5.33ZM58.42,28.22a.66.66,0,0,1-.26.6l4.9,3.5a1.63,1.63,0,0,1-1.21.41,4.44,4.44,0,0,1-1.1-.15,51.74,51.74,0,0,1-11,2.87L49.57,35A37.33,37.33,0,0,0,57,29.64v0a6.84,6.84,0,0,1-3.47.63V13.79l5.16,2.05H65l1.75-2.35,4.83,3.36a1.74,1.74,0,0,1-1.13.63v11s-1.35,1.16-5.12,1.16V28.22Zm10-19,4.2,3c-.26.45-.8.52-1.72.52H51.18l-.15-.6h8.15V8.69H53.41l-.18-.6h6V4.77H51.8l-.15-.6h7.53V0l6.69.67c-.07.48-.37.78-1.39.93V4.17h1.1L67.82,1.3,72,4.25c-.26.45-.8.52-1.72.52H64.49V8.09h1l2.08-2.65,3.84,2.72c-.26.45-.77.52-1.68.52H64.49v3.43h1.68Zm-3.14,7.23H58.42v3.28h6.87Zm-6.87,7.19h6.87V20.32H58.42Zm0,4h6.87V24.23H58.42Zm4,2.09c7.49,0,9.83,1.86,9.83,3.43,0,1.27-1.43,2.35-2.92,2.35a2.94,2.94,0,0,1-2.27-1,9.06,9.06,0,0,0-4.79-4.29Z"/><path class="cls-1" d="M74.69,20.8C77.32,16.07,80.17,7.68,81.6,0l7.13,2.16c-.15.48-.51.78-1.54.78a52.92,52.92,0,0,1-3.07,6.82l1.54.56c-.11.37-.4.6-1.13.75V33.92c-.07.37-2.23,1.53-4.31,1.53h-1V17a32.83,32.83,0,0,1-4.13,4.06ZM110.26,7.6c-.29.41-.84.52-1.83.52h-8.23v7.53h1.17l2.52-3.43,4.64,3.5c-.26.41-.84.52-1.79.52h-6.54V24h1.32l2.78-3.73,5,3.8c-.29.41-.84.52-1.83.52h-7.28v9.51c0,.34-1.65,1.42-4.46,1.42h-1V8.24a30.64,30.64,0,0,1-8.15,9.47l-.4-.26c2.16-4,4.39-10.92,5.52-17.41l7.13,2.2c-.15.48-.51.78-1.54.78a46.58,46.58,0,0,1-2.16,4.51h7.42l2.74-3.69Z"/><path class="cls-1" d="M122.62,19.53,124.48,17l5,3.62a2.24,2.24,0,0,1-1.43.78V33.33s-1.28,1.42-5.08,1.42V31.54h-3.66v2c0,.11-.73,1.9-5,1.9v-18l5.19,2.09Zm-3.29,11.41H123V20.13h-3.66Zm6.21-17.3v1c0,.15-.77,1.9-5.08,1.9V.67l5.3,2.09h7.68l1.9-2.57,5.12,3.65a2.54,2.54,0,0,1-1.46.82V14.84s-1.35,1.42-5.19,1.42V13.64ZM133.8,3.35h-8.26V13h8.26ZM141.7,17l5.12,3.65a2.54,2.54,0,0,1-1.46.82V33.7c0,.08-1.43,1.19-5.19,1.19V31.54h-4.31v2c0,.11-.73,1.9-5,1.9v-18L136,19.53h3.77Zm-5.85,14h4.31V20.13h-4.31Z"/><path class="cls-2" d="M88.21,59.45,86.69,64.8a6.94,6.94,0,0,0-.32,1.6,1.18,1.18,0,0,0,.42,1,3.54,3.54,0,0,0,1.88.36l-.18.52H79.32l.15-.52a4.52,4.52,0,0,0,1.65-.23,1.87,1.87,0,0,0,.8-.71,8.89,8.89,0,0,0,.71-2l3.48-12.17a7.11,7.11,0,0,0,.36-1.74A1.09,1.09,0,0,0,86,50a2.92,2.92,0,0,0-1.66-.39l.15-.52h7.44a9.12,9.12,0,0,1,4.41.79,4.07,4.07,0,0,1,2.08,3.73,5.51,5.51,0,0,1-2.07,4.23,8.12,8.12,0,0,1-5.58,1.83A17.74,17.74,0,0,1,88.21,59.45Zm.28-1.09a12.45,12.45,0,0,0,1.5.11,3.38,3.38,0,0,0,3-1.78A7,7,0,0,0,94.09,53a2.81,2.81,0,0,0-.71-2,2.6,2.6,0,0,0-2-.73l-.65,0Z"/><path class="cls-2" d="M106.36,58.9l-1.66,5.81a7.27,7.27,0,0,0-.36,1.81,1,1,0,0,0,.43.86,3.39,3.39,0,0,0,1.79.35l-.19.52h-9l.17-.52a3,3,0,0,0,2-.54,5.14,5.14,0,0,0,1.16-2.4l3.49-12.29a6.38,6.38,0,0,0,.29-1.62A1.05,1.05,0,0,0,104,50a3.41,3.41,0,0,0-1.68-.4l.14-.52h7.79q3.34,0,4.7,1.19a3.87,3.87,0,0,1,1.36,3.05,4.91,4.91,0,0,1-1.58,3.55,8.35,8.35,0,0,1-3.53,1.71l1.69,5.81a7.7,7.7,0,0,0,1.18,2.81,2.54,2.54,0,0,0,1.68.52v.52h-5.85l-2.66-9.35-.46,0Zm.19-.85.82,0a4.32,4.32,0,0,0,3.33-1.41A5.25,5.25,0,0,0,112,53a2.83,2.83,0,0,0-.69-2.06,2.45,2.45,0,0,0-1.83-.71h-.65Z"/><path class="cls-2" d="M125.83,68.71a6.44,6.44,0,0,1-3.67-.95,5.78,5.78,0,0,1-2.1-2.59,8.11,8.11,0,0,1-.7-3.19,13,13,0,0,1,1.76-6.32,14,14,0,0,1,4.75-5.1,10.88,10.88,0,0,1,5.9-1.91,6.42,6.42,0,0,1,3.24.88A6.14,6.14,0,0,1,137.38,52a6.57,6.57,0,0,1,.85,3.17A13.52,13.52,0,0,1,136,62.3a14.86,14.86,0,0,1-5,5.21A10.26,10.26,0,0,1,125.83,68.71ZM131.3,49.8a4,4,0,0,0-1.86.4,5.82,5.82,0,0,0-1.6,1.35,12.4,12.4,0,0,0-1.69,2.71A25,25,0,0,0,124.53,59a21.54,21.54,0,0,0-.76,5,4,4,0,0,0,.73,2.61,2.34,2.34,0,0,0,1.88.88,3.59,3.59,0,0,0,2.59-1,14.81,14.81,0,0,0,3.46-6,22.42,22.42,0,0,0,1.34-7.06,4.42,4.42,0,0,0-.71-2.8A2.2,2.2,0,0,0,131.3,49.8Z"/><path class="cls-2" d="M146.63,49.62l.15-.52H156l-.15.52a3,3,0,0,0-2,.59,4.56,4.56,0,0,0-1.17,2.25l-2,7.18a30.77,30.77,0,0,1-1.92,5.44,7.15,7.15,0,0,1-2.34,2.59,6.72,6.72,0,0,1-3.86,1,4.2,4.2,0,0,1-2.83-.81,2.61,2.61,0,0,1-.93-2.06,2.44,2.44,0,0,1,.63-1.72,1.91,1.91,0,0,1,1.43-.68,1.69,1.69,0,0,1,1.21.47A1.51,1.51,0,0,1,142.6,65a2.17,2.17,0,0,1-.6,1.34,1.33,1.33,0,0,0-.36.72.47.47,0,0,0,.19.38,1.22,1.22,0,0,0,.76.25,1.89,1.89,0,0,0,1.5-1.07,28.15,28.15,0,0,0,2-5.64l2.47-8.56a6.93,6.93,0,0,0,.32-1.63,1,1,0,0,0-.39-.82A4.09,4.09,0,0,0,146.63,49.62Z"/><path class="cls-2" d="M164.67,50.16l-2.09,7.43h.64a7.58,7.58,0,0,0,3.68-.68,5.22,5.22,0,0,0,2-2.4h.51L167.26,62h-.48a7.75,7.75,0,0,0,.12-1.22,1.82,1.82,0,0,0-.45-1.27,2.5,2.5,0,0,0-1.17-.71,8.4,8.4,0,0,0-2-.14h-1.08l-1.8,6.43a5.25,5.25,0,0,0-.24,1.26.6.6,0,0,0,.3.52,3.42,3.42,0,0,0,1.68.28,10,10,0,0,0,4.46-1,11.05,11.05,0,0,0,3.76-3.1H171l-2,5.26H152.95l.17-.52a3.2,3.2,0,0,0,2.07-.54,5,5,0,0,0,1.18-2.4l3.53-12.33a6.39,6.39,0,0,0,.29-1.63,1,1,0,0,0-.37-.83,3.65,3.65,0,0,0-1.7-.39l.15-.52h15L172,53.89h-.5a4.19,4.19,0,0,0-.43-2,3.42,3.42,0,0,0-1.55-1.32,8.49,8.49,0,0,0-3.12-.42Z"/><path class="cls-2" d="M194,48.66l-1.39,6.09h-.54a5.75,5.75,0,0,0-1.2-3.71A3.69,3.69,0,0,0,188,49.82a5.8,5.8,0,0,0-3.81,1.67,12.73,12.73,0,0,0-3.21,5.1,15.28,15.28,0,0,0-1.07,5.5,5.31,5.31,0,0,0,1.17,3.71,4.13,4.13,0,0,0,3.21,1.28,6.21,6.21,0,0,0,3-.73,9.82,9.82,0,0,0,2.74-2.39h.67a11.66,11.66,0,0,1-3.47,3.69A8.15,8.15,0,0,1,183,68.7a7.34,7.34,0,0,1-5.47-2.1,7.46,7.46,0,0,1-2.07-5.48,12,12,0,0,1,1.65-6,12.48,12.48,0,0,1,4.75-4.65A12.31,12.31,0,0,1,188,48.66a10.65,10.65,0,0,1,2.9.51,5.37,5.37,0,0,0,1.23.25,2,2,0,0,0,1.4-.76Z"/><path class="cls-2" d="M197.77,49.1h15.12l-1.43,5.16H211q0-.41,0-.72a3,3,0,0,0-.85-2.28,4.43,4.43,0,0,0-2.85-.93L203.1,64.75a7.21,7.21,0,0,0-.35,1.78,1,1,0,0,0,.43.85,3.35,3.35,0,0,0,1.75.35l-.12.52h-9.33l.17-.52a3.23,3.23,0,0,0,2.08-.54,5.16,5.16,0,0,0,1.19-2.44l4.19-14.43a7.29,7.29,0,0,0-3.62,1,8.18,8.18,0,0,0-2.66,3h-.54Z"/></g></svg>