<svg id="圖層_1" data-name="圖層 1" xmlns="http://www.w3.org/2000/svg" viewBox="0 0 32.69 45.83"><defs><style>.cls-1{fill:none;}.cls-2{fill:#fff;stroke:#134283;stroke-miterlimit:10;stroke-width:0.62px;}.cls-3{fill:#134283;}.cls-4{fill:#4c4948;}</style></defs><title>top</title><path class="cls-1" d="M28.28,34.53H25.57v3.92h2.72c1.72,0,2.58-.64,2.58-2S30,34.53,28.28,34.53Z"/><path class="cls-1" d="M16.48,34.43a3.14,3.14,0,0,0-2.62,1.31,5.77,5.77,0,0,0-1,3.51,5.67,5.67,0,0,0,1,3.53,3.21,3.21,0,0,0,5.2,0,5.79,5.79,0,0,0,1-3.53,5.77,5.77,0,0,0-1-3.51A3.16,3.16,0,0,0,16.48,34.43Z"/><path class="cls-2" d="M15.77,27.46A13.57,13.57,0,1,0,2.2,13.89,13.57,13.57,0,0,0,15.77,27.46Zm-4-14.82,4-5.3,4,5.3,4,5.29H7.73Z"/><polygon class="cls-3" points="23.8 17.93 19.79 12.64 15.77 7.34 11.75 12.64 7.73 17.93 15.77 17.93 23.8 17.93"/><polygon class="cls-4" points="0 34.53 4.08 34.53 4.08 45.68 5.84 45.68 5.84 34.53 9.91 34.53 9.91 32.85 0 32.85 0 34.53"/><path class="cls-4" d="M16.48,32.7a4.78,4.78,0,0,0-4,2,7.31,7.31,0,0,0-1.4,4.61,7.33,7.33,0,0,0,1.4,4.63,4.73,4.73,0,0,0,4,2,4.78,4.78,0,0,0,4-2,7.44,7.44,0,0,0,1.4-4.62,7.42,7.42,0,0,0-1.4-4.61A4.83,4.83,0,0,0,16.48,32.7Zm2.6,10.09a3.21,3.21,0,0,1-5.2,0,5.67,5.67,0,0,1-1-3.53,5.77,5.77,0,0,1,1-3.51,3.26,3.26,0,0,1,5.22,0,5.77,5.77,0,0,1,1,3.51A5.79,5.79,0,0,1,19.08,42.79Z"/><path class="cls-4" d="M31.44,33.75a5.08,5.08,0,0,0-3.12-.9H23.81V45.68h1.76V40.13h2.76a4.9,4.9,0,0,0,3.1-.94,3.26,3.26,0,0,0,1.26-2.71A3.31,3.31,0,0,0,31.44,33.75Zm-3.16,4.7H25.57V34.53h2.72c1.72,0,2.58.66,2.58,2S30,38.45,28.28,38.45Z"/></svg>