<svg xmlns="http://www.w3.org/2000/svg" viewBox="0 0 361.91 99.91"><defs><style>.cls-1{fill:#231815;}</style></defs><g><path class="cls-1" d="M18.36,21.29a1.59,1.59,0,0,0,1.1.46,1.5,1.5,0,0,0,1.47-1.49,1.93,1.93,0,0,0-.9-1.49c1.06-.71,2.2-1.58,2.85-2.12.61.08.85-.08,1-.33L20.6,14.78a35.25,35.25,0,0,1-1.47,3.49,8.11,8.11,0,0,0-2.4-.5l-.24.37A5,5,0,0,1,18.36,21.29Z"/><path class="cls-1" d="M25,19.84a1.18,1.18,0,0,0,.49.08.68.68,0,0,0,.61-.29l-3.05-1.91a37.05,37.05,0,0,1-4.36,5.73H17.06l1.59,3.28a1.26,1.26,0,0,0,1-.87c1.91-.62,3.38-1.12,4.44-1.54A6.46,6.46,0,0,1,24.34,26a1.61,1.61,0,0,0,1.26.66A1.64,1.64,0,0,0,27.15,25c0-1.12-1-2.45-4-3.28l-.37.29a6,6,0,0,1,.94,1.41c-1.26,0-2.48,0-3.58,0A42.47,42.47,0,0,0,25,19.84Z"/><path class="cls-1" d="M12.78,30.55a6.39,6.39,0,0,1-.08,1.25h-2V28.31c.81-.12,1-.33,1.1-.75l-4-.29v7.35c2.36,0,2.89-.83,2.89-.91V32.62h1.91A7.78,7.78,0,0,1,8.06,38l.45.54c6-1.87,7.21-5.15,7.25-8V28.06c1.06-.17,1.34-.37,1.38-.87l-4.36-.42Z"/><path class="cls-1" d="M13.76,21.79l-.41.25A5.77,5.77,0,0,1,14,23.37L11,23.45a47.31,47.31,0,0,0,4.93-3.69,2.33,2.33,0,0,0,.49.08.6.6,0,0,0,.57-.33l-3.05-1.87a38.17,38.17,0,0,1-4.31,5.81H7l1.59,3.28a1.27,1.27,0,0,0,1-.87c2-.62,3.62-1.12,4.72-1.54a4.16,4.16,0,0,1,.12,1,2.07,2.07,0,0,1,0,.5,1.6,1.6,0,0,0,1.26.71,1.63,1.63,0,0,0,1.59-1.62C17.22,23.91,16.37,22.66,13.76,21.79Z"/><path class="cls-1" d="M10.71,14.9h.45a27.46,27.46,0,0,1-1.34,3.32,8.8,8.8,0,0,0-2.24-.46l-.28.33a5,5,0,0,1,1.83,3.2,1.65,1.65,0,0,0,1.1.5,1.54,1.54,0,0,0,1.47-1.54,1.91,1.91,0,0,0-1-1.58,24,24,0,0,0,2.77-2c.65.08.85-.08,1-.37L11.36,14.9c1.38,0,3.3-.87,3.34-1.2V5a2.45,2.45,0,0,0,1.47-.75L11.89,1.2,10.34,3.28h-6L0,1.33V39.26c3.75,0,4.15-1.66,4.15-1.78V12.95h6.55ZM4.15,4.11h6.55V7.64H4.15Zm0,8V8.43h6.55v3.69Z"/><path class="cls-1" d="M29.15,3.28H22.92L18.73,1.54V14.65c3.3,0,4-1.37,4-1.45v-.25h6.84V33.74c0,.46-.12.62-.53.62H25v.54c2.65.33,3.5,1,3.5,4.36,4.56-.41,5.25-2.49,5.25-5.44V5.19a3.16,3.16,0,0,0,1.71-.87L30.94.91Zm.41,8.84H22.72V8.43h6.84Zm0-4.48H22.72V4.11h6.84Z"/><path class="cls-1" d="M26,33.37v-5c.81-.12,1.06-.37,1.1-.75l-4-.33v4.48H20.72v-3.9c.9-.12,1.1-.37,1.18-.79l-4.19-.37v11.5c2.48,0,3-.87,3-.91V32.62h2.36v1.62C25.53,34.24,26,33.41,26,33.37Z"/><path class="cls-1" d="M58.82,27.68l-.2.46c4.64,2.12,9.61,6.52,11.52,10.58a3.14,3.14,0,0,0,1.47.46,2.16,2.16,0,0,0,2-2.41C73.64,33.91,70.1,29.22,58.82,27.68Z"/><path class="cls-1" d="M56,18.43a3.89,3.89,0,0,0,.81-.21c-.24.29-.45.58-.65.83l.28.5c5.25-3.86,9-10,10.91-16.56C69,9.55,72.05,15.32,75.88,19.22c.37-1.7,1.06-3.32,2.61-4l0-.54A25.63,25.63,0,0,1,67.94,2.53c1.1-.08,1.42-.37,1.55-.87L63.67.25c-.81,5.4-3.18,12.49-6.31,17.18l-4.07-3.19-1.79,2.32H48c.2-2.16.37-4.27.49-6.31,1-.08,1.47-.29,1.63-.71h7.17c1.1,0,1.67-.21,2-.75L55,5.35,52.59,8.72H50.92V1.83c1.1-.17,1.47-.46,1.55-1l-6-.58V8.72H39.56l.2.83h4.07c.2,9.88-.77,21.87-4.31,29.22l.45.46c4.76-5.27,7-13.61,7.94-21.83h4c-.2,10.71-.57,15.9-1.55,16.89-.29.33-.57.37-1.18.37-.85,0-2.93,0-4.07-.08l0,.58c3.13.75,3.66,1.33,3.66,4.07,2.36,0,3.58-.46,4.8-1.58C55.32,36,55.77,31,56,18.43Z"/><path class="cls-1" d="M61.63,17.27a14.27,14.27,0,0,1,5.94,7.1,2.57,2.57,0,0,0,1.51.54,2.34,2.34,0,0,0,2.16-2.53c0-2.16-2.28-5.06-9.4-5.44Z"/><path class="cls-1" d="M93.13,38V20.46a13.38,13.38,0,0,1,3.3,6.39,2.32,2.32,0,0,0,1.63.79,2.14,2.14,0,0,0,2-2.28c0-1.79-1.71-4.15-7-5.56V15.19h5.7c1.1,0,1.63-.21,1.91-.75l-3.95-3.2-2.12,3.11H93.13V5.89c1.83-.5,3.54-1,4.93-1.49a4.65,4.65,0,0,0,1.38.25,1.58,1.58,0,0,0,1.14-.37L95.7.29A64.05,64.05,0,0,1,81.25,7.55l.16.54c2.44-.29,5-.71,7.49-1.2v7.47H81.29l.2.83h6.23c-1.22,6-3.46,12.41-6.68,17.06l.49.54A33.4,33.4,0,0,0,88.9,23.7V39.22h.77C91.75,39.22,93.09,38.27,93.13,38Z"/><path class="cls-1" d="M112.68,8.51h-7.08l-4.52-2V38.39c3.83,0,4.32-1.66,4.32-1.74v-3h7.69v4c3.22,0,4.36-1.12,4.36-1.2V10.5a3,3,0,0,0,1.75-.91l-4.72-3.53Zm.41,24.28h-7.69V9.34h7.69Z"/><path class="cls-1" d="M129.28,36.86a1.33,1.33,0,0,0,.85-1c4.32-2.41,7.25-4.23,9.24-5.52l-.12-.54c-5.37,1.37-10.67,2.66-13.07,3.07Z"/><path class="cls-1" d="M122.77,27.14l.33.54a35.89,35.89,0,0,0,8.43-5.11,8.08,8.08,0,0,1,2.2,5.44A2.35,2.35,0,0,0,138,26.48c0-1.54-1.51-3.4-6-4.23a33.33,33.33,0,0,0,4.84-5.1h10.79A30.4,30.4,0,0,0,153.42,24l-4.68-2.16c-.94,2.45-2,5.06-2.77,6.6l.53.41a45.21,45.21,0,0,0,5.66-4.15c.9.12,1.3-.08,1.55-.46a21.91,21.91,0,0,0,4.36,2.95c.29-1.79,1.75-3.11,3.71-3.9l0-.46a33,33,0,0,1-11-5.69h8.35c1.14,0,1.63-.21,2-.71l-4.6-3.28L154,16.31h-4.23a20.23,20.23,0,0,1-4.07-4.77h9.2c1.1,0,1.63-.17,1.91-.71l-4.19-3-2.2,2.86h-9.73a36.87,36.87,0,0,0,1.79-4.4h15.06c1.14,0,1.63-.17,2-.7L155,2.49l-2.36,3h-9.93c.37-1.08.65-2.12.94-3.2,1.14,0,1.59-.17,1.75-.79L139,0c-.33,1.83-.77,3.65-1.26,5.48H125.17l.2.83H137.5c-.45,1.49-1,2.95-1.55,4.4h-8.39l.24.83h7.78a37.36,37.36,0,0,1-2.4,4.77h-9.81l.24.83h9A31.93,31.93,0,0,1,122.77,27.14Zm17.51-15.61h4.4A40,40,0,0,0,147,16.31h-9.65A33.82,33.82,0,0,0,140.27,11.54Z"/><path class="cls-1" d="M145.81,19.63l-5.74-.37V34.37c0,.5-.16.62-.65.62h-3.91v.58c2.48.33,3.5.71,3.5,3.57,4.6-.37,5.21-2.12,5.21-4.81V20.63C145.52,20.46,145.77,20.21,145.81,19.63Z"/><path class="cls-1" d="M154.68,36.94a2.71,2.71,0,0,0,.94.21,1.75,1.75,0,0,0,1.79-1.83c0-2.16-3-5.44-12.58-5.73l-.16.58A25.91,25.91,0,0,1,154.68,36.94Z"/><path class="cls-1" d="M199,27.35,199.46,5A2.6,2.6,0,0,0,201,4.32L197.1,1,195.35,3.2h-3l.16.5-3.26-2.37L187.9,3.07h-8.31l-3.54-1.45v1L173.57.17C173,.91,172,2.37,171,3.57l-3.18-1,.53,25.11h-3.91l.2.83H201.9c1.1,0,1.59-.21,1.91-.7l-3.26-2.91Zm-22.92.29H172.1l-.16-7.43h2.61a2.47,2.47,0,0,0,1.51-.33Zm0-8.47L173.77,17l-1.34,2.41h-.53l-.12-7.3h2.73a2,2,0,0,0,1.55-.42Zm0-8.05-2.28-2.2-1.34,2.32h-.69L171.61,5a31.07,31.07,0,0,0,4.15-1.41l.29.13Zm12.17-2.86-2.77-2.12-1.47,2h-4l.2.83h6.35c.9,0,1.42-.12,1.71-.58V27.64h-8.87V3.9h8.88Zm7.37,3h-3.3l.24.83h3l-.12,7.3h-3.3l.24.83h3l-.16,7.43h-3.66v-23A2.12,2.12,0,0,0,192.74,4h3Z"/><path class="cls-1" d="M187.41,30l-.24.58c5.37,2.37,8.71,5.4,10.42,7.76a3.11,3.11,0,0,0,2.12.91,2.35,2.35,0,0,0,2.44-2.24C202.15,34.82,198.81,31.5,187.41,30Z"/><path class="cls-1" d="M164.81,38.76l.2.54c5.82-1.45,11.36-4.11,14.57-6.72,1.38.12,2-.13,2.28-.58L176,29.09A33.4,33.4,0,0,1,164.81,38.76Z"/><path class="cls-1" d="M182.85,23.82V21.58h1.79v2.24c1.51,0,2.24-.66,2.24-.83v-9a2.12,2.12,0,0,0,1.06-.5l-2.65-1.91-.94,1.16h-1.3l-2.4-1.12v13C182.65,24.61,182.85,23.87,182.85,23.82Zm0-10.29h1.79v7.26h-1.79Z"/><polygon class="cls-1" points="218.75 3.24 206.09 36.07 208.69 36.07 221.35 3.24 218.75 3.24"/><path class="cls-1" d="M230.31,33.87c-1.51,0-2.08-.21-2.08-1.12a9.55,9.55,0,0,1,.41-2.08L229.9,26h9.65l1.59,5.15a6,6,0,0,1,.33,1.62c0,.79-.53,1.12-2.12,1.12v1.66h9.57V33.87c-1.43,0-1.91-.46-2.73-2.95l-9-27h-2.93L226,31.5c-.61,1.91-1.14,2.36-2.52,2.36v1.66h6.88Zm4.15-23.57h.12l4.31,13.61h-8.3Z"/><path class="cls-1" d="M274.64,26.77c0-4.48-3.38-7.43-9.44-7.6v-.08c6.64-1,8.1-4.65,8.1-7.59a6.22,6.22,0,0,0-2.56-5.19c-2-1.45-4.36-1.74-8.43-1.74H251.76v1.7c3,0,3.3.33,3.3,3.44V30.38c0,3.07-.28,3.49-3.3,3.49v1.66h12c4.36,0,6.88-.87,8.55-2.53A8.34,8.34,0,0,0,274.64,26.77ZM260,8.09c0-1.08.12-1.49,1.22-1.49h2c3.09,0,5,1.62,5,5.48,0,5.15-3.34,6.18-6.07,6.18H260Zm4,25.36h-2.52c-1.18,0-1.47-.37-1.47-2.08v-11h2.77c5,0,6.64,2.95,6.64,6.27S268.57,33.45,264,33.45Z"/><path class="cls-1" d="M292,3.94c-9.57,0-12.95,7.35-12.95,16.1,0,9.42,3.62,16.1,12.95,16.1,10.18,0,13-7.89,13-16.1C305,12.41,302.44,3.94,292,3.94Zm5.41,27.48A6.74,6.74,0,0,1,292,34.2c-6.92,0-7.74-8.72-7.74-14.15,0-6,.9-9.5,2.4-11.54A6.48,6.48,0,0,1,292,5.85c6.92,0,7.78,8,7.78,14.19C299.79,24.94,299,28.93,297.43,31.42Z"/><path class="cls-1" d="M327.07,6.27c2.56,0,2.89.29,2.89,3.4V25c0,2.95-.28,8.72-6.39,8.72-5.86,0-6.39-5.15-6.39-8.8V9.67c0-3.15.24-3.4,2.89-3.4V4.57H309.19v1.7c2.73,0,3,.33,3,3.4v15.4c0,5.56,1,11.08,10.5,11.08,3.26,0,5.54-.91,7.12-2.61s2.44-4.44,2.44-8.14V9.67c0-3.07.29-3.4,2.81-3.4V4.57h-8Z"/><path class="cls-1" d="M360.93,4.57H338.62l-1,7.47h2c.85-5.1,1.22-5.31,3.66-5.31h3.95v23.7c0,3.07-.2,3.44-3.75,3.44v1.66H356V33.87c-3.58,0-3.79-.37-3.79-3.44V6.72h3.95c2.4,0,2.81.17,3.7,5.31h2Z"/><path class="cls-1" d="M63,80.85c-4-2.78-5.54-4-5.54-6.76s2.2-4.32,4.76-4.32c3.62,0,4.56,1.41,5.41,5.89l2.08-.33c-.41-2.41-.73-4.81-.9-6.47a17.23,17.23,0,0,0-6.47-1.16c-7,0-9.4,4.32-9.4,7.59,0,4.65,2.73,6.52,7.29,9.59,4,2.74,6,4.15,6,7.59A5.15,5.15,0,0,1,61,97.83c-3.34,0-5.29-1.37-6.55-6.56l-2.08.5a47.39,47.39,0,0,1,1.22,6.85,22.42,22.42,0,0,0,7.17,1.29C67.43,99.91,71,96,71,91.19a8.63,8.63,0,0,0-1.67-5.27C68.17,84.3,66.29,83.14,63,80.85Z"/><path class="cls-1" d="M74.84,70c3.22,0,3.46.33,3.46,3.4V94.18c0,3-.24,3.44-3.5,3.44v1.66h12V97.62c-3.22,0-3.5-.42-3.5-3.44V73.43c0-3.07.29-3.4,3.5-3.4v-1.7H74.84Z"/><path class="cls-1" d="M108.22,70c2.85,0,3.26.33,3.26,3.4V92.85h-.08L98.08,68.32H90.22V70c2.89,0,3.18.25,3.18,3.36V94.18c0,3.07-.33,3.44-3.13,3.44v1.66h8.51V97.62c-2.81,0-3.09-.37-3.09-3.44v-21h.08L110.25,99.7h3.5V73.43c0-3.07.37-3.4,3-3.4v-1.7h-8.55Z"/><path class="cls-1" d="M133.94,97.58c-4,0-7.9-4-7.9-14.32,0-5.19,1.14-13.65,8.1-13.65,4.36,0,4.93,2.74,5.78,7.35l2.08-.42c-.45-2.45-.81-5-1.06-7.39a17.83,17.83,0,0,0-7-1.45c-8.26,0-13.11,5.6-13.11,15.9,0,10.75,4.36,16.31,12.29,16.31,3.62,0,7.94-1.74,9.77-8.43l-2-.5C140,93.89,138.05,97.58,133.94,97.58Z"/><path class="cls-1" d="M162.31,97.21h-6.11c-.81,0-1.14-.17-1.14-1.87V84.26h4.44c1.83,0,2.16.29,2.16,4.32h2V77.95h-2c0,3.74-.37,4.23-2.2,4.23h-4.4V72.3c0-1.62.12-1.95,1.47-1.95h4.72c2.28,0,2.73.25,3.79,4.86h2.12l-1.3-6.89H146.8V70c3,0,3.3.33,3.3,3.4V94.18c0,3-.33,3.44-3.3,3.44v1.66h20.11l1.38-7.14h-2.12C165.12,96.83,164.68,97.21,162.31,97.21Z"/><path class="cls-1" d="M197.69,94.14V69l-.61-.33a43.42,43.42,0,0,1-8.39,3.74l.29,1.66a10.23,10.23,0,0,1,2.85-.79c.81,0,1.06.79,1.06,2.62V94.14c0,3.07-.24,3.49-4.11,3.49v1.66h12.78V97.62C197.93,97.62,197.69,97.21,197.69,94.14Z"/><path class="cls-1" d="M221.29,68.49c-7.37,0-10.5,4.81-10.5,10.21,0,5.69,3.62,9.55,9.28,9.55A7.86,7.86,0,0,0,227,84.47h.16c0,3.82-.45,13.53-6.47,13.53-3,0-4-2.08-4.6-3.61-.77-1.7-1.26-2.45-2.69-2.45-1.14,0-1.75.91-1.75,2.07,0,2.49,2.85,5.89,9,5.89,7.65,0,11.48-6.1,11.48-16.77C232.12,72.89,227.24,68.49,221.29,68.49Zm0,17.68c-5.13,0-5.41-6.31-5.41-7.59,0-3.86,1.42-8.22,5.5-8.22,3.66,0,5.58,4.57,5.58,9.34C226.91,83.22,224.47,86.17,221.25,86.17Z"/><path class="cls-1" d="M239.53,69l-1.38,7.3h2c.85-3.49,1.38-3.86,4.4-3.86h9.61c-2.93,3.61-10.58,14.44-10.91,27.23h5.33a47.31,47.31,0,0,1,2.32-13.86A47.89,47.89,0,0,1,258.83,70l-.53-1Z"/><path class="cls-1" d="M266.07,69l-1.38,7.3h2c.85-3.49,1.38-3.86,4.4-3.86h9.61c-2.93,3.61-10.58,14.44-10.91,27.23h5.33a47.31,47.31,0,0,1,2.32-13.86A47.89,47.89,0,0,1,285.36,70l-.53-1Z"/></g></svg>