<svg xmlns="http://www.w3.org/2000/svg" viewBox="0 0 590.29 75.64"><defs><style>.cls-1{fill:#fff;}</style></defs><title>slogan</title><g id="圖層_1" data-name="圖層 1"><path class="cls-1" d="M23,0V8.4h-.7a9,9,0,0,0-2.93-5A7.48,7.48,0,0,0,14.5,1.61a7.19,7.19,0,0,0-4.17,1.31A7.61,7.61,0,0,0,7.56,6.33a15.47,15.47,0,0,0-1.13,6,20.09,20.09,0,0,0,.82,5.93,7.88,7.88,0,0,0,2.57,4,7.16,7.16,0,0,0,4.54,1.37,8.87,8.87,0,0,0,4.19-1,14.49,14.49,0,0,0,4-3.45v2.09a13.23,13.23,0,0,1-4.25,3.08,12.9,12.9,0,0,1-5.16,1,14.81,14.81,0,0,1-6.89-1.56,11,11,0,0,1-4.65-4.47A12.47,12.47,0,0,1,0,13.12,12.85,12.85,0,0,1,1.81,6.54a12.78,12.78,0,0,1,4.9-4.83A13.26,13.26,0,0,1,13.27,0a14.86,14.86,0,0,1,5.4,1.11,8.29,8.29,0,0,0,2.09.64,1.36,1.36,0,0,0,1-.42A2.29,2.29,0,0,0,22.29,0Z"/><path class="cls-1" d="M39.13.21a12,12,0,0,1,13,12.37,12.93,12.93,0,0,1-2.7,8.12q-3.58,4.65-10.1,4.65T29.25,20.92a12.84,12.84,0,0,1-2.82-8.31,12.09,12.09,0,0,1,3.67-9A11.7,11.7,0,0,1,39.13.21Zm.21,1.14a5.46,5.46,0,0,0-5.06,3.4,18.16,18.16,0,0,0-1.41,8q0,6.2,2.18,9.17A5,5,0,0,0,39.31,24a5.1,5.1,0,0,0,3.07-.89,7.34,7.34,0,0,0,2.45-3.66,20.31,20.31,0,0,0,.88-6.55,21.78,21.78,0,0,0-.89-7.2,7,7,0,0,0-2.28-3.37A5.38,5.38,0,0,0,39.35,1.36Z"/><path class="cls-1" d="M62.59.55l12,15V5.17a4.93,4.93,0,0,0-.63-2.95,3.46,3.46,0,0,0-2.88-1V.55h8v.66A6.12,6.12,0,0,0,77,1.73a2,2,0,0,0-.82,1,6.94,6.94,0,0,0-.29,2.42V25.35h-.61L58.87,5.17V20.58a3.4,3.4,0,0,0,1,2.82,3.5,3.5,0,0,0,2.19.73h.57v.66H54v-.66a3.89,3.89,0,0,0,2.79-.82,3.85,3.85,0,0,0,.79-2.73V3.47L57,2.82a4.72,4.72,0,0,0-1.36-1.27A4.09,4.09,0,0,0,54,1.21V.55Z"/><path class="cls-1" d="M97.11,0l.2,8.08h-.73A8.28,8.28,0,0,0,94,3.19a6.4,6.4,0,0,0-4.39-1.85,4.11,4.11,0,0,0-2.89,1,3,3,0,0,0-1.06,2.24A2.73,2.73,0,0,0,86.06,6a6.08,6.08,0,0,0,1.66,1.66,37.41,37.41,0,0,0,3.88,2.09q4.25,2.09,5.74,4a6.68,6.68,0,0,1,1.47,4.26,6.88,6.88,0,0,1-2.37,5.23,8.52,8.52,0,0,1-6,2.19,9.74,9.74,0,0,1-2.16-.23,16.4,16.4,0,0,1-2.56-.88,3.88,3.88,0,0,0-1.41-.36,1.75,1.75,0,0,0-1,.36,2.5,2.5,0,0,0-.84,1.09h-.66V16.2h.66a10.5,10.5,0,0,0,3,5.89,7.09,7.09,0,0,0,4.84,2A4.54,4.54,0,0,0,93.53,23a3.29,3.29,0,0,0,.73-4.2,5.26,5.26,0,0,0-1.38-1.53,21,21,0,0,0-3.29-1.89,28.41,28.41,0,0,1-4.76-2.77,8.5,8.5,0,0,1-2.23-2.56A6.34,6.34,0,0,1,81.83,7,6.58,6.58,0,0,1,84,2a7.44,7.44,0,0,1,5.36-2,9.13,9.13,0,0,1,2.29.29,11.5,11.5,0,0,1,2,.8,4.81,4.81,0,0,0,1.69.58,1,1,0,0,0,.73-.29A3.3,3.3,0,0,0,96.58,0Z"/><path class="cls-1" d="M123.37.55V7.11h-.64a10.38,10.38,0,0,0-1.27-3.26,4.89,4.89,0,0,0-1.91-1.58,6.13,6.13,0,0,0-2.38-.32h-1.81v18.7a7.64,7.64,0,0,0,.21,2.32,1.85,1.85,0,0,0,.8.81,3.25,3.25,0,0,0,1.64.35h.8v.66H106.12v-.66h.8a3.35,3.35,0,0,0,1.7-.38,1.71,1.71,0,0,0,.73-.86,7.38,7.38,0,0,0,.2-2.25V1.95H107.8a5.1,5.1,0,0,0-3.56,1,6.86,6.86,0,0,0-2,4.13h-.68V.55Z"/><path class="cls-1" d="M134.42,13.75v6.79a7.52,7.52,0,0,0,.24,2.48,1.77,1.77,0,0,0,.85.81,5.73,5.73,0,0,0,2.27.3v.66H125.38v-.66a5.57,5.57,0,0,0,2.28-.31,1.82,1.82,0,0,0,.84-.81,7.4,7.4,0,0,0,.24-2.47V4.81a7.49,7.49,0,0,0-.24-2.48,1.77,1.77,0,0,0-.85-.81,5.71,5.71,0,0,0-2.27-.3V.55h11.26a24.58,24.58,0,0,1,6.44.61A6.48,6.48,0,0,1,146.4,3.4a6,6,0,0,1,1.29,3.83,5.73,5.73,0,0,1-1.93,4.43,8,8,0,0,1-3.45,1.66l5.83,8.21a12.31,12.31,0,0,0,1.63,2,3,3,0,0,0,1.7.61v.66h-7.63l-7.81-11Zm0-11.89V12.48h1a11.4,11.4,0,0,0,3.72-.46,3.71,3.71,0,0,0,1.94-1.64,6,6,0,0,0,.71-3.1,5.65,5.65,0,0,0-1.3-4.09,5.65,5.65,0,0,0-4.17-1.32Z"/><path class="cls-1" d="M152,.55h12.51v.66h-.62a4.4,4.4,0,0,0-1.94.29,1.69,1.69,0,0,0-.75.81A8.75,8.75,0,0,0,161,4.92V16.79a12.07,12.07,0,0,0,.49,4.31,4.09,4.09,0,0,0,1.62,1.75,5.32,5.32,0,0,0,2.84.7,6.1,6.1,0,0,0,3.35-.88,5.43,5.43,0,0,0,2.07-2.44A14.83,14.83,0,0,0,172,14.8V4.92a5.73,5.73,0,0,0-.34-2.32,2,2,0,0,0-.86-1,5.09,5.09,0,0,0-2.27-.41V.55H177v.66h-.5a3.23,3.23,0,0,0-1.7.41,2.33,2.33,0,0,0-1,1.23,6.16,6.16,0,0,0-.23,2.06v9.21a23.94,23.94,0,0,1-.56,6.17,6.88,6.88,0,0,1-2.74,3.49,9.91,9.91,0,0,1-6,1.59,11.32,11.32,0,0,1-4.86-.84,7.14,7.14,0,0,1-3.31-2.93,10.15,10.15,0,0,1-1-4.81V4.92a8.42,8.42,0,0,0-.23-2.6,1.75,1.75,0,0,0-.8-.81A4.9,4.9,0,0,0,152,1.21Z"/><path class="cls-1" d="M202,0V8.4h-.7a9,9,0,0,0-2.93-5,7.48,7.48,0,0,0-4.86-1.75,7.19,7.19,0,0,0-4.17,1.31,7.61,7.61,0,0,0-2.77,3.41,15.47,15.47,0,0,0-1.13,6,20.09,20.09,0,0,0,.82,5.93,7.88,7.88,0,0,0,2.57,4,7.16,7.16,0,0,0,4.54,1.37,8.87,8.87,0,0,0,4.19-1,14.48,14.48,0,0,0,4-3.45v2.09a13.23,13.23,0,0,1-4.25,3.08,12.9,12.9,0,0,1-5.16,1,14.81,14.81,0,0,1-6.89-1.56,11,11,0,0,1-4.65-4.47,12.47,12.47,0,0,1-1.64-6.2,12.85,12.85,0,0,1,1.81-6.58,12.78,12.78,0,0,1,4.9-4.83A13.26,13.26,0,0,1,192.29,0a14.86,14.86,0,0,1,5.4,1.11,8.29,8.29,0,0,0,2.09.64,1.36,1.36,0,0,0,1-.42A2.29,2.29,0,0,0,201.32,0Z"/><path class="cls-1" d="M227.12.55V7.11h-.64a10.37,10.37,0,0,0-1.27-3.26,4.89,4.89,0,0,0-1.91-1.58,6.13,6.13,0,0,0-2.38-.32h-1.81v18.7a7.63,7.63,0,0,0,.21,2.32,1.85,1.85,0,0,0,.8.81,3.25,3.25,0,0,0,1.64.35h.8v.66H209.87v-.66h.8a3.35,3.35,0,0,0,1.7-.38,1.71,1.71,0,0,0,.73-.86,7.38,7.38,0,0,0,.2-2.25V1.95h-1.75A5.1,5.1,0,0,0,208,3a6.86,6.86,0,0,0-2,4.13h-.68V.55Z"/><path class="cls-1" d="M241.85,24.13v.66H229.17v-.66h.8a3.35,3.35,0,0,0,1.7-.38,1.62,1.62,0,0,0,.72-.86,7.38,7.38,0,0,0,.2-2.25V4.7a8,8,0,0,0-.2-2.32,1.79,1.79,0,0,0-.8-.81A3.22,3.22,0,0,0,230,1.21h-.8V.55h12.68v.66H241a3.36,3.36,0,0,0-1.7.38,1.71,1.71,0,0,0-.73.86,7.35,7.35,0,0,0-.2,2.25V20.65a7.66,7.66,0,0,0,.21,2.32,1.85,1.85,0,0,0,.8.81,3.21,3.21,0,0,0,1.62.35Z"/><path class="cls-1" d="M256.83.21a12,12,0,0,1,13,12.37,12.93,12.93,0,0,1-2.7,8.12q-3.58,4.65-10.1,4.65t-10.12-4.43a12.84,12.84,0,0,1-2.82-8.31,12.09,12.09,0,0,1,3.67-9A11.7,11.7,0,0,1,256.83.21ZM257,1.36A5.46,5.46,0,0,0,252,4.75a18.16,18.16,0,0,0-1.41,8q0,6.2,2.18,9.17A5,5,0,0,0,257,24a5.1,5.1,0,0,0,3.07-.89,7.34,7.34,0,0,0,2.45-3.66,20.31,20.31,0,0,0,.88-6.55,21.78,21.78,0,0,0-.89-7.2,7,7,0,0,0-2.28-3.37A5.38,5.38,0,0,0,257,1.36Z"/><path class="cls-1" d="M280.29.55l12,15V5.17a4.93,4.93,0,0,0-.63-2.95,3.46,3.46,0,0,0-2.88-1V.55h8v.66a6.12,6.12,0,0,0-2.06.51,2,2,0,0,0-.82,1,7,7,0,0,0-.29,2.42V25.35H293L276.57,5.17V20.58a3.4,3.4,0,0,0,1,2.82,3.5,3.5,0,0,0,2.19.73h.57v.66h-8.6v-.66a3.89,3.89,0,0,0,2.79-.82,3.85,3.85,0,0,0,.79-2.73V3.47l-.52-.64a4.73,4.73,0,0,0-1.36-1.27,4.09,4.09,0,0,0-1.7-.34V.55Z"/><path class="cls-1" d="M316.65,13.82v6.72a7.49,7.49,0,0,0,.24,2.48,1.76,1.76,0,0,0,.86.81,5.74,5.74,0,0,0,2.26.3v.66H307.69v-.66a5.56,5.56,0,0,0,2.28-.31,1.83,1.83,0,0,0,.84-.81,7.41,7.41,0,0,0,.24-2.47V4.81a7.49,7.49,0,0,0-.24-2.48,1.77,1.77,0,0,0-.85-.81,5.71,5.71,0,0,0-2.27-.3V.55h10.57q5.22,0,7.49,1.86A5.77,5.77,0,0,1,328,7.06a5.94,5.94,0,0,1-1.47,4,7.45,7.45,0,0,1-4,2.29A27.57,27.57,0,0,1,316.65,13.82Zm0-11.87V12.42l.89,0a4.31,4.31,0,0,0,3.36-1.3,5.82,5.82,0,0,0,1.18-4,5.61,5.61,0,0,0-1.18-4,4.61,4.61,0,0,0-3.52-1.25Z"/><path class="cls-1" d="M338.86,13.75v6.79A7.51,7.51,0,0,0,339.1,23a1.77,1.77,0,0,0,.85.81,5.73,5.73,0,0,0,2.27.3v.66H329.81v-.66a5.57,5.57,0,0,0,2.28-.31,1.82,1.82,0,0,0,.84-.81,7.39,7.39,0,0,0,.24-2.47V4.81a7.47,7.47,0,0,0-.24-2.48,1.76,1.76,0,0,0-.85-.81,5.71,5.71,0,0,0-2.27-.3V.55h11.26a24.58,24.58,0,0,1,6.44.61,6.48,6.48,0,0,1,3.33,2.24,6,6,0,0,1,1.29,3.83,5.73,5.73,0,0,1-1.93,4.43,8,8,0,0,1-3.45,1.66l5.83,8.21a12.29,12.29,0,0,0,1.63,2,3,3,0,0,0,1.7.61v.66h-7.63l-7.81-11Zm0-11.89V12.48h1a11.4,11.4,0,0,0,3.72-.46,3.71,3.71,0,0,0,1.94-1.64,6,6,0,0,0,.71-3.1,5.66,5.66,0,0,0-1.3-4.09,5.65,5.65,0,0,0-4.17-1.32Z"/><path class="cls-1" d="M369.71.21a12,12,0,0,1,13,12.37A12.93,12.93,0,0,1,380,20.7q-3.58,4.65-10.1,4.65t-10.12-4.43A12.84,12.84,0,0,1,357,12.6a12.09,12.09,0,0,1,3.67-9A11.7,11.7,0,0,1,369.71.21Zm.21,1.14a5.46,5.46,0,0,0-5.06,3.4,18.16,18.16,0,0,0-1.41,8q0,6.2,2.18,9.17A5,5,0,0,0,369.89,24a5.1,5.1,0,0,0,3.07-.89,7.34,7.34,0,0,0,2.45-3.66,20.31,20.31,0,0,0,.88-6.55,21.78,21.78,0,0,0-.89-7.2,7,7,0,0,0-2.28-3.37A5.38,5.38,0,0,0,369.93,1.36Z"/><path class="cls-1" d="M394.11,1.95v10h.7a6.16,6.16,0,0,0,2.63-.48,4.12,4.12,0,0,0,1.73-1.63,7.45,7.45,0,0,0,.92-3.09h.63V18.88h-.63q-.34-3.45-1.85-4.55a5.67,5.67,0,0,0-3.42-1.1h-.7v7.42a7.64,7.64,0,0,0,.21,2.32,1.85,1.85,0,0,0,.8.81,3.21,3.21,0,0,0,1.62.35h.8v.66H384.87v-.66h.8a3.35,3.35,0,0,0,1.7-.38,1.63,1.63,0,0,0,.72-.86,7.38,7.38,0,0,0,.2-2.25V4.7a8,8,0,0,0-.2-2.32,1.79,1.79,0,0,0-.8-.81,3.22,3.22,0,0,0-1.62-.35h-.8V.55h20.45v7h-.73a6.46,6.46,0,0,0-1.28-3.63,5.61,5.61,0,0,0-3-1.66,19.23,19.23,0,0,0-4-.27Z"/><path class="cls-1" d="M416.39,1.95v9.87h.48a3.83,3.83,0,0,0,3.34-1.45,8.92,8.92,0,0,0,1.32-4.27h.68V18.79h-.68a9.5,9.5,0,0,0-.9-3.4,3.89,3.89,0,0,0-1.6-1.78,6.08,6.08,0,0,0-2.65-.46V20a9.85,9.85,0,0,0,.17,2.45,1.47,1.47,0,0,0,.63.73,3,3,0,0,0,1.5.29h1.45a8.7,8.7,0,0,0,5.44-1.57,8.76,8.76,0,0,0,2.94-4.79h.66L428.1,24.8h-21v-.66h.8a3.35,3.35,0,0,0,1.7-.38,1.63,1.63,0,0,0,.72-.86,7.38,7.38,0,0,0,.2-2.25V4.7a12.71,12.71,0,0,0-.09-2,1.71,1.71,0,0,0-.66-1,3.08,3.08,0,0,0-1.86-.5h-.8V.55h20.29V7.72h-.68a8.75,8.75,0,0,0-1.46-3.77,5.42,5.42,0,0,0-2.65-1.68,14.38,14.38,0,0,0-3.75-.32Z"/><path class="cls-1" d="M448,0l.2,8.08h-.73A8.28,8.28,0,0,0,445,3.19a6.4,6.4,0,0,0-4.39-1.85,4.11,4.11,0,0,0-2.89,1,3,3,0,0,0-1.06,2.24A2.73,2.73,0,0,0,437,6a6.08,6.08,0,0,0,1.66,1.66,37.4,37.4,0,0,0,3.88,2.09q4.25,2.09,5.74,4a6.69,6.69,0,0,1,1.47,4.26,6.88,6.88,0,0,1-2.37,5.23,8.52,8.52,0,0,1-6,2.19,9.74,9.74,0,0,1-2.16-.23,16.4,16.4,0,0,1-2.56-.88,3.88,3.88,0,0,0-1.41-.36,1.75,1.75,0,0,0-1,.36,2.49,2.49,0,0,0-.84,1.09h-.66V16.2h.66a10.49,10.49,0,0,0,3,5.89,7.09,7.09,0,0,0,4.84,2A4.54,4.54,0,0,0,444.45,23a3.29,3.29,0,0,0,.73-4.2,5.27,5.27,0,0,0-1.39-1.53,21,21,0,0,0-3.29-1.89,28.41,28.41,0,0,1-4.76-2.77,8.5,8.5,0,0,1-2.23-2.56A6.34,6.34,0,0,1,432.75,7,6.58,6.58,0,0,1,434.88,2a7.44,7.44,0,0,1,5.36-2,9.13,9.13,0,0,1,2.29.29,11.5,11.5,0,0,1,2,.8,4.81,4.81,0,0,0,1.69.58,1,1,0,0,0,.73-.29A3.31,3.31,0,0,0,447.5,0Z"/><path class="cls-1" d="M468.4,0l.2,8.08h-.73a8.28,8.28,0,0,0-2.55-4.89,6.4,6.4,0,0,0-4.39-1.85,4.11,4.11,0,0,0-2.89,1A3,3,0,0,0,457,4.56,2.73,2.73,0,0,0,457.35,6,6.08,6.08,0,0,0,459,7.65a37.48,37.48,0,0,0,3.88,2.09q4.25,2.09,5.74,4a6.69,6.69,0,0,1,1.47,4.26,6.88,6.88,0,0,1-2.37,5.23,8.52,8.52,0,0,1-6,2.19,9.74,9.74,0,0,1-2.16-.23,16.4,16.4,0,0,1-2.56-.88,3.88,3.88,0,0,0-1.41-.36,1.75,1.75,0,0,0-1,.36,2.49,2.49,0,0,0-.84,1.09h-.66V16.2h.66a10.49,10.49,0,0,0,3,5.89,7.09,7.09,0,0,0,4.84,2A4.54,4.54,0,0,0,464.81,23a3.29,3.29,0,0,0,.73-4.2,5.27,5.27,0,0,0-1.39-1.53,21,21,0,0,0-3.29-1.89,28.41,28.41,0,0,1-4.76-2.77,8.5,8.5,0,0,1-2.23-2.56A6.34,6.34,0,0,1,453.11,7,6.58,6.58,0,0,1,455.24,2a7.44,7.44,0,0,1,5.36-2,9.13,9.13,0,0,1,2.29.29,11.5,11.5,0,0,1,2,.8,4.81,4.81,0,0,0,1.69.58,1,1,0,0,0,.73-.29,3.3,3.3,0,0,0,.5-1.38Z"/><path class="cls-1" d="M485,24.13v.66H472.29v-.66h.8a3.35,3.35,0,0,0,1.7-.38,1.62,1.62,0,0,0,.72-.86,7.38,7.38,0,0,0,.2-2.25V4.7a8,8,0,0,0-.2-2.32,1.79,1.79,0,0,0-.8-.81,3.22,3.22,0,0,0-1.62-.35h-.8V.55H485v.66h-.8a3.36,3.36,0,0,0-1.7.38,1.71,1.71,0,0,0-.73.86,7.35,7.35,0,0,0-.2,2.25V20.65a7.66,7.66,0,0,0,.21,2.32,1.85,1.85,0,0,0,.8.81,3.21,3.21,0,0,0,1.62.35Z"/><path class="cls-1" d="M500,.21a12,12,0,0,1,13,12.37,12.93,12.93,0,0,1-2.7,8.12q-3.58,4.65-10.1,4.65t-10.12-4.43a12.84,12.84,0,0,1-2.82-8.31,12.09,12.09,0,0,1,3.67-9A11.7,11.7,0,0,1,500,.21Zm.21,1.14a5.46,5.46,0,0,0-5.06,3.4,18.16,18.16,0,0,0-1.41,8q0,6.2,2.18,9.17A5,5,0,0,0,500.13,24a5.1,5.1,0,0,0,3.07-.89,7.34,7.34,0,0,0,2.45-3.66,20.31,20.31,0,0,0,.88-6.55,21.78,21.78,0,0,0-.89-7.2,7,7,0,0,0-2.28-3.37A5.38,5.38,0,0,0,500.17,1.36Z"/><path class="cls-1" d="M523.41.55l12,15V5.17a4.93,4.93,0,0,0-.63-2.95,3.46,3.46,0,0,0-2.88-1V.55h8v.66a6.12,6.12,0,0,0-2.06.51,2,2,0,0,0-.82,1,7,7,0,0,0-.29,2.42V25.35h-.61L519.69,5.17V20.58a3.4,3.4,0,0,0,1,2.82,3.5,3.5,0,0,0,2.19.73h.57v.66h-8.6v-.66a3.89,3.89,0,0,0,2.79-.82,3.85,3.85,0,0,0,.79-2.73V3.47l-.52-.64a4.72,4.72,0,0,0-1.36-1.27,4.09,4.09,0,0,0-1.7-.34V.55Z"/><path class="cls-1" d="M556,17.9H547.4l-1,2.36a5.25,5.25,0,0,0-.5,1.95,1.62,1.62,0,0,0,.82,1.5,6.92,6.92,0,0,0,2.38.43v.66H541v-.66a3.61,3.61,0,0,0,2.14-1.08,14.4,14.4,0,0,0,2.07-3.66L553.91.05h.34L563,19.93A12.1,12.1,0,0,0,565,23.49a2.81,2.81,0,0,0,1.72.64v.66H555v-.66h.48a3.67,3.67,0,0,0,2-.39,1,1,0,0,0,.39-.82,2.18,2.18,0,0,0-.11-.66q0-.16-.54-1.34Zm-.61-1.32-3.61-8.35L548,16.57Z"/><path class="cls-1" d="M590.29,16.29l-.91,8.51H567.85v-.66h.8a3.35,3.35,0,0,0,1.7-.38,1.63,1.63,0,0,0,.72-.86,7.37,7.37,0,0,0,.2-2.25V4.7a8,8,0,0,0-.2-2.32,1.79,1.79,0,0,0-.8-.81,3.22,3.22,0,0,0-1.62-.35h-.8V.55h12.93v.66h-1.05a3.36,3.36,0,0,0-1.7.38,1.71,1.71,0,0,0-.73.86,7.35,7.35,0,0,0-.2,2.25V20.15a7.83,7.83,0,0,0,.21,2.37,1.42,1.42,0,0,0,.84.76,8.47,8.47,0,0,0,2.16.16h2a6.84,6.84,0,0,0,3.22-.68,6,6,0,0,0,2.23-2.14,17.38,17.38,0,0,0,1.78-4.33Z"/><path class="cls-1" d="M50.83,60.13A3.85,3.85,0,0,1,49,61c3.39.56,4.54,1.78,4.54,2.8a1.49,1.49,0,0,1-.36,1l2.18,1.74c-.24.34-.64.44-1.45.44H48v3.61c0,2.71-.6,4.58-5.05,5,0-3-1-3.77-3.39-4v-.41h3.9c.33,0,.45-.16.45-.47V67H26.48l-.12-.5H43.94v-2.4l5.17.31c0,.37-.15.59-1.09.72v1.37h2l.63-.9a2.56,2.56,0,0,1-1.15-.72,7.18,7.18,0,0,0-1.54-2c-3.84.78-9.16,1.62-16.91,2.71a1.41,1.41,0,0,1-.91.65L28.12,62c2.21.06,6,.06,10.52.06V59.94h-3.9v.16c0,.09-.64,1.43-4,1.43V50.91L35,52.56h3.66V50H27l-.12-.5H38.64V46l5.29.53c-.06.4-.36.65-1.21.78v2.21H49l2-2.71,3.6,2.77c-.24.34-.64.44-1.45.44H42.73v2.55h3.78l1.48-2L52,53.43a2.21,2.21,0,0,1-1.21.69ZM31.32,67.82c5.14-.25,6.87,1.53,6.87,3.14a2.49,2.49,0,0,1-2.36,2.46,2.41,2.41,0,0,1-1.57-.62A9,9,0,0,0,31.2,68Zm7.32-14.73h-3.9V56h3.9Zm-3.9,6.35h3.9V56.51h-3.9Zm12.07-6.35H42.73V56h4.08Zm0,6.35V56.51H42.73v2.93Zm-4.08,2.65,4.17,0a10.39,10.39,0,0,0-1.94-1l.12-.37c.6,0,1.18,0,1.72.06v-.81H42.73Z"/><path class="cls-1" d="M118.63,66.11c-.21.37-.6.44-1.45.44h-9.83c2.6,2.12,7.35,3.52,11.43,4l0,.34a4.46,4.46,0,0,0-2.93,3.74,15.86,15.86,0,0,1-9.16-8h-.09v8.07c0,.22-1.33,1-3.57,1h-.82V69.19c-3,2.46-7.17,4.23-11.92,5.42l-.18-.47a22.83,22.83,0,0,0,9-7.6H90.5l-.15-.5h11.82V62.46H93.8l-.15-.5h8.53v-3.4H92.29l-.15-.5h7.38a2.24,2.24,0,0,1-1.42-1,6.22,6.22,0,0,0,.06-.75,5.4,5.4,0,0,0-1-3.24l.21-.16c3.66.56,4.9,1.87,4.9,3.05a2.25,2.25,0,0,1-1.91,2.06h6.5a31.36,31.36,0,0,0,.94-5.2l5.32,1.34c-.09.37-.39.56-1.15.53a21.47,21.47,0,0,1-4.36,3.33h3.66l2.06-2.55,3.81,2.62c-.24.37-.64.44-1.45.44h-9.13V62h4l1.94-2.43L116.15,62c-.21.37-.64.44-1.42.44h-8.17V66h6l2.12-2.68ZM90.74,52.81l-.15-.5h5.53a2.39,2.39,0,0,1-1.06-.78,6.13,6.13,0,0,0-1.48-4.42l.18-.19c4,.47,5.26,2,5.26,3.27a2.28,2.28,0,0,1-1.6,2.12h2.15V46l5,.5c-.06.34-.27.56-1,.65v5.2h1.72V46l5,.5c-.06.34-.3.56-1,.65v5.2h.64A38,38,0,0,0,111.1,47l5.2,1.49c-.09.37-.39.53-1.15.5a23.42,23.42,0,0,1-4.57,3.36h2.27l2-2.43,3.75,2.49c-.21.37-.61.44-1.42.44Z"/><path class="cls-1" d="M161.81,51.06l.45.12c-1.09,4.55-3.08,13.36-3.08,15.57v.19c.06,1.74,1.36,2.77,1.36,5.48a2.76,2.76,0,0,1-2.81,3.08,1.84,1.84,0,0,1-1.88-1.65,23,23,0,0,0,.39-4.11c0-2.77-.45-3.27-2.18-3.43v-.56c1,0,1.33,0,1.33,0v0c.45,0,.57,0,.91-.65.48-.87.61-1.09,2.6-6.41A2.32,2.32,0,0,1,157,59.75a2.13,2.13,0,0,1-1.69-.87,8,8,0,0,0-1.6-4.64l.21-.16c4.29.65,5.5,2.37,5.29,3.77Zm-6.65-4.83c4.26.62,5.69,2.27,5.69,3.67a2.35,2.35,0,0,1-2.3,2.27,2.19,2.19,0,0,1-1.72-.87,10.23,10.23,0,0,0-1.87-4.92Zm21.41,17.22v2.77c4.75,1.12,6.32,3.24,6.32,4.92a2.52,2.52,0,0,1-2.36,2.59,2.44,2.44,0,0,1-1.81-.87,12.63,12.63,0,0,0-2.15-6v4.27c0,2.55-.64,4.24-4.9,4.52,0-2.87-.76-3.49-2.72-3.77v-.34H172c.21,0,.3-.16.3-.47V68.6a2,2,0,0,1-.6,0,19,19,0,0,1-7.83,5.54l-.21-.34a21.17,21.17,0,0,0,4.57-8.1l4.08,2.21V63.46h-.48v.62c0,.09-.57,1.43-3.87,1.43V52.62L172,54.27h.64c0-.87.06-2,.06-3,0-.65,0-1.25,0-1.81h-5.93v8.81c0,5.61-.18,12.64-6.17,17.35l-.27-.22c2.27-5,2.3-11.37,2.3-17.13v-11L167.4,49h9.38l2.06-2.86L182.61,49c-.24.34-.67.44-1.48.44h-6.77l3.9.65c-.06.37-.33.59-1.12.62a36.68,36.68,0,0,1-3.78,3.52h3.51l1.45-2,3.93,2.8a1.69,1.69,0,0,1-1,.59v8.47c0,.06-1.12,1-4.11,1V63.46Zm.57-8.66h-5.29v3.8h5.29ZM171.85,63h5.29V59.1h-5.29Z"/><path class="cls-1" d="M238.56,49.38,243,52.78a2.24,2.24,0,0,1-1.33.75V73.8c0,.06-1.18,1.31-4.54,1.31V72.9H225.61v.81c0,.19-.67,1.84-4.45,1.84V49.88l4.72,1.93h2.54c.18-1.81.27-4.3.27-6L235.29,47c-.09.4-.33.62-1.15.62a34.13,34.13,0,0,1-4.9,4.14h7.53Zm-1.45,2.93H225.61v6.2H237.1Zm0,6.7H225.61v6.38H237.1ZM225.61,72.4H237.1V65.89H225.61Z"/><path class="cls-1" d="M293.77,58.76A37.29,37.29,0,0,0,297.55,46l5.32,1.4c-.09.4-.36.62-1.3.72a15.66,15.66,0,0,0,8,7.57V56c-1.54.78-2.12,2.52-2.42,4.23-2.66-2.77-4.75-7.07-5.87-11.86a22.18,22.18,0,0,1-7.92,11.93c-.18,9.59-.51,12.61-2,13.92a5.61,5.61,0,0,1-4.14,1.31c0-2.37-.18-3.39-2.63-4.08l0-.34,2.72,0c.42,0,.6,0,.82-.25.73-.72.91-4.08,1.06-12.05h-1.78c-.91,6.29-2.78,12.55-6.9,16.69l-.3-.28c2.57-6,3.18-15,3-22.3h-2.87l-.12-.5h4.6V46l5.59.56c-.06.34-.3.56-1,.69V52.5h.51L292,49.38l3.72,3.18c-.21.34-.67.44-1.48.44h-5.08c-.06.5-.33.75-1.24.81-.09,1.5-.24,3.05-.45,4.58h1.39l1.66-2.15Zm.7,7.41c8.77.65,11.58,4.27,11.58,6.82a2.31,2.31,0,0,1-2.18,2.55,2.56,2.56,0,0,1-1.45-.47,16.93,16.93,0,0,0-8.11-8.63Zm2.15-7.82c5.78-.19,7.68,1.9,7.68,3.74A2.44,2.44,0,0,1,302,64.58a2.4,2.4,0,0,1-1.51-.56,10,10,0,0,0-4-5.45Z"/><path class="cls-1" d="M353.28,60.47a2.6,2.6,0,0,1-1.6.72V68.6c2.06,2,4,2.24,9.59,2.24,3.27,0,7.71,0,11.46-.12v.34c-1.6.44-2.54,1.77-2.72,3.8H361.3c-5.78,0-8-1-10-5.82a55.46,55.46,0,0,1-4.63,5.76.85.85,0,0,1-.54.81L344,70.75c1-.25,2.24-.68,3.6-1.15V60.31h-3.51l-.09-.59h3.12l2-2.68ZM344.94,47c4.93.56,6.56,2.46,6.56,4.08A2.6,2.6,0,0,1,349,53.62a2.54,2.54,0,0,1-1.84-.9,9.65,9.65,0,0,0-2.39-5.61Zm14.24,21.27v.44c0,.16-.64,1.71-4.23,1.71V48.85l4.42,1.81h.12c.06-1.34.15-3.36.18-4.83l6.53.87c-.09.59-.42.87-1.36.93-.88.84-2.33,2.15-3.36,3h3.33l1.54-2.12,4.26,3a2.09,2.09,0,0,1-1.21.69v5.51s-1.21.9-4.29.9V57h-5.93v4.36h6.5l1.57-2.12,4.23,3a2.1,2.1,0,0,1-1.21.69v6.17s-1.18.9-4.29.9V68.22Zm5.93-17.07h-5.93v5.36h5.93ZM366,61.87h-6.8v5.85H366Z"/><path class="cls-1" d="M407.77,69c1.94-.68,6.65-2.62,11.25-4.7l.12.28a80.7,80.7,0,0,1-7.71,7.85,1.25,1.25,0,0,1-.67,1Zm16.51-14.17A18.53,18.53,0,0,0,427.34,62a47.59,47.59,0,0,0,3.21-6.7l4.66,3.11a.73.73,0,0,1-.76.4,2.11,2.11,0,0,1-.42,0,46.44,46.44,0,0,1-6.17,3.89,18.54,18.54,0,0,0,8.65,5.82l-.09.31A5.13,5.13,0,0,0,433,72.93c-4.6-3.39-7.29-7.66-8.65-16.72h0V70.09c0,2.83-.67,5-5.62,5.48-.06-2.83-.64-4.08-3.93-4.55v-.37h4.6c.36,0,.48-.19.48-.53V53.81H408.32l-.15-.5h11.64V46.17l5.63.5c0,.4-.15.65-1.15.81v5.82h5.29l1.85-2.49a2.12,2.12,0,0,1-1.3.44,2.28,2.28,0,0,1-1.51-.62,8,8,0,0,0-2.48-4.11l.12-.19c.42,0,.85,0,1.21,0,3.69,0,5,1.34,5,2.65a2.23,2.23,0,0,1-.45,1.34l4.11,3.08c-.21.34-.61.44-1.48.44H424.29Zm-13.58,1.09c4.75.84,6.35,2.83,6.35,4.48A2.63,2.63,0,0,1,414.52,63a2.49,2.49,0,0,1-1.91-1,9.78,9.78,0,0,0-2.09-6Z"/><path class="cls-1" d="M496,65.58l4.36,3.11c-.24.34-.64.44-1.48.44H488.06v5.61c0,.16-1.36.87-3.69.87h-.85V69.13H471.76l-.15-.5h11.92V64.52h-3.24v.41c0,.12-.67,1.68-4.39,1.68v-14l4.63,1.84h3V46l5.56.56c-.06.34-.3.56-1,.69v3h4.23l2.3-3,4.2,3c-.21.34-.67.44-1.48.44h-9.25v3.71h3l1.63-2.21L497,55.39a2,2,0,0,1-1.21.65v9s-1.12,1.21-4.45,1.21V64.52h-3.33v4.11h5.53ZM491.39,55h-11.1v4.2h11.1ZM480.29,64h11.1V59.66h-11.1Z"/><path class="cls-1" d="M558.52,53.06a51.36,51.36,0,0,0,.54,5.51,28.25,28.25,0,0,0,.85-3.67l4.54,1.31c-.12.37-.42.56-1.15.5A22.82,22.82,0,0,1,560.42,63a3.64,3.64,0,0,0,1.18,1.34c.27,0,1.21-1.93,1.69-3.3l.21,0L563,65.64a5.52,5.52,0,0,1,.85,2.37c0,1-1,1.5-1.87,1.5a4.46,4.46,0,0,1-2.78-1.25,8.72,8.72,0,0,1-1.6-2,18.17,18.17,0,0,1-5.53,3.49l-.3-.34a16.6,16.6,0,0,0,4.87-5.23,9.59,9.59,0,0,1-.45-1.31c-1.27,1.18-3.14,2.87-5.87,5a1.17,1.17,0,0,1-.76.84l-2.33-4.3,1.94-.4V57.23a2.18,2.18,0,0,1-1.27.25h-3l.3,0c-.06.28-.24.44-.82.53V63L546,60.35l2.81,2.74c-.24.34-.7.44-1.42.44h-2.93v6.82a33.58,33.58,0,0,0,7.71.62c2.63,0,9.19,0,12.07-.09v.37c-1.54.37-2.3,2-2.36,3.64H552c-7.2,0-11-1.37-13.19-7-.54,3-1.51,5.79-3.27,7.69l-.42-.37c1-3.74,1-10.71.94-15.29l4.54.22V57.48h-5.14l-.12-.5h4.93V51.62h-3.81l-.12-.5h3.93V45.89l4.93.47c-.06.37-.27.56-1,.69v4.08h.12L546,48.63l3.05,2.55c-.21.34-.64.44-1.42.44h-3.45V57h.12l1.75-2.68,3.09,2.62v-6l4.39,1.68h1.06c-.15-2.15-.21-4.36-.27-6.48l5.17.47c0,.41-.27.62-1.12.75,0,1.59,0,3.43.09,5.26h.6l1.75-2.4,3.21,2.46c-.24.34-.66.44-1.42.44Zm-17.9,7.22c-.09.31-.36.5-1.06.59-.09,1.74-.21,3.64-.48,5.54a8.89,8.89,0,0,0,1.54,1.93ZM553,53.06v10c1-.22,2-.5,3.05-.78a46.21,46.21,0,0,1-1.39-9.25Zm6.5-6c3.45-.12,4.6,1.06,4.6,2.18a1.72,1.72,0,0,1-1.66,1.71,1.6,1.6,0,0,1-1.12-.47,6.13,6.13,0,0,0-2-3.21Z"/></g></svg>