<svg xmlns="http://www.w3.org/2000/svg" viewBox="0 0 353.47 82.79"><defs><style>.cls-1{fill:#fff;}</style></defs><title>logo</title><g id="圖層_1" data-name="圖層 1"><path class="cls-1" d="M96.34,74.71V60.57h1.87v5.8h7.35v-5.8h1.87V74.71h-1.87V68H98.21v6.66Z"/><path class="cls-1" d="M120.38,73a5.93,5.93,0,0,1-1.87,1.43,5.06,5.06,0,0,1-2.19.48,4.33,4.33,0,0,1-3.44-1.47,4,4,0,0,1-1-2.67,3.7,3.7,0,0,1,.84-2.37,7,7,0,0,1,2.52-1.86,8.48,8.48,0,0,1-1.27-1.78,3.12,3.12,0,0,1-.32-1.32,2.94,2.94,0,0,1,1-2.21,3.51,3.51,0,0,1,2.51-.94,3.27,3.27,0,0,1,2.37.89,2.85,2.85,0,0,1,.92,2.13q0,2-2.67,3.44L120.28,70a8,8,0,0,0,.67-2l1.8.39a9.83,9.83,0,0,1-1.25,3,10.07,10.07,0,0,0,2.21,2.17L122.55,75A10.08,10.08,0,0,1,120.38,73Zm-1.09-1.37-3.18-3.94a6.11,6.11,0,0,0-1.9,1.56,2.51,2.51,0,0,0-.49,1.42,3,3,0,0,0,.69,1.78,2.27,2.27,0,0,0,1.94.93,3.2,3.2,0,0,0,1.62-.49A3.91,3.91,0,0,0,119.29,71.67Zm-2.44-6a4.62,4.62,0,0,0,1.46-1.17,2,2,0,0,0,.33-1.11,1.6,1.6,0,0,0-.46-1.18,1.55,1.55,0,0,0-1.14-.46,1.62,1.62,0,0,0-1.17.45,1.48,1.48,0,0,0-.47,1.11,1.63,1.63,0,0,0,.17.69,3.56,3.56,0,0,0,.51.77Z"/><path class="cls-1" d="M131.26,74.71V62.24H126.6V60.57h11.21v1.67h-4.68V74.71Z"/><path class="cls-1" d="M158.9,69.75l1.87.47a6.29,6.29,0,0,1-2.12,3.51,5.82,5.82,0,0,1-3.74,1.21A6.71,6.71,0,0,1,151.2,74,5.8,5.8,0,0,1,149,71.32a9.62,9.62,0,0,1-.75-3.79,8.33,8.33,0,0,1,.84-3.85,5.78,5.78,0,0,1,2.4-2.5,7,7,0,0,1,3.43-.85,5.8,5.8,0,0,1,3.57,1.08,5.62,5.62,0,0,1,2,3l-1.84.43a4.37,4.37,0,0,0-1.43-2.25,3.8,3.8,0,0,0-2.35-.7,4.57,4.57,0,0,0-2.72.78,4.13,4.13,0,0,0-1.54,2.1,8.44,8.44,0,0,0-.44,2.71,8.63,8.63,0,0,0,.53,3.15,3.92,3.92,0,0,0,1.63,2,4.58,4.58,0,0,0,2.4.67,4,4,0,0,0,2.66-.91A4.64,4.64,0,0,0,158.9,69.75Z"/><path class="cls-1" d="M164.18,69.59a5.28,5.28,0,0,1,1.58-4.21A4.76,4.76,0,0,1,169,64.24a4.59,4.59,0,0,1,3.45,1.38,5.27,5.27,0,0,1,1.34,3.82,6.77,6.77,0,0,1-.59,3.11,4.2,4.2,0,0,1-1.73,1.76,5,5,0,0,1-2.47.63,4.6,4.6,0,0,1-3.48-1.38A5.51,5.51,0,0,1,164.18,69.59Zm1.78,0a4.36,4.36,0,0,0,.86,2.95,2.86,2.86,0,0,0,4.31,0,4.47,4.47,0,0,0,.86-3,4.23,4.23,0,0,0-.86-2.88,2.86,2.86,0,0,0-4.31,0A4.34,4.34,0,0,0,166,69.59Z"/><path class="cls-1" d="M177.78,74.71V64.47h1.56v1.46a3.68,3.68,0,0,1,3.26-1.69,4.28,4.28,0,0,1,1.7.33,2.7,2.7,0,0,1,1.16.87,3.36,3.36,0,0,1,.54,1.28,10.07,10.07,0,0,1,.1,1.69v6.3h-1.74V68.48a4.66,4.66,0,0,0-.2-1.59,1.67,1.67,0,0,0-.72-.84,2.28,2.28,0,0,0-1.21-.31,2.81,2.81,0,0,0-1.91.7,3.47,3.47,0,0,0-.8,2.67v5.59Z"/><path class="cls-1" d="M190,71.65l1.72-.27a2.4,2.4,0,0,0,.81,1.58,2.8,2.8,0,0,0,1.85.55,2.71,2.71,0,0,0,1.77-.49,1.46,1.46,0,0,0,.58-1.14,1.05,1.05,0,0,0-.51-.93,7.54,7.54,0,0,0-1.77-.59,16.2,16.2,0,0,1-2.65-.83,2.53,2.53,0,0,1-1.5-2.35,2.64,2.64,0,0,1,.31-1.27,2.79,2.79,0,0,1,.85-1,3.6,3.6,0,0,1,1.1-.51,5.27,5.27,0,0,1,1.5-.21,5.93,5.93,0,0,1,2.12.35,2.89,2.89,0,0,1,1.35.94,3.68,3.68,0,0,1,.6,1.59l-1.7.23a1.86,1.86,0,0,0-.67-1.23,2.45,2.45,0,0,0-1.57-.44,2.84,2.84,0,0,0-1.71.4A1.15,1.15,0,0,0,192,67a1,1,0,0,0,.21.61,1.53,1.53,0,0,0,.67.46q.26.1,1.53.44a21.6,21.6,0,0,1,2.57.8,2.61,2.61,0,0,1,1.14.91,2.55,2.55,0,0,1,.41,1.49,2.92,2.92,0,0,1-.51,1.63,3.28,3.28,0,0,1-1.46,1.19,5.32,5.32,0,0,1-2.16.42,4.81,4.81,0,0,1-3-.83A3.86,3.86,0,0,1,190,71.65Z"/><path class="cls-1" d="M206.38,73.16l.25,1.53a6.39,6.39,0,0,1-1.31.15,3,3,0,0,1-1.47-.3,1.67,1.67,0,0,1-.73-.79,6.24,6.24,0,0,1-.21-2V65.82h-1.27V64.47h1.27V61.93l1.73-1v3.58h1.75v1.35h-1.75v6a3,3,0,0,0,.09,1,.72.72,0,0,0,.3.34,1.15,1.15,0,0,0,.59.13A5.63,5.63,0,0,0,206.38,73.16Z"/><path class="cls-1" d="M210,74.71V64.47h1.56V66a4.23,4.23,0,0,1,1.1-1.44,1.93,1.93,0,0,1,1.11-.35,3.38,3.38,0,0,1,1.78.56l-.6,1.61a2.48,2.48,0,0,0-1.27-.38,1.65,1.65,0,0,0-1,.34,1.86,1.86,0,0,0-.65,1,6.77,6.77,0,0,0-.29,2v5.36Z"/><path class="cls-1" d="M225.32,74.71V73.2a3.75,3.75,0,0,1-3.25,1.74,4.15,4.15,0,0,1-1.69-.35,2.78,2.78,0,0,1-1.17-.87,3.26,3.26,0,0,1-.54-1.29,8.86,8.86,0,0,1-.11-1.62V64.47h1.74v5.68a10.05,10.05,0,0,0,.11,1.83,1.81,1.81,0,0,0,.69,1.08,2.15,2.15,0,0,0,1.31.39,2.86,2.86,0,0,0,1.47-.4,2.23,2.23,0,0,0,1-1.09,5.47,5.47,0,0,0,.29-2V64.47h1.74V74.71Z"/><path class="cls-1" d="M238.25,71l1.71.22a4.43,4.43,0,0,1-1.43,2.76,4.17,4.17,0,0,1-2.83,1,4.4,4.4,0,0,1-3.38-1.37A5.57,5.57,0,0,1,231,69.63a7.13,7.13,0,0,1,.55-2.9,3.83,3.83,0,0,1,1.67-1.87,5,5,0,0,1,2.45-.62,4.25,4.25,0,0,1,2.73.84,3.88,3.88,0,0,1,1.36,2.4l-1.69.26a2.79,2.79,0,0,0-.85-1.55,2.21,2.21,0,0,0-1.48-.52,2.7,2.7,0,0,0-2.13.94,4.47,4.47,0,0,0-.82,3,4.61,4.61,0,0,0,.79,3,2.57,2.57,0,0,0,2.06.94,2.43,2.43,0,0,0,1.71-.63A3.12,3.12,0,0,0,238.25,71Z"/><path class="cls-1" d="M247.2,73.16l.25,1.53a6.39,6.39,0,0,1-1.31.15,3,3,0,0,1-1.47-.3,1.67,1.67,0,0,1-.73-.79,6.24,6.24,0,0,1-.21-2V65.82h-1.27V64.47h1.27V61.93l1.73-1v3.58h1.75v1.35h-1.75v6a3,3,0,0,0,.09,1,.72.72,0,0,0,.3.34,1.15,1.15,0,0,0,.59.13A5.63,5.63,0,0,0,247.2,73.16Z"/><path class="cls-1" d="M250.89,62.57v-2h1.74v2Zm0,12.14V64.47h1.74V74.71Z"/><path class="cls-1" d="M256.59,69.59a5.28,5.28,0,0,1,1.58-4.21,4.76,4.76,0,0,1,3.22-1.14,4.59,4.59,0,0,1,3.45,1.38,5.27,5.27,0,0,1,1.34,3.82,6.77,6.77,0,0,1-.59,3.11,4.2,4.2,0,0,1-1.73,1.76,5,5,0,0,1-2.47.63,4.6,4.6,0,0,1-3.48-1.38A5.51,5.51,0,0,1,256.59,69.59Zm1.78,0a4.36,4.36,0,0,0,.86,2.95,2.86,2.86,0,0,0,4.31,0,4.47,4.47,0,0,0,.86-3,4.23,4.23,0,0,0-.86-2.88,2.86,2.86,0,0,0-4.31,0A4.34,4.34,0,0,0,258.38,69.59Z"/><path class="cls-1" d="M270.2,74.71V64.47h1.56v1.46A3.68,3.68,0,0,1,275,64.24a4.28,4.28,0,0,1,1.7.33,2.7,2.7,0,0,1,1.16.87,3.36,3.36,0,0,1,.54,1.28,10.06,10.06,0,0,1,.1,1.69v6.3h-1.74V68.48a4.66,4.66,0,0,0-.2-1.59,1.67,1.67,0,0,0-.72-.84,2.28,2.28,0,0,0-1.21-.31,2.81,2.81,0,0,0-1.91.7,3.47,3.47,0,0,0-.8,2.67v5.59Z"/><path class="cls-1" d="M297.46,69.16V67.5h6v5.25a10.57,10.57,0,0,1-2.84,1.65,8.44,8.44,0,0,1-3,.56,8,8,0,0,1-3.79-.89,5.9,5.9,0,0,1-2.57-2.58,8.13,8.13,0,0,1-.87-3.77,8.75,8.75,0,0,1,.86-3.85,5.75,5.75,0,0,1,2.48-2.66,7.79,7.79,0,0,1,3.73-.87,7.4,7.4,0,0,1,2.77.5,4.59,4.59,0,0,1,1.94,1.38,6.14,6.14,0,0,1,1.07,2.31l-1.69.46a5.23,5.23,0,0,0-.79-1.7,3.25,3.25,0,0,0-1.35-1,5,5,0,0,0-1.95-.37,5.73,5.73,0,0,0-2.22.39,4.14,4.14,0,0,0-1.51,1,4.88,4.88,0,0,0-.89,1.4,7.39,7.39,0,0,0-.54,2.84,6.91,6.91,0,0,0,.65,3.16,4.17,4.17,0,0,0,1.89,1.89,5.88,5.88,0,0,0,2.64.62,6.29,6.29,0,0,0,2.37-.47,6.15,6.15,0,0,0,1.76-1V69.16Z"/><path class="cls-1" d="M307.94,74.71V64.47h1.56V66a4.23,4.23,0,0,1,1.1-1.44,1.93,1.93,0,0,1,1.11-.35,3.38,3.38,0,0,1,1.78.56l-.6,1.61a2.48,2.48,0,0,0-1.27-.38,1.65,1.65,0,0,0-1,.34,1.86,1.86,0,0,0-.65,1,6.77,6.77,0,0,0-.29,2v5.36Z"/><path class="cls-1" d="M315.86,69.59a5.28,5.28,0,0,1,1.58-4.21,4.76,4.76,0,0,1,3.22-1.14,4.59,4.59,0,0,1,3.45,1.38,5.27,5.27,0,0,1,1.34,3.82,6.77,6.77,0,0,1-.59,3.11,4.2,4.2,0,0,1-1.73,1.76,5,5,0,0,1-2.47.63,4.6,4.6,0,0,1-3.48-1.38A5.51,5.51,0,0,1,315.86,69.59Zm1.78,0a4.36,4.36,0,0,0,.86,2.95,2.86,2.86,0,0,0,4.31,0,4.47,4.47,0,0,0,.86-3,4.23,4.23,0,0,0-.86-2.88,2.86,2.86,0,0,0-4.31,0A4.34,4.34,0,0,0,317.64,69.59Z"/><path class="cls-1" d="M336.18,74.71V73.2a3.75,3.75,0,0,1-3.25,1.74,4.15,4.15,0,0,1-1.69-.35,2.77,2.77,0,0,1-1.17-.87,3.26,3.26,0,0,1-.54-1.29,8.75,8.75,0,0,1-.11-1.62V64.47h1.74v5.68a10.18,10.18,0,0,0,.11,1.83,1.81,1.81,0,0,0,.69,1.08,2.15,2.15,0,0,0,1.31.39,2.85,2.85,0,0,0,1.47-.4,2.23,2.23,0,0,0,1-1.09,5.48,5.48,0,0,0,.28-2V64.47h1.74V74.71Z"/><path class="cls-1" d="M342.42,78.63V64.47H344V65.8a3.89,3.89,0,0,1,1.26-1.17,3.47,3.47,0,0,1,1.71-.39,4.05,4.05,0,0,1,2.31.67,4.15,4.15,0,0,1,1.51,1.9,7,7,0,0,1,.51,2.7,6.86,6.86,0,0,1-.56,2.83,4.26,4.26,0,0,1-1.64,1.93,4.22,4.22,0,0,1-2.26.67,3.27,3.27,0,0,1-1.56-.37,3.55,3.55,0,0,1-1.13-.93v5Zm1.57-9a4.45,4.45,0,0,0,.8,2.92,2.45,2.45,0,0,0,1.94.94,2.51,2.51,0,0,0,2-1,4.64,4.64,0,0,0,.82-3,4.52,4.52,0,0,0-.81-2.93,2.42,2.42,0,0,0-1.92-1,2.5,2.5,0,0,0-2,1A4.63,4.63,0,0,0,344,69.65Z"/><path class="cls-1" d="M26.78,18.13c1.24,1.29,1.55-.65,1.55-.65s1.76-4.43,14.51-4.43c0,0,11.26.32,14.29,4.43,0,0,.3,1.94,1.55.65,0,0,5.49-4.32,2.9-10.79,0,0-2.38-7.34-18.14-7.34H42C26.26,0,23.88,7.34,23.88,7.34,21.28,13.81,26.78,18.13,26.78,18.13Z"/><path class="cls-1" d="M42.55,14.24h-.29c-12.07.14-12.58,4.21-12.58,4.21-1.75,6.16,2.5,4.64,2.5,4.64,2.48-2.27.1-4.74.1-4.74s1.43-2.22,10.27-2.27,10.28,2.27,10.28,2.27-2.38,2.47.1,4.74c0,0,4.25,1.52,2.49-4.64,0,0-.5-4.08-12.57-4.21h-.3Z"/><path class="cls-1" d="M41.09,36.37l.21-5.18c1-1.51,1.86.22,1.86.22l-.42,5.07c-.51,2.16,1.45.76,1.45.76L49.89,30C52.8,26.65,51,24.39,51,24.39a7.64,7.64,0,0,0-5-3.23c-1.35-2.8-3.22-2.8-3.22-2.8-2.28,0-3.52,2.7-3.52,2.7A17.86,17.86,0,0,0,35,23.42c-3.32,3.35-.84,6.26-.84,6.26l5,7.24C41.09,39.29,41.09,36.37,41.09,36.37Z"/><path class="cls-1" d="M14.39,48.75c1.61-.78-.14-1.69-.14-1.69s-3.66-3,.28-15.17c0,0,3.79-10.59,8.62-12.21,0,0,1.94.31,1.09-1.28,0,0-2.4-6.56-9.37-6.1,0,0-7.71,0-12.59,15l-.43,1.36C-3,43.65,3.23,48.18,3.23,48.18,8.59,52.64,14.39,48.75,14.39,48.75Z"/><path class="cls-1" d="M15.6,46.08c5.31,3.59,5.18-.93,5.18-.93-1.39-3.06-4.48-1.56-4.48-1.56s-1.67-2,1-10.48,5.33-9.06,5.33-9.06,1.63,3,4.55,1.37c0,0,2.75-3.58-3.65-3.79,0,0-4-.79-7.88,10.65h0l-.09.28c0,.11-.06.2-.09.29h0C11.87,44.35,15.6,46.08,15.6,46.08Z"/><path class="cls-1" d="M32.08,37.28l4.69,2c1.89,1.16,1.16-1.15,1.16-1.15l-5.11-7.66c-2.27-3.8-5-2.82-5-2.82a7.65,7.65,0,0,0-4.62,3.72c-3.08.43-3.66,2.2-3.66,2.2C18.86,35.7,21,37.72,21,37.72a18.54,18.54,0,0,0,.92,4.88c2.16,4.19,5.7,2.72,5.7,2.72l8.41-2.5c2.87-1.14.1-2,.1-2L31.29,39C30.17,37.53,32.08,37.28,32.08,37.28Z"/><path class="cls-1" d="M38,69.29s-4,2.55-14.33-4.94c0,0-8.92-6.9-9-12,0,0,.89-1.76-.87-1.43,0,0-7,.26-8.7,7,0,0-2.38,7.34,10.37,16.59l1.15.86c12.74,9.26,19,4.72,19,4.72,5.9-3.72,4-10.44,4-10.44C39.38,67.9,38,69.29,38,69.29Z"/><path class="cls-1" d="M25.66,62.07c-7.13-5.24-7-7.87-7-7.87s3.4-.6,2.71-3.9c0,0-2.56-3.73-4.74,2.29,0,0-2,3.6,7.69,10.79h0a1.93,1.93,0,0,1,.25.17,1.64,1.64,0,0,0,.24.16h0c9.84,7,12.65,4,12.65,4,5-3.94.71-5.22.71-5.22-3.34.38-2.87,3.79-2.87,3.79S32.85,67.23,25.66,62.07Z"/><path class="cls-1" d="M38.77,46.52l-3.21,4.06c-1.73.62-1.39-1.27-1.39-1.27l3.32-3.87C39.18,44,36.76,44,36.76,44L27.9,46.49c-4.32,1-4.23,3.87-4.23,3.87a7.67,7.67,0,0,0,2.11,5.55c-.55,3,1,4.16,1,4.16,1.84,1.34,4.43-.1,4.43-.1a18.36,18.36,0,0,0,4.93.63c4.65-.75,4.35-4.59,4.35-4.59l.22-8.77C40.49,44.16,38.77,46.52,38.77,46.52Z"/><path class="cls-1" d="M67.76,52.49c-1.77-.31-.87,1.44-.87,1.44s1.17,4.62-9.14,12.1c0,0-9.29,6.36-14.16,4.83,0,0-1.39-1.39-1.64.38,0,0-1.9,6.73,4,10.44,0,0,6.25,4.54,19-4.74l1.16-.82c12.75-9.27,10.36-16.61,10.36-16.61C74.74,52.75,67.76,52.49,67.76,52.49Z"/><path class="cls-1" d="M65.22,53.94c-2.19-6-4.75-2.3-4.75-2.3-.68,3.31,2.71,3.91,2.71,3.91s.15,2.63-7,7.87-9.64,4.21-9.64,4.21.47-3.4-2.87-3.78c0,0-4.32,1.27.72,5.22,0,0,2.8,3,12.64-4h0c.08-.07.17-.11.24-.16a2.09,2.09,0,0,1,.25-.19h0C67.2,57.53,65.22,53.94,65.22,53.94Z"/><path class="cls-1" d="M55,47.47l-8.27-2.92c-3-.77-1.27,1.59-1.27,1.59l2.88,4.32c0,1.84-1.63.92-1.63.92L44.06,47c-.85-2-1.62.24-1.62.24l-.36,9.2c-.38,4.42,2.38,5.22,2.38,5.22a7.64,7.64,0,0,0,5.93-.31c2.74,1.49,4.25.39,4.25.39,1.84-1.33,1.27-4.26,1.27-4.26A18,18,0,0,0,58,53C58.75,48.36,55,47.47,55,47.47Z"/><path class="cls-1" d="M82.34,30.47l-.44-1.36c-4.87-15-12.58-15-12.58-15-7-.47-9.37,6.09-9.37,6.09C59.1,21.82,61,21.5,61,21.5s4.76.31,8.7,12.44c0,0,3.17,10.81.2,14.95,0,0-1.75.9-.13,1.68,0,0,5.8,3.89,11.16-.57C81,50,87.21,45.47,82.34,30.47Z"/><path class="cls-1" d="M68.51,34c0-.1-.06-.19-.09-.28h0c-3.85-11.44-7.89-10.66-7.89-10.66-6.4.23-3.65,3.8-3.65,3.8,2.92,1.67,4.55-1.37,4.55-1.37s2.54.67,5.32,9.08,1,10.47,1,10.47-3.1-1.5-4.49,1.56c0,0-.12,4.51,5.19.94,0,0,3.72-1.75.12-13.26h0C68.57,34.21,68.54,34.12,68.51,34Z"/><path class="cls-1" d="M64.7,35.57C64,33.4,61,33.06,61,33.06a18.21,18.21,0,0,0-3.61-3.42c-4.21-2.12-6.21,1.15-6.21,1.15l-5.34,7C44.24,40.37,47,39.47,47,39.47l5-1.4c1.76.52.37,1.84.37,1.84l-5,1.17c-2.2.18-.27,1.61-.27,1.61l8.65,3.19c4.07,1.74,5.69-.64,5.69-.64C63.57,42.92,63,39.49,63,39.49,65.28,37.35,64.7,35.57,64.7,35.57Z"/><path class="cls-1" d="M41.9,44a2.22,2.22,0,1,0-2.21-2.21A2.21,2.21,0,0,0,41.9,44Z"/><path class="cls-1" d="M104.78,50.29h-3.19V33.64a47.14,47.14,0,0,1-5.21,8.58L93.45,40.9a39.44,39.44,0,0,0,7.44-12.32H94V25.4h7.55V20.19q-3.45.26-5.79.29l-.48-3.15a94.93,94.93,0,0,0,14.81-1.5l.55,3.15a50.49,50.49,0,0,1-5.87.88,0,0,0,0,0,0,0v5.5h6.45v3.19h-6.38a106.57,106.57,0,0,1,7,9.49l-2.57,1.83q-1.91-3.15-4.47-6.82Zm11.14-1.17h-3.19V17.7q0-.51.51-.51h12.83c.46,0,.7.22.7.66V49.11h-3.19V47.43h-7.66Zm7.66-4.88V20.81q0-.44-.48-.44h-6.74q-.48,0-.44.44V44.24Z"/><path class="cls-1" d="M154.27,32.62H142.43l-.48.55q-1,1.17-2.27,2.38,2.82,2.86,3.7,3.89L141,41.3q-1-1.24-3.56-3.81a28.46,28.46,0,0,1-4.22,3l-2.35-2.27a40.89,40.89,0,0,0,7.59-5.64h-7v-3h9.79q1.06-1.46,1.87-2.82h-9v-3h10.45a22.25,22.25,0,0,0,.88-2.82H132.75v-3h13.2q.18-1.06.33-2.27l3.15.37q-.18.92-.33,1.91h15.07v3H148.4q-.4,1.58-.77,2.82H162.7v3h-8.8a27,27,0,0,0,1.8,2.82h9.64v3h-7.15A33.35,33.35,0,0,0,166,38l-2.42,2.49a51.37,51.37,0,0,1-5-3.59,38.43,38.43,0,0,1-4.73,3.78l-1.91-2.42a43.49,43.49,0,0,0,4.36-3.41Q155.37,33.94,154.27,32.62ZM145.18,44.2a62,62,0,0,1-11.33,6l-1.25-2.93a58.15,58.15,0,0,0,10.89-5.65Zm4.91-9.2V46.77A3.72,3.72,0,0,1,148.4,50q-1.69,1.06-6.34-.07l0-3.3q3.66,1,4.55.37a1.38,1.38,0,0,0,.33-1.06V35Zm.37-8.25h-4q-.81,1.39-1.69,2.82h7.33Q151.26,28.22,150.46,26.75Zm3.15,15.43a106.19,106.19,0,0,1,10.34,5.65l-1.72,2.64A98.85,98.85,0,0,0,152,44.93Z"/><path class="cls-1" d="M170.66,17.73c-.07-.49.12-.75.59-.77a30.13,30.13,0,0,0,5.21-1.14L178,18.54v-1.1a.87.87,0,0,1,1-1h13.78q1,0,1,1V40h4.51V35.4h-3.37v-3h3.37V27.48h-3.37v-3h3.37V20q0-.4-.4-.4H195v-2.9h5.65q.73,0,.73.77V40h2v3H168.53V40h2.13ZM181.1,47a30.31,30.31,0,0,1-11.62,3.37,9.14,9.14,0,0,0-.15-3.15,21.24,21.24,0,0,0,5.39-.92,24.66,24.66,0,0,0,5-2.35ZM178,40V18.69a27.58,27.58,0,0,1-4,1q-.44,0-.4.37v4.43h3.37v3h-3.37v4.88h3.37v3h-3.37V40Zm12.9,0V19.75q0-.4-.44-.4h-9.16c-.27,0-.4.16-.4.4V40Zm-1.32-1.58h-7.26a.36.36,0,0,1-.37-.4V25.91a.32.32,0,0,1,.37-.37h7.26q.4,0,.4.37V38Q189.94,38.41,189.57,38.41Zm.11-17.27v2.6H182v-2.6Zm-5,7a.1.1,0,0,0-.11.11v7.4c0,.1,0,.15.11.15h2.57a.13.13,0,0,0,.15-.15v-7.4c0-.07,0-.11-.15-.11Zm8,16.28a54.47,54.47,0,0,1,10.45,2.93l-.92,3A54,54,0,0,0,192,47.43Z"/><path class="cls-1" d="M207.94,27.78,206.51,25a14.86,14.86,0,0,0,5.42-2.42,4.51,4.51,0,0,0,1.83-3.52V15.79h2.9v3.26a10.63,10.63,0,0,1-.66,2.71,60,60,0,0,1,6.08,3.15l-1.43,2.71A62.38,62.38,0,0,0,214.57,24,15.65,15.65,0,0,1,207.94,27.78ZM209,15.86a25,25,0,0,1,3.08,4.29l-2.42,1.61a23.76,23.76,0,0,0-3-4.14Zm22.1,7.73a12.64,12.64,0,0,1-5.76,4.18l-1.69-2.64a15.07,15.07,0,0,0,2.64-1.06q3.12-1.87,3.26-4.73v-3.7h2.9v3.7a9.57,9.57,0,0,1-.29,1.87,80.61,80.61,0,0,1,7,4.65l-1.43,2h.7l2.64,1.32a34.71,34.71,0,0,1-1.72,6.63l-2.75-1a25.09,25.09,0,0,0,1-3.63q0-.44-.37-.44H209.92c-.2,0-.29.12-.29.29v4.76h-2.9v-7.4a.49.49,0,0,1,.55-.55h29.58A60.23,60.23,0,0,0,231.14,23.6Zm-19,26.8h-2.9V42a.86.86,0,0,1,1-1h9.46l.7-1.94h-8.1a.36.36,0,0,1-.37-.4V32.29a.32.32,0,0,1,.37-.37h22.51c.27,0,.4.12.4.37v6.38q0,.4-.4.4H223.41l-.7,1.94H236.9a.89.89,0,0,1,1,1v8.4H235V49H212.12ZM235,46.22V44.16q0-.4-.44-.4H212.52c-.29,0-.43.16-.4.4v2.05ZM214.86,34.38c-.1,0-.13,0-.11.11v2c0,.07,0,.12.11.15h17.23c.1,0,.15-.07.15-.15v-2c0-.07,0-.11-.15-.11Zm7.92-17a21.87,21.87,0,0,1-2.46,4.47l-2.49-1.5A29.64,29.64,0,0,0,220.22,16Zm3.41-1.21a24.29,24.29,0,0,1,2.2,4.76L225.68,22a26.28,26.28,0,0,0-2.13-4.62Zm12.72,1.28a24.72,24.72,0,0,1-2.24,4.51l-2.57-1.39a26.1,26.1,0,0,0,2.16-4.36Z"/><path class="cls-1" d="M251.38,31.44c0-.24-.09-.37-.18-.37h-5.28l-1.21-1.87,5.24-9.31c0-.1,0-.13,0-.11h-5.17V16.56H253l1.47,2.05-5.57,9.27h4.69q1.1.07,1.06,1.1a32.89,32.89,0,0,1-3.15,13.49l.07.07Q255,46.4,261.9,46.29H278.5l-.88,3.34H263.11a31.57,31.57,0,0,1-7-1,13.8,13.8,0,0,1-6.08-3.48,40.82,40.82,0,0,1-4,5.35l-2.68-2.42a33,33,0,0,0,4.44-5.72,28.87,28.87,0,0,1-3.26-7.73l2.9-.81a31.56,31.56,0,0,0,2,5.43A19.18,19.18,0,0,0,251.38,31.44Zm3.52,10.26v-3h9.17V36.58h-7.7v-3h7.7V31.22h-6.64v-2.9h6.64V25.95h-9.6V23h9.6V20.81h-6.64v-2.9h6.64V15.5h3.19v2.42h7.66q1,0,1,1V23h2.35v2.9H275.9v4.29a.87.87,0,0,1-1,1h-7.66v2.31h9.09v3h-9.09v2.09h10.41v3H267.25v3.88h-3.19V41.71ZM267.25,23h5.46v-2a.27.27,0,0,0-.29-.26h-5.17Zm0,5.28h5.17c.2,0,.29-.12.29-.29V25.95h-5.46Z"/><path class="cls-1" d="M292.8,33.72l.4.62-2.68,1.72q-.81-1.54-1.8-3.19V50.43h-3V34.82a37.39,37.39,0,0,1-1.61,4.07l-3.15-.62A35,35,0,0,0,285,25.95h-3.26V22.76h4V15.64h3v7.11h3v3.19h-3v1.65q2.09,2.9,4,6a14.78,14.78,0,0,0-1-2.57l1.5-.33a41.18,41.18,0,0,0,2.53-3.92,27.14,27.14,0,0,0-5-5.13q.88-1.17,1.76-2.31a5.32,5.32,0,0,1,1.06.92,47.17,47.17,0,0,0,1.76-4.58q1.32.59,2.68,1.14a47.64,47.64,0,0,1-2.38,5.46l1.47,1.69a22.76,22.76,0,0,0,1-3.56l2.82.59q-.55,3.23-4,8.72l1.5-.37q-.33-.88-.44-1.21l2.49-.7a54.3,54.3,0,0,1,1.69,5.54l-2.53.51q-.15-.66-.37-1.36Zm22.62,1.21v2.9h-8.76a21.89,21.89,0,0,0,1.69,4.07q1.28-1.47,2.75-3.45l2.38,1.65a38.7,38.7,0,0,1-3.59,4.4q1.76,2.31,2.2,2.31.26,0,.37-.4a28.55,28.55,0,0,0,.55-4.33l3,.92q-.66,5.86-2.09,7.22a2.25,2.25,0,0,1-1.21.51q-2.27,0-5.06-4.36a28.52,28.52,0,0,1-9.5,4.07l-1.39-2.75a29.35,29.35,0,0,0,9.42-3.81,28.59,28.59,0,0,1-2.46-6h-7a.32.32,0,0,0-.37.37v1.54a69.77,69.77,0,0,1,6.71,2.79l-1.28,2.9a54.56,54.56,0,0,0-5.46-2.71,12,12,0,0,1-3.26,7.84L290.34,49a11.15,11.15,0,0,0,2.38-3.81,13.84,13.84,0,0,0,.59-4.11V35.73a.71.71,0,0,1,.81-.81H303q-1.83-6.45-2.09-19.1l3.08.22q0,2.68.07,5.13.81-1,1.5-2a6.39,6.39,0,0,1,1,.77,42.53,42.53,0,0,0,2-4.36q1.32.66,2.57,1.32a41.75,41.75,0,0,1-2.53,5,23.5,23.5,0,0,1,1.58,1.76,27.24,27.24,0,0,0,2.16-5.54l2.79.73q-.81,3.63-5,9.68l2.09-.44q-.37-1-.48-1.28l2.46-.77q1.65,4.55,2,6.12l-2.49.59a16.25,16.25,0,0,0-.55-1.87l-3.48.73a15.46,15.46,0,0,1,2.31,1.94l-1.21,1.36Zm-10.59-5.28,1.5-.29q1.06-1.32,2.27-3.12a27.34,27.34,0,0,0-4.55-4.51A71.34,71.34,0,0,0,304.82,29.65Zm4,2.16-3.52.7q.26,1.28.51,2.42h3.67a11,11,0,0,0-1.91-1.54Z"/><path class="cls-1" d="M326.34,50.29h-2.9V34.74q-1,2.64-1.91,4.55l-3-.66a38.62,38.62,0,0,0,4.62-12.9h-3.89v-3h4.18V15.79h2.9v6.89H330v3h-3.67v1.14q2.49,3.34,4.69,6.89l-2.46,1.58q-1-1.87-2.24-3.88Zm8.36-.18h-2.9v-6h-2.57v-2.9h2.57V32.36a.58.58,0,0,1,.66-.66H340V29.83h-9.75V27.08h5.79v-2h-4.47v-2.6h4.47V20.52h-5.21v-2.6h5.21V15.5H339v2.42h5.17V15.5H347v2.42h5.28v2.6H347v1.94h4.69v2.6H347v2h6.16v2.75H342.91V31.7h7.81c.46,0,.7.22.7.66v8.87h2.05v2.9h-2.05V47a3,3,0,0,1-1.36,2.68q-1.83,1.28-6.56.15l0-3.19q3.48,1.06,4.29.51a1.53,1.53,0,0,0,.77-1.32V44.13H334.7ZM340,34.3h-5.09a.19.19,0,0,0-.22.22v2H340Zm0,6.93V39.14H334.7v2.09Zm4.11-20.71H339v1.94h5.17Zm0,6.56v-2H339v2Zm-1.21,9.46h5.61v-2c0-.15-.09-.22-.26-.22h-5.35Zm5.61,4.69V39.14h-5.61v2.09Z"/></g></svg>