<svg xmlns="http://www.w3.org/2000/svg" viewBox="0 0 280.86 130.8"><defs><style>.cls-1{fill:#4c4948;}</style></defs><title>project-txt</title><g id="圖層_1" data-name="圖層 1"><path class="cls-1" d="M15.52,14.69h-7V10H14c.14,0,.21-.09.21-.29V9A.19.19,0,0,0,14,8.79H8.56V4.21h6.27c.14,0,.21-.09.21-.27v-.7A.19.19,0,0,0,14.83,3H8.6l.48-.68a.54.54,0,0,0,.11-.16c-.39-.29-.87-.63-1.43-1a18.43,18.43,0,0,0-1.82-1s-.09,0-.14.11a3.62,3.62,0,0,0-.55.79,10.78,10.78,0,0,1,1.36.7A18.21,18.21,0,0,1,8.3,3H1a.19.19,0,0,0-.21.22v.7c0,.18.07.27.21.27H7.24V8.79H1.59A.19.19,0,0,0,1.38,9v.7c0,.2.07.29.21.29H7.24v4.7h-7a.19.19,0,0,0-.21.22v.7c0,.18.07.29.21.29H15.52c.14,0,.21-.11.21-.29v-.7A.19.19,0,0,0,15.52,14.69Z"/><path class="cls-1" d="M29.92,14l-1.66-.67A6,6,0,0,0,29.5,12a8.59,8.59,0,0,0,.78-1.24h3c.09,0,.14-.09.14-.29V9.92c0-.14-.05-.22-.14-.22H25.14c.21-.32.42-.67.65-1.06a.53.53,0,0,1,.42-.18c.07,0,.12-.05.12-.16s-.05-.07-.14-.14h5.67c.18,0,.28-.07.28-.22V3.73c0-.14-.11-.22-.28-.22h-3.8V2h5c.09,0,.14-.09.14-.27V1.12c0-.13-.05-.2-.14-.2H18c-.11,0-.14.07-.14.2v.58c0,.18,0,.27.14.27H22.9V3.51H19.31c-.19,0-.28.07-.28.22V7.94c0,.14.09.22.28.22h5.16a11.2,11.2,0,0,1-.83,1.35.77.77,0,0,1-.16.2H17.72c-.11,0-.14.07-.14.22v.56c0,.2,0,.29.14.29h4.85a7.48,7.48,0,0,1-.87.81c-.58.49-1.15.94-1.71,1.37a.28.28,0,0,0,.12.22l.55.45a.5.5,0,0,0,.37.16q.64-.49,1.17-.92c1.2.29,2.28.56,3.23.85a5.28,5.28,0,0,1-.64.29,21.24,21.24,0,0,1-3,.85c-.88.16-1.69.29-2.44.4a8.46,8.46,0,0,1-1.39.16.37.37,0,0,0,.16.25,9.46,9.46,0,0,0,.56.88c0,.09.09.14.23.14,1.73-.32,3.23-.65,4.5-1a21.32,21.32,0,0,0,2.61-1,7.76,7.76,0,0,0,1-.49c.62.23,1.27.49,2,.77.9.38,2,.92,3.42,1.6a1,1,0,0,0,.27.07c.07,0,.32-.25.72-.74a.43.43,0,0,0,.11-.25C32.34,15.07,31.14,14.53,29.92,14Zm-7-7H20.28V4.64H22.9Zm5.17-2.38h2.82V7H28.07ZM24.13,2h2.7V3.51h-2.7Zm0,5.06V4.64h2.7V7Zm2.77,5.89-.76-.23c-.88-.29-1.82-.54-2.82-.77l0,0a10.48,10.48,0,0,0,1-1.12H28.9A5.49,5.49,0,0,1,28,11.9,6.88,6.88,0,0,1,26.9,12.91Z"/><path class="cls-1" d="M44.08,5.63c-.11,0-.16.07-.16.13s.05.14.18.22a4.77,4.77,0,0,1,.55.41c0,.05.12.07.25.07a4.1,4.1,0,0,0,1.57-1.15,4.28,4.28,0,0,0,.48-.67,6.37,6.37,0,0,0,.69.7,8,8,0,0,0,1.55,1.06.86.86,0,0,0,.27.05s.11,0,.19-.14a3.6,3.6,0,0,0,.51-.54c.07-.07.12-.13.12-.16s-.05-.05-.14-.09a7.5,7.5,0,0,1-1.82-1,5.82,5.82,0,0,1-.92-.88l0,0a10.59,10.59,0,0,0,.37-2.4c0-.18.07-.29.21-.31s.21-.13.21-.32-.11-.2-.3-.2l-1-.09c-.12,0-.18.07-.18.22a7.15,7.15,0,0,1-.49,3,3.39,3.39,0,0,1-.79,1.21A5.35,5.35,0,0,1,44.08,5.63Z"/><path class="cls-1" d="M41.93,3.94A11.49,11.49,0,0,0,43,2.27c0-.07.11-.13.25-.14s.14,0,.14-.09a.36.36,0,0,0-.12-.2l-1-.58a.19.19,0,0,0-.16.09,10.32,10.32,0,0,1-.44,1.1,6.9,6.9,0,0,1-.71,1l.71.43C41.7,3.92,41.79,3.94,41.93,3.94Z"/><path class="cls-1" d="M36.19,4.07l.92.22a.18.18,0,0,0,.14-.09,7.46,7.46,0,0,0,.42-.7,6.09,6.09,0,0,0,.49-1.6c0-.07.11-.14.25-.2a.25.25,0,0,0,.14-.22c0-.07-.37-.2-1.11-.36-.14,0-.21.05-.21.13a5.68,5.68,0,0,1-.48,1.64,5.4,5.4,0,0,1-.69,1.06A.11.11,0,0,0,36.19,4.07Z"/><path class="cls-1" d="M49.24,3.94A18.31,18.31,0,0,0,50.15,2c0-.07.07-.13.21-.14s.12,0,.12-.11-.05-.13-.14-.2l-1-.58a.12.12,0,0,0-.12.09c-.11.4-.23.81-.39,1.24a5.19,5.19,0,0,1-.58,1.12l.71.43C49,3.92,49.09,3.94,49.24,3.94Z"/><path class="cls-1" d="M36,6c.21.14.39.27.56.41s.11.07.23.07a5.26,5.26,0,0,0,2-1.15,4,4,0,0,0,.76-.86,6.48,6.48,0,0,0,.88.83,9.3,9.3,0,0,0,1.77,1.06,1.17,1.17,0,0,0,.3.05c.05,0,.12,0,.19-.14a2.89,2.89,0,0,0,.51-.54c.07-.07.12-.13.12-.16s-.05-.05-.16-.09a8.49,8.49,0,0,1-2.07-1A7,7,0,0,1,40,3.6a8.25,8.25,0,0,0,.46-2.34c0-.18.07-.29.21-.31s.21-.13.21-.32-.11-.2-.3-.2l-1-.09c-.16,0-.23.07-.23.22a5.81,5.81,0,0,1-.62,3,3.23,3.23,0,0,1-1,1.21,6.61,6.61,0,0,1-1.69,1c-.14,0-.19.07-.19.13S35.85,6,36,6Z"/><path class="cls-1" d="M48.83,12.95H43.11c.18-.34.37-.72.55-1.13h4.06c.18,0,.28-.07.28-.22V8.93c0-.14-.11-.22-.28-.22H39q-.27,0-.27.22v2.66q0,.22.27.22h3.57c-.09.2-.18.36-.25.5s-.25.38-.42.63H37.72c-.19,0-.28.07-.28.2v3.31c0,.14.09.22.28.22h.69c.18,0,.28-.07.28-.22v-.29h9.16v.29c0,.14.09.22.28.22h.69c.18,0,.26-.07.26-.22V13.14C49.09,13,49,12.95,48.83,12.95Zm-8.9-2.12V9.7h6.83v1.12Zm7.93,4.38H38.7V13.92h9.16Z"/><path class="cls-1" d="M35.85,10.41h.71c.18,0,.26-.07.26-.22V7.87H49.52v2.32c0,.14.09.22.28.22h.69c.18,0,.26-.07.26-.22V7c0-.13-.09-.2-.26-.2H35.85c-.18,0-.26.07-.26.2v3.17C35.59,10.33,35.68,10.41,35.85,10.41Z"/><path class="cls-1" d="M43.71,3.73a6.51,6.51,0,0,1,.92.22s.05,0,.11-.07l.34-.61a6.49,6.49,0,0,0,.39-1.4c0-.05.07-.11.19-.16a.25.25,0,0,0,.14-.22c0-.07-.37-.2-1.11-.36-.11,0-.16,0-.16.11a5.4,5.4,0,0,1-.39,1.44,4.65,4.65,0,0,1-.55.92A.14.14,0,0,0,43.71,3.73Z"/><path class="cls-1" d="M56.07,3.24l.53-.77a.52.52,0,0,0,.09-.14c-.32-.27-.69-.58-1.11-.9S54.71.88,54.14.56c-.05,0-.11.05-.16.13a4,4,0,0,0-.53.79,12,12,0,0,1,1.09.59A15.73,15.73,0,0,1,56.07,3.24Z"/><path class="cls-1" d="M55.85,7.17a9.78,9.78,0,0,0,.6-.83.51.51,0,0,0,.09-.14l-1.2-1c-.41-.29-.92-.61-1.55-1,0,0-.09.05-.14.13a3.62,3.62,0,0,0-.55.79,8.44,8.44,0,0,1,1.15.7A14.07,14.07,0,0,1,55.85,7.17Z"/><path class="cls-1" d="M68.48,14.84a.55.55,0,0,0-.25.05,29.9,29.9,0,0,1-4.93.5H59.72a11.15,11.15,0,0,1-1.62-.13,2.31,2.31,0,0,1-1-.38.93.93,0,0,1-.46-.54,2.12,2.12,0,0,1-.21-1.06V8.79c0-.14-.09-.22-.27-.22h-3c-.14,0-.21.11-.21.29v.56c0,.2.07.29.21.29h2v3.58a.76.76,0,0,1-.07.38,11.43,11.43,0,0,1-2.35,1.6.64.64,0,0,0,.09.36c.37.59.6.9.67.9s.11-.05.14-.13a6.81,6.81,0,0,1,1.73-1.8s.05-.05.14-.05l.05.09a3.47,3.47,0,0,0,.65,1,4.85,4.85,0,0,0,1,.59c.39.11.78.22,1.18.31a7.24,7.24,0,0,0,1.27.11H68c.16,0,.25-.11.28-.31a9.75,9.75,0,0,1,.34-1.46S68.57,14.84,68.48,14.84Z"/><path class="cls-1" d="M57.58,3.73h.69c.18,0,.28-.07.28-.22V1.89h8.62V3.51a.19.19,0,0,0,.21.22h.69c.18,0,.27-.07.27-.22V1c0-.13-.09-.2-.27-.2H57.58c-.14,0-.21.07-.21.2V3.51A.19.19,0,0,0,57.58,3.73Z"/><path class="cls-1" d="M67.65,12.17h-4.2V11.11H67c.18,0,.28-.07.28-.22V5.69c0-.13-.11-.2-.28-.2H63.45V4.43h2.9c.09,0,.14-.09.14-.29V3.58c0-.14-.05-.22-.14-.22h-2.9V3c0-.2,0-.31.14-.32s.14-.09.14-.23-.42-.22-1.25-.22c-.14,0-.19.05-.19.14v1H59.44c-.09,0-.12.07-.12.22v.56c0,.2,0,.29.12.29h2.84V5.49H58.82c-.18,0-.26.07-.26.2v5.2q0,.22.26.22h3.46v1.06H58c-.14,0-.19.09-.19.27V13c0,.18.05.27.19.27h4.29v1.33c0,.14.05.22.19.22h.69c.18,0,.28-.07.28-.22V13.29h4.2c.14,0,.21-.09.21-.27v-.58C67.86,12.26,67.79,12.17,67.65,12.17Zm-4.2-5.64H66V7.74H63.45Zm0,2.25H66V10H63.45ZM62.28,10H59.79V8.79h2.49Zm0-2.3H59.79V6.54h2.49Z"/><path class="cls-1" d="M70.21,12.37c.35,1,.58,1.48.69,1.48s.23-.16.41-.49c1.75-.61,3.48-1.28,5.17-2a3.62,3.62,0,0,0,.07-1,.13.13,0,0,0-.14-.14.15.15,0,0,0-.11.05q-1,.43-2,.81V3.44h1.94c.12,0,.19-.09.19-.27V2.59c0-.18-.07-.27-.19-.27H70.82c-.14,0-.21.09-.21.27v.58q0,.27.21.27H73.1V11.5A27,27,0,0,1,70.21,12.37Z"/><path class="cls-1" d="M83.76,13.58h1.68c.18,0,.28-.07.28-.22V4.29c0-.14-.11-.22-.28-.22H81.31q.42-1,.79-2.11h4q.21,0,.21-.27V1.12c0-.18-.07-.27-.21-.27h-9c-.14,0-.19.09-.19.27v.58c0,.18.05.27.19.27h3.67c-.12.4-.25.72-.35,1s-.32.7-.53,1.13H77.58c-.19,0-.28.07-.28.22v9.07c0,.14.09.22.28.22h1.59a11.7,11.7,0,0,1-.86.83,6.7,6.7,0,0,1-1.38.94,4.22,4.22,0,0,1-.94.4.09.09,0,0,0-.07.09s0,.09.12.13l.62.5c0,.09.14.14.3.14a18,18,0,0,0,1.94-1.13,11.32,11.32,0,0,0,1.22-1.08.68.68,0,0,1,.34-.11c.11,0,.16,0,.16-.07s-.05-.14-.14-.25L80,13.58h3.28l-.58.7a19.67,19.67,0,0,0,3.16,2.32,3.44,3.44,0,0,0,.58-.83.61.61,0,0,0,.12-.23A15.42,15.42,0,0,1,83.76,13.58ZM78.54,5.2h5.93V6.9H78.54Zm0,2.81h5.93V9.7H78.54Zm0,4.43V10.82h5.93v1.62Z"/><path class="cls-1" d="M101.72.63h-11a.25.25,0,0,0-.28.29V16.24c0,.14.09.22.28.22h.69c.23,0,.35-.07.35-.22v-.85h9v.85c0,.14.09.22.28.22h.69c.21,0,.34-.07.34-.22V.85C102.05.7,101.93.63,101.72.63Zm-1,13.5h-9V10.89h9Zm0-4.43h-9V6.39h9Zm0-4.5h-9V1.89h9Z"/><rect class="cls-1" x="112.73" y="2.61" width="2.12" height="2.16"/><rect class="cls-1" x="112.73" y="9.83" width="2.12" height="2.16"/><path class="cls-1" d="M123.85,15.83h15.24c.14,0,.21-.11.21-.29v-.7c0-.18-.07-.29-.21-.29h-6.83V7.67h5.81c.12,0,.19-.09.19-.29v-.7c0-.18-.07-.29-.19-.29h-5.81V1.26c0-.22.05-.34.18-.36s.18-.11.18-.27-.46-.22-1.38-.22c-.19,0-.28.07-.28.22V6.39h-6.13c-.14,0-.21.11-.21.29v.7c0,.2.07.29.21.29h6.13v6.88h-7.1c-.14,0-.21.11-.21.29v.7C123.64,15.72,123.71,15.83,123.85,15.83Z"/><path class="cls-1" d="M146.47,7.45l.26.74a.21.21,0,0,0,.21.18l1.39-.43v6.82c0,.83.69,1.26,2.07,1.26H155a1.38,1.38,0,0,0,1.18-.41A6.07,6.07,0,0,0,157,13.5c0-.11-.09-.18-.25-.25a1.9,1.9,0,0,1-.72-.67,5.28,5.28,0,0,1-.64,1.95c-.14.22-.58.31-1.29.31h-3.51c-.65,0-1-.25-1-.77V7.54l1.92-.61v5.44c0,.14.09.22.28.22h.69c.18,0,.28-.07.28-.22V6.54l2.47-.79c0,1.44-.07,2.63-.16,3.58-.07.68-.14,1-.25,1h-.42a5.17,5.17,0,0,1-1-.07c-.05,0-.07.05-.07.14.09.29.16.58.23.86s.18.25.53.25h.69a1,1,0,0,0,.76-.25,3.44,3.44,0,0,0,.55-1.75c.12-1,.23-2.56.34-4.68a1,1,0,0,0-.05-.38l-.23-.23a.23.23,0,0,0-.19-.09l-3.23,1.08V1.48q0-.32.16-.38c.11,0,.18-.09.18-.25s-.44-.22-1.31-.22c-.19,0-.28.07-.28.22V5.63l-1.92.63V2.66a.18.18,0,0,1,.16-.2c.07,0,.11-.09.11-.22s-.07-.11-.19-.13L148.46,2c-.09,0-.12.07-.12.22v4.5l-1.8.59A.21.21,0,0,0,146.47,7.45Z"/><path class="cls-1" d="M141,13.36c.35,1,.58,1.55.71,1.55s.26-.16.48-.49c1.62-.5,3.23-1.06,4.82-1.69a4.22,4.22,0,0,0,.07-1.06c0-.13-.05-.2-.14-.2a.14.14,0,0,0-.09,0c-.74.31-1.52.59-2.31.86v-6h2.07c.14,0,.21-.09.21-.27V5.54c0-.18-.07-.27-.21-.27h-2.07V1.89c0-.22.05-.34.16-.36s.18-.11.18-.27S144.44,1,143.57,1c-.19,0-.28.07-.28.22v4h-1.92c-.14,0-.21.09-.21.27v.58c0,.18.07.27.21.27h1.92v6.37A21.53,21.53,0,0,1,141,13.36Z"/><path class="cls-1" d="M164.72,6.64l.46.61a.38.38,0,0,0,.32.13,6,6,0,0,0,1.31-.88,3.3,3.3,0,0,0,1-1.51,7.52,7.52,0,0,0,.3-2.16V2h2.68V6.45A.65.65,0,0,0,171,7a1.77,1.77,0,0,0,1,.23h1.45a.68.68,0,0,0,.74-.47,16,16,0,0,0,.44-2,.27.27,0,0,0-.25-.27,3.94,3.94,0,0,1-.56-.22,1.38,1.38,0,0,0-.23-.07.09.09,0,0,0-.11.11,9.5,9.5,0,0,1-.19,1.37c-.05.2-.16.29-.32.29h-.35a.85.85,0,0,1-.48-.11c-.11-.05-.14-.16-.14-.32V1.12a.24.24,0,0,0-.26-.27h-4.63c-.19,0-.28.09-.28.27V2.77a5.37,5.37,0,0,1-.26,1.76,4.08,4.08,0,0,1-2,1.85A.32.32,0,0,0,164.72,6.64Z"/><path class="cls-1" d="M174.91,15.43a13.93,13.93,0,0,1-2.54-.81,7.91,7.91,0,0,1-1.64-.92c.14-.13.27-.27.41-.41a9.08,9.08,0,0,0,1.2-1.76,16.08,16.08,0,0,0,1-2.38,2,2,0,0,0-.35-.59.4.4,0,0,0-.28-.11h-6.89q-.21,0-.21.27v.56c0,.2.07.29.21.29h.81a8.67,8.67,0,0,0,.88,2.21,4.86,4.86,0,0,0,1.13,1.66,1,1,0,0,0,.23.23,3.66,3.66,0,0,1-.34.23A8.87,8.87,0,0,1,166,15.07q-.79.24-1.64.43c-.09,0-.12,0-.12.11a.24.24,0,0,0,.09.16c.12.2.26.4.41.59a.36.36,0,0,0,.34.16,12.05,12.05,0,0,0,2.19-.67,12.11,12.11,0,0,0,2.29-1.22,1,1,0,0,0,.23-.18l.48.36a16.88,16.88,0,0,0,2,1c.58.22,1.13.41,1.62.56a2.29,2.29,0,0,0,.32.13s.11-.05.19-.16a5.09,5.09,0,0,1,.62-.63.33.33,0,0,0,.09-.2S175,15.47,174.91,15.43Zm-5.12-2.48a4.52,4.52,0,0,1-.48-.52,6.88,6.88,0,0,1-1-1.69,6.74,6.74,0,0,1-.42-1.17h4a8.31,8.31,0,0,1-.51,1.17,7.59,7.59,0,0,1-1.09,1.71A4.4,4.4,0,0,1,169.79,12.95Z"/><path class="cls-1" d="M161.33,9.51a22,22,0,0,1-2.86,1.19c.35,1,.58,1.48.69,1.48s.23-.16.41-.5c.62-.29,1.24-.61,1.87-1v4.12c0,.41-.26.63-.76.63a7.79,7.79,0,0,1-1.38-.14c-.11,0-.14,0-.14.14a3.28,3.28,0,0,1,.34.83c0,.2,0,.31.14.31h1.18c1.24,0,1.85-.43,1.85-1.28V10c.65-.36,1.32-.76,2-1.17a3.65,3.65,0,0,0,.07-1,.13.13,0,0,0-.14-.13.1.1,0,0,0-.09.05c-.58.36-1.2.72-1.84,1v-4h1.87c.12,0,.19-.09.19-.27V4c0-.18-.07-.29-.19-.29h-1.87V1.62c0-.45.11-.72.35-.83s.19-.05.19-.16-.07-.09-.19-.16l-1.39-.2c-.23,0-.34.05-.34.14a.85.85,0,0,0,.07.34,4.14,4.14,0,0,1,.07.79V3.73h-2.35c-.14,0-.21.11-.21.29v.56q0,.27.21.27h2.35V9.45Z"/><path class="cls-1" d="M192.21,5.91a8.5,8.5,0,0,1-.92-.18,6.64,6.64,0,0,1-1.45-.56,3.57,3.57,0,0,1-.83-.52,3.63,3.63,0,0,1-.9-.83,3.11,3.11,0,0,1-.58-.86,2,2,0,0,1-.18-.49h2.42l-1,1.33q0,.22,1,.49a.16.16,0,0,0,.14-.07l1.73-2.32c0-.09-.12-.23-.37-.42a.6.6,0,0,0-.32-.07h-6.13c.05-.11.12-.22.19-.36a.4.4,0,0,1,.35-.18c.07,0,.12-.05.12-.16a4.47,4.47,0,0,0-1.24-.7.08.08,0,0,0-.07.07,6.32,6.32,0,0,1-.56,1.15,6.64,6.64,0,0,1-1,1.22c-.28.29-.58.54-.87.79a.22.22,0,0,0,.11.18,4.26,4.26,0,0,0,.44.38.32.32,0,0,0,.28.14,14.17,14.17,0,0,0,1.17-1.08c.11-.11.23-.25.35-.4H186c0,.09-.07.16-.11.23a3.32,3.32,0,0,1-.41.68,4.6,4.6,0,0,1-.67.76,4.81,4.81,0,0,1-.92.67,5.38,5.38,0,0,1-.79.36,5.27,5.27,0,0,1-1,.25s-.05.05-.05.07a.33.33,0,0,0,.11.18c.18.22.37.43.55.68a.31.31,0,0,0,.23.11,7.59,7.59,0,0,0,1-.32,5.48,5.48,0,0,0,1-.54,5.33,5.33,0,0,0,.92-.76,5.82,5.82,0,0,0,.67-.88,3.1,3.1,0,0,0,.21-.36.19.19,0,0,0,.05.13,4.24,4.24,0,0,0,.71,1,10.78,10.78,0,0,0,1,.86,8.89,8.89,0,0,0,1.31.83,5.38,5.38,0,0,0,1.64.58.37.37,0,0,0,.3-.14,6.33,6.33,0,0,1,.58-.68c.05,0,.09-.09.09-.22S192.28,5.94,192.21,5.91Z"/><path class="cls-1" d="M177,2.11h3.58c.12,0,.19-.09.19-.29v-.7a.18.18,0,0,0-.19-.2H177c-.14,0-.21.07-.21.2v.7C176.74,2,176.81,2.11,177,2.11Z"/><path class="cls-1" d="M191.38,15.56c-1-.2-1.66-.38-2.14-.52a9.44,9.44,0,0,1-1.5-.61h1.41c.18,0,.28-.07.28-.22V6.82c0-.14-.11-.22-.28-.22h-9.52c-.19,0-.28.07-.28.22v7.38c0,.14.09.22.28.22h1.48a12.29,12.29,0,0,1-1.92.77c-.65.22-1.43.43-2.31.65-.14,0-.21.05-.21.13a.4.4,0,0,0,.11.22,1.51,1.51,0,0,1,.39.45.24.24,0,0,0,.26.16,36.41,36.41,0,0,0,5-1.53c0-.07.14-.09.37-.09s.18-.05.18-.13a2.78,2.78,0,0,0-.56-.63h4.7c-.41.36-.6.59-.6.7a.7.7,0,0,0,.12.09,22.74,22.74,0,0,0,4,1.42l.25,0a3.75,3.75,0,0,0,.76-1S191.5,15.59,191.38,15.56ZM180.61,7.67h7.57V8.93h-7.57Zm0,2.32h7.57v1.12h-7.57Zm0,3.37V12.17h7.57v1.19Z"/><path class="cls-1" d="M177.5,7.6c.09,0,.14-.07.14-.22a.3.3,0,0,1,.14-.27q.74-.4,1.27-.76a19.48,19.48,0,0,0,2-1.48c.07,0,.12-.07.12-.11s-.14-.34-.39-.92c0-.07-.07-.13-.11-.13a.19.19,0,0,0-.12.05c-.35.29-.76.59-1.24.92a15,15,0,0,1-1.66,1,11.42,11.42,0,0,1-1.22.54c-.07,0-.11.07-.11.11a.27.27,0,0,0,.11.2A5,5,0,0,0,177.5,7.6Z"/><path class="cls-1" d="M200.94.85h-5.79c-.19,0-.28.07-.28.2V16.38c0,.14.09.22.28.22h.69c.18,0,.28-.07.28-.22V7h4.82a.25.25,0,0,0,.28-.29V1C201.23.92,201.12.85,200.94.85Zm-1,5.06h-3.85V4.43H200Zm0-2.54h-3.85V1.89H200Z"/><path class="cls-1" d="M206.73,11.52h-2.42V9.42h1.59c.09,0,.14-.09.14-.27V8.57c0-.13-.05-.2-.14-.2h-7.64c-.11,0-.14.07-.14.2v.58c0,.18,0,.27.14.27h1.64v1.53c0,.18,0,.38,0,.58h-2.45c-.11,0-.14.07-.14.22v.56c0,.2,0,.29.14.29h2.29a2.89,2.89,0,0,1-.16.59,5,5,0,0,1-2.49,2.36.34.34,0,0,0,.12.23c.14.16.3.36.46.58a.43.43,0,0,0,.32.11,7.83,7.83,0,0,0,1.55-1.08,3.86,3.86,0,0,0,1.2-1.84,6.84,6.84,0,0,0,.21-1h2.21v3.58a.19.19,0,0,0,.21.22h.69q.26,0,.26-.22V12.58h2.42c.09,0,.14-.09.14-.29v-.56C206.87,11.59,206.82,11.52,206.73,11.52Zm-3.58,0h-2.08c0-.18,0-.38,0-.59V9.42h2.07Z"/><path class="cls-1" d="M208.73.85h-5.58c-.19,0-.28.07-.28.2V6.61c0,.2.09.29.28.29h4.7v7.29a.77.77,0,0,1-.34.68,4,4,0,0,1-1.78.22c-.11,0-.16,0-.16.11a3.24,3.24,0,0,1,.39,1.12.21.21,0,0,0,.23.22,6.88,6.88,0,0,0,2-.49,1.49,1.49,0,0,0,.85-1.33V1C209.08.92,209,.85,208.73.85Zm-.88,5h-3.73V4.43h3.73Zm0-2.47h-3.73V1.89h3.73Z"/><path class="cls-1" d="M224.67,5.54h-3.94a.19.19,0,0,0-.21.22V6.82A5.28,5.28,0,0,1,220.4,8a2.3,2.3,0,0,1-1,1.19.31.31,0,0,0,.11.22c.14.18.3.38.48.58a.42.42,0,0,0,.32.11,4,4,0,0,0,.69-.59,2.77,2.77,0,0,0,.53-1,6.3,6.3,0,0,0,.16-1.48V6.61h2.07V9.36a.34.34,0,0,0,.19.34,2,2,0,0,0,.9.14H226a.73.73,0,0,0,.74-.36,12,12,0,0,0,.42-1.55.27.27,0,0,0-.23-.27,5.44,5.44,0,0,1-.58-.22,1.36,1.36,0,0,0-.21-.07c-.09,0-.12,0-.12.07a8.87,8.87,0,0,1-.18,1,.32.32,0,0,1-.32.2h-.14a.72.72,0,0,1-.39-.07c-.07,0-.11-.07-.11-.18V5.76C224.93,5.62,224.85,5.54,224.67,5.54Z"/><path class="cls-1" d="M225.25,4.37a11.16,11.16,0,0,0,1.27-1,.38.38,0,0,1,.28-.09c.14,0,.21,0,.21-.14a.35.35,0,0,0-.19-.31l-.92-.68s-.05,0-.09.09a5.45,5.45,0,0,1-.56.74,4.41,4.41,0,0,1-.78.65,2.53,2.53,0,0,1-.26.2A7.58,7.58,0,0,1,223,2.84a8.18,8.18,0,0,0,1.43-1.08.4.4,0,0,1,.27-.07c.12,0,.19,0,.19-.14a.43.43,0,0,0-.18-.31l-.92-.68s-.05,0-.09.07a4.18,4.18,0,0,1-.55.7,4.59,4.59,0,0,1-.74.58l-.18.13A13.33,13.33,0,0,1,221.16.49.34.34,0,0,0,221,.41c-.65.22-1,.36-1,.43a14.39,14.39,0,0,0,1.48,2.07,10.25,10.25,0,0,0,1.54,1.42,13.31,13.31,0,0,0,1.8,1.15,13.4,13.4,0,0,0,2.35.9q.21,0,.26-.11a4.18,4.18,0,0,1,.49-.61.19.19,0,0,0,.14-.18,12.46,12.46,0,0,1-1.8-.63A9.68,9.68,0,0,1,225.25,4.37Z"/><path class="cls-1" d="M211.82,6.39a.3.3,0,0,0,.3.14,11,11,0,0,0,1.78-.41v.27c0,.2.07.29.21.29h3.32V8.79h-2.56a11.45,11.45,0,0,0-1-.49c-.09,0-.12.07-.12.18-.07.63-.16,1.22-.26,1.8a11.58,11.58,0,0,1-.39,1.51c-.07.25-.19.65-.39,1.15,0,.07,0,.11.14.13a7.36,7.36,0,0,0,.81.18.73.73,0,0,0,.28,0s.05,0,.09-.14c.07-.27.16-.56.25-.85h3.35a12.56,12.56,0,0,1-.16,1.67,2.75,2.75,0,0,1-.34,1.13.81.81,0,0,1-.78.36,10.73,10.73,0,0,1-1.92-.2v.13a2.9,2.9,0,0,1,.53,1c0,.23.49.36,1.39.36s1.43-.2,1.64-.59a5.37,5.37,0,0,0,.51-1.64,24.65,24.65,0,0,0,.19-3,.19.19,0,0,0-.21-.22h-4c.07-.4.16-.83.23-1.33h3.58a.25.25,0,0,0,.28-.29V5.76c0-.14-.11-.22-.28-.22h-2.88l.67-.34a6.82,6.82,0,0,0,1.4-.94A7.83,7.83,0,0,0,218.58,3a9.47,9.47,0,0,0,.92-1.67,1.71,1.71,0,0,0-.34-.47.52.52,0,0,0-.28-.09H214c-.11,0-.14.07-.14.22v.56c0,.18,0,.27.14.27h3.88a4.42,4.42,0,0,1-.32.52,4.59,4.59,0,0,1-1,1.17,6.81,6.81,0,0,1-.78.58c-.25-.22-.53-.45-.85-.74a15.28,15.28,0,0,0-1.4-.88.16.16,0,0,0-.14.11,3.61,3.61,0,0,0-.48.72,11.93,11.93,0,0,1,1,.63,10.82,10.82,0,0,1,.88.7,8.25,8.25,0,0,1-2,.7,12.93,12.93,0,0,1-1.45.29c-.07,0-.11,0-.11.07a.19.19,0,0,0,.09.16A5,5,0,0,0,211.82,6.39Z"/><path class="cls-1" d="M227.12,15.66a14,14,0,0,1-2.15-.58,6,6,0,0,1-.88-.36,4.73,4.73,0,0,0,.41-.43,6.69,6.69,0,0,0,.92-1.31,12.44,12.44,0,0,0,.78-1.8,1.69,1.69,0,0,0-.34-.47.53.53,0,0,0-.28-.09h-6c-.11,0-.14.07-.14.2v.58c0,.18,0,.27.14.27H220a6,6,0,0,0,.74,1.55,3.79,3.79,0,0,0,1,1.24,3.19,3.19,0,0,0,.42.36,8.82,8.82,0,0,1-1.57.68c-.41.11-.81.22-1.22.31-.07,0-.09,0-.09.09s0,.07.09.14a5,5,0,0,0,.37.56.33.33,0,0,0,.3.14,10.81,10.81,0,0,0,1.64-.5,10.24,10.24,0,0,0,1.47-.76,14.59,14.59,0,0,0,1.64.74l1.38.43a1.34,1.34,0,0,0,.28.09s.11-.05.19-.16a5.2,5.2,0,0,1,.62-.63.33.33,0,0,0,.09-.2S227.23,15.68,227.12,15.66Zm-4.06-1.57a3.36,3.36,0,0,1-.69-.56,4.91,4.91,0,0,1-.88-1.21,2.3,2.3,0,0,1-.3-.67h3.53c-.11.25-.19.45-.28.63a5.1,5.1,0,0,1-.81,1.26C223.45,13.74,223.27,13.92,223.06,14.1Z"/><path class="cls-1" d="M237,8.8c.67.76,1.18,1.4,1.55,1.91l1-.92A26.84,26.84,0,0,0,236,6l-.81,1A20.4,20.4,0,0,1,237,8.8Z"/><path class="cls-1" d="M257.08,16.6h.69c.18,0,.27-.07.27-.22V2.11h3l-2.33,4.57a1.05,1.05,0,0,0-.07.29s0,.09.14.16a8.38,8.38,0,0,1,2,2.38,4.25,4.25,0,0,1,.62,2,2.86,2.86,0,0,1-.28,1.37c-.19.32-.67.47-1.45.47l-1-.14s-.05.11-.05.29.16.61.21.86.28.32.81.32a2.93,2.93,0,0,0,2.38-.88,3.06,3.06,0,0,0,.65-2.14,5.39,5.39,0,0,0-.55-2.23,10.27,10.27,0,0,0-2-2.45.22.22,0,0,1-.11-.16.9.9,0,0,1,0-.22l2.45-4.79a1.29,1.29,0,0,0-.39-.7,1,1,0,0,0-.56-.13h-4.56c-.19,0-.28.09-.28.27V16.38C256.8,16.53,256.89,16.6,257.08,16.6Z"/><path class="cls-1" d="M255.83,2.32c.07-.14.16-.22.28-.22s.21,0,.21-.14-.07-.14-.21-.22l-1-.49s-.05.05-.05.14A17,17,0,0,1,253.83,4a11.7,11.7,0,0,1-1.11,1.6h-.88V3.24h1.85c.14,0,.21-.09.21-.29V2.39c0-.18-.07-.29-.21-.29h-1.85V1c0-.22.05-.34.18-.36s.16-.11.16-.27-.44-.2-1.31-.2c-.18,0-.26.07-.26.2V2.11h-2.49c-.14,0-.21.11-.21.29V3c0,.2.07.29.21.29h2.49V5.62h-3.53c-.14,0-.19.11-.19.29v.56c0,.2.05.29.19.29h4.61a14.07,14.07,0,0,1-2.54,2A16.56,16.56,0,0,1,246.66,10a8.35,8.35,0,0,1,.6.85c0,.09.11.13.3.13a16.12,16.12,0,0,0,1.52-.76v6c0,.14.09.22.26.22H250c.18,0,.28-.07.28-.22v-.49h4v.49a.19.19,0,0,0,.21.22h.69c.18,0,.28-.07.28-.22V9.07c0-.14-.11-.22-.28-.22h-4.13c.27-.2.53-.41.81-.67a11.61,11.61,0,0,0,1.36-1.44H256c.14,0,.21-.09.21-.29V5.91c0-.18-.07-.29-.21-.29h-1.91a2.58,2.58,0,0,0,.21-.32A18.45,18.45,0,0,0,255.83,2.32Zm-1.52,12.3h-4V12.8h4Zm0-4.63v1.75h-4V10Z"/><path class="cls-1" d="M265,4.07h15.31q.21,0,.21-.27V3.1a.19.19,0,0,0-.21-.22h-6.76V1c0-.22.05-.34.18-.36s.18-.11.18-.27-.46-.2-1.38-.2c-.19,0-.28.07-.28.2V2.88H265a.19.19,0,0,0-.21.22v.7Q264.79,4.07,265,4.07Z"/><path class="cls-1" d="M273.73,5.19c.11,0,.18-.11.18-.27s-.46-.2-1.38-.2c-.19,0-.28.07-.28.2v2h-5.58c-.19,0-.28.07-.28.2v7.6c0,.14.09.22.28.22h.69c.21,0,.34-.07.34-.22V8.08h4.55v8.44c0,.14.09.22.28.22h.69c.21,0,.34-.07.34-.22V8.08h4.34v5c0,.14-.11.23-.3.29a9.45,9.45,0,0,1-1.66.07c-.12,0-.18,0-.18.05a3.47,3.47,0,0,1,.44,1.19.23.23,0,0,0,.25.22,8.76,8.76,0,0,0,2-.25c.53-.14.81-.38.81-.67V7.17c0-.18-.12-.27-.35-.27h-5.31V5.54C273.55,5.33,273.6,5.2,273.73,5.19Z"/><path class="cls-1" d="M13,53.18a26.53,26.53,0,0,1-3.05-.5,11,11,0,0,1-2.38-.83c-.18-.07-.34-.16-.51-.25a1.83,1.83,0,0,1,.18-.22,4.13,4.13,0,0,0,.92-1.87,5.07,5.07,0,0,0,.18-1h4V49c0,.14.09.22.28.22h.69c.18,0,.28-.07.28-.22V41.94c0-.14-.11-.22-.28-.22H8.47l0-1.4v-.07h6.62c.12,0,.19-.09.19-.29V39.4c0-.18-.07-.29-.19-.29H.62c-.14,0-.19.11-.19.29V40c0,.2.05.29.19.29H7.24v.56l0,.92H2.35a.25.25,0,0,0-.28.29v7c0,.14.09.22.28.22H3c.18,0,.28-.07.28-.22v-.49H7.1a3.67,3.67,0,0,1-.23.9,2.51,2.51,0,0,1-.67,1.26.42.42,0,0,1-.14.16,0,0,0,0,1,0,0A4.07,4.07,0,0,1,5,49.52,4.94,4.94,0,0,0,3.87,50a8.78,8.78,0,0,0,1.36,1.69,3.18,3.18,0,0,1-.48.31,7.67,7.67,0,0,1-2,1,13.53,13.53,0,0,1-2.37.54c-.07,0-.11,0-.11.09s0,.05.12.09a6.41,6.41,0,0,1,.49.86.23.23,0,0,0,.21.18,7.22,7.22,0,0,0,1.48-.34,13.14,13.14,0,0,0,3-1.48,7.3,7.3,0,0,0,.6-.45,4.8,4.8,0,0,0,.85.49,14.43,14.43,0,0,0,2.49.94,20.32,20.32,0,0,0,2.51.54c.79.11,1.75.22,2.84.31.05,0,.09-.07.12-.22s.23-.54.35-.83a.65.65,0,0,0,.14-.31A20.87,20.87,0,0,1,13,53.18ZM8.46,42.84h3.88v1.76H8.44Zm0,2.9h3.9v1.67H8.42Zm-5.12-2.9H7.2l0,1.76H3.32Zm0,4.57V45.74H7.19l0,1.67Z"/><path class="cls-1" d="M17.72,41.37h1.34c-.39.22-.58.36-.58.43a12,12,0,0,1,.71,1.66,12.68,12.68,0,0,1,.34,1.22,3.53,3.53,0,0,0,1.17-.36c-.14-.52-.3-1-.48-1.48s-.39-.94-.65-1.48h3.8s0,0,0,.07a7.11,7.11,0,0,1-.46,1.39A8.38,8.38,0,0,1,22.24,44a.27.27,0,0,0,0,.14s0,0,.12.07l.64.31a.51.51,0,0,0,.28.11s.07-.05.14-.18a12.06,12.06,0,0,0,.9-2.25c0-.13.09-.2.19-.2a.19.19,0,0,0,.14-.18c0-.09-.09-.16-.23-.23l-.65-.27h1.71c.07,0,.12-.09.12-.27v-.58c0-.13-.05-.2-.12-.2H22.14V39.12c0-.22.05-.34.18-.36s.18-.11.18-.27-.44-.22-1.32-.22c-.18,0-.27.07-.27.22v1.84H17.72c-.11,0-.14.07-.14.2v.58C17.58,41.28,17.62,41.37,17.72,41.37Z"/><path class="cls-1" d="M30.54,40.34a8,8,0,0,0,2.07-.68.85.85,0,0,1,.23,0l.41.2c.14,0,.21-.09.21-.27s-.28-.45-.85-1a.3.3,0,0,0-.19-.11.36.36,0,0,0-.21.09,7.16,7.16,0,0,1-2.21.76,17.9,17.9,0,0,1-2.82.22H27c-.19,0-.28.07-.28.22v5.91a32.69,32.69,0,0,1-.18,3.53A17.11,17.11,0,0,1,26,51.85a7.73,7.73,0,0,1-.83,1.91.41.41,0,0,0,.07.25,2.77,2.77,0,0,1,.64.49.46.46,0,0,0,.19,0,8.16,8.16,0,0,0,.83-1.6,13.14,13.14,0,0,0,.74-2.77,29.35,29.35,0,0,0,.28-4.48V44.9h2.49v9.49c0,.14.09.22.27.22h.71c.18,0,.26-.07.26-.22V44.9h1.59c.14,0,.21-.09.21-.29V44c0-.18-.07-.29-.21-.29H27.93V40.59A14,14,0,0,0,30.54,40.34Z"/><path class="cls-1" d="M18.08,53.39a12.59,12.59,0,0,0,1.41-1.13,14.38,14.38,0,0,0,1.17-1.35c0-.07.11-.14.18-.25v3.8c0,.14.09.22.28.22h.69c.18,0,.26-.07.26-.22V50.19c.14.18.28.36.42.52a7.71,7.71,0,0,0,1.57,1.35.64.64,0,0,0,.28.07.29.29,0,0,0,.18-.13,2.91,2.91,0,0,0,.46-.5c.07-.05.12-.11.12-.14s-.05-.09-.16-.13a7.63,7.63,0,0,1-1.85-1.35,5.31,5.31,0,0,1-.78-.92h2.51c.14,0,.21-.09.21-.27v-.58q0-.27-.21-.27H22.07v-2h3.11c.14,0,.21-.09.21-.27V45q0-.27-.21-.27H17.94q-.21,0-.21.27v.58c0,.18.07.27.21.27h2.9v2H18.2c-.14,0-.19.09-.19.27v.58c0,.18.05.27.19.27h2.3a13.35,13.35,0,0,1-1,1.48,8.18,8.18,0,0,1-1.31,1.31,7.51,7.51,0,0,1-1.08.74.48.48,0,0,0,.05.18c.19.18.41.38.62.61A.38.38,0,0,0,18.08,53.39Z"/><path class="cls-1" d="M41,45a20.34,20.34,0,0,1,1.84,1.82c.67.76,1.18,1.4,1.55,1.91l1-.92A26.82,26.82,0,0,0,41.79,44Z"/><path class="cls-1" d="M68.62,42.36h-1V40c0-.14-.09-.22-.27-.22H63.85v-.7c0-.22.05-.34.18-.36s.18-.11.18-.27-.44-.22-1.31-.22c-.19,0-.28.07-.28.22v1.33H59.51c-.14,0-.19.11-.19.29v.56c0,.2.05.29.19.29h3.11v1.4H58.27c-.14,0-.21.11-.21.29v.56c0,.2.07.29.21.29h4.34v1.4H59.37c-.14,0-.19.09-.19.27v.58c0,.18.05.27.19.27h3.25v1.4H59.37c-.14,0-.19.11-.19.29v.56c0,.2.05.29.19.29h3.25V50H58.27q-.21,0-.21.27v.58c0,.18.07.27.21.27h4.34v1.21c0,.14.09.2.28.2h.69c.18,0,.26-.05.26-.2V51.14h4.41c.14,0,.21-.09.21-.27V50.3q0-.27-.21-.27H63.85V48.55h3.46c.12,0,.19-.09.19-.29V47.7c0-.18-.07-.29-.19-.29H63.85V46h3.46a.24.24,0,0,0,.27-.27V43.49h1c.14,0,.21-.09.21-.29v-.56C68.83,42.46,68.76,42.36,68.62,42.36ZM66.34,44.9H63.85v-1.4h2.49Zm0-2.54H63.85V41h2.49Z"/><path class="cls-1" d="M53.65,46.93a.37.37,0,0,0,.32-.18l.55-.88h2.31c-.12,1-.25,1.73-.35,2.34a15.2,15.2,0,0,1-.53,1.85c-.09.23-.19.47-.3.72a3.21,3.21,0,0,1-.34-.7,8.1,8.1,0,0,1-.55-2.23.28.28,0,0,0-.32-.22h-.64c-.16,0-.23.07-.23.22A9.7,9.7,0,0,0,54.37,51a5.66,5.66,0,0,0,.56,1,5.42,5.42,0,0,1-.69.85,6.6,6.6,0,0,1-1.29,1c-.05,0-.07.05-.07.13s0,.05.11.13a5.78,5.78,0,0,1,.67.49.31.31,0,0,0,.26.16,10.39,10.39,0,0,0,1.13-1,9.09,9.09,0,0,0,.67-.81,5,5,0,0,0,1,.68,5.55,5.55,0,0,0,1.54.5c1.2.13,3.05.2,5.6.2,2.33,0,3.81,0,4.43-.07a.27.27,0,0,0,.28-.2,5.14,5.14,0,0,1,.32-1,.81.81,0,0,0,.09-.23c-2.44.2-4.13.29-5.12.29-1.91,0-3.37,0-4.4-.09a5.5,5.5,0,0,1-1.24-.2,3.51,3.51,0,0,1-1.25-.49,2.46,2.46,0,0,1-.58-.49,6.5,6.5,0,0,0,.28-.61c.21-.54.37-1,.49-1.46a17.88,17.88,0,0,0,.48-2c.11-.65.19-1.46.3-2.45,0-.09-.11-.22-.3-.38a.56.56,0,0,0-.32-.11H55.22l2.65-4.23c0-.11-.12-.25-.37-.47a.47.47,0,0,0-.34-.09H53.31c-.14,0-.21.11-.21.29v.56c0,.2.07.29.21.29h2.84l-3.46,5.35Q52.69,46.66,53.65,46.93Z"/><path class="cls-1" d="M77.37,45.87a.24.24,0,0,0-.11,0c-.74.18-1.52.34-2.31.49V44h2.21c.09,0,.14-.09.14-.29V43.2c0-.14-.05-.22-.14-.22H71.51c-.11,0-.14.07-.14.22v.56c0,.2,0,.29.14.29h2.21v2.57c-1.13.2-2.08.34-2.9.45.32.9.51,1.33.62,1.33s.19-.13.35-.41c1.91-.32,3.78-.7,5.65-1.13a2.63,2.63,0,0,0,.07-.85A.13.13,0,0,0,77.37,45.87Z"/><path class="cls-1" d="M86.38,45.09a2.54,2.54,0,0,1-.56-.2,1.36,1.36,0,0,0-.23-.07c-.09,0-.12,0-.12.09a7.48,7.48,0,0,1-.21,1.26.36.36,0,0,1-.35.27h-.35a.52.52,0,0,1-.37-.09.19.19,0,0,1-.11-.2v-3c0-.14-.11-.22-.28-.22H78.34a.19.19,0,0,0-.21.22v.56c0,.2.07.29.21.29h1.38v.31c0,.16,0,.32,0,.5l-1-.4c-.07,0-.12.05-.19.16a3.21,3.21,0,0,0-.35.83l1.09.45a3.94,3.94,0,0,1-1.71,1,.35.35,0,0,0,.11.23c.14.18.3.36.48.56a.37.37,0,0,0,.32.13,6,6,0,0,0,1.24-.67,3.34,3.34,0,0,0,.76-.74c.42.22.81.43,1.17.63.18,0,.37-.18.6-.58a.69.69,0,0,0,.09-.27,15.28,15.28,0,0,0-1.47-.85,4.78,4.78,0,0,0,.09-.92V44h2v3a.4.4,0,0,0,.18.38,2.06,2.06,0,0,0,.92.16h1.38a.79.79,0,0,0,.79-.41,12.57,12.57,0,0,0,.44-1.84A.29.29,0,0,0,86.38,45.09Z"/><path class="cls-1" d="M78.49,40.32v-.56c0-.14-.05-.22-.14-.22H74.23a3,3,0,0,1,.16-.36c0-.09.09-.14.23-.14a.18.18,0,0,0,.14-.2c0-.07-.07-.14-.19-.25l-1.2-.45s-.07,0-.11.09a10.31,10.31,0,0,1-.53,1.39,4.73,4.73,0,0,1-.58,1,5.65,5.65,0,0,1-1.27,1.33.16.16,0,0,0-.05.11s0,.05.11.09l.69.27a1.15,1.15,0,0,0,.37.05,5.94,5.94,0,0,0,.88-.77c.27-.32.53-.67.78-1a.06.06,0,0,0,0,0h1a19,19,0,0,1,1.29,1.84,1.74,1.74,0,0,0,.92-.41c.07,0,.12-.11.12-.29-.28-.38-.6-.76-.92-1.13h2.29C78.43,40.59,78.49,40.5,78.49,40.32Z"/><path class="cls-1" d="M79.33,48.53c.11,0,.18-.11.18-.27S79.07,48,78.2,48c-.19,0-.28.07-.28.22v.92H71.11c-.11,0-.14.07-.14.22V50c0,.2,0,.29.14.29h6.07a9.61,9.61,0,0,1-1.17.88,14.15,14.15,0,0,1-2.19,1,26.17,26.17,0,0,1-2.67.74c0,.05.05.13.16.23s.41.43.58.65.14.23.23.23a10.66,10.66,0,0,0,1.62-.52,16.64,16.64,0,0,0,2.12-1,12.24,12.24,0,0,0,1.64-1.13,2.67,2.67,0,0,0,.41-.31v3.38c0,.14.09.22.28.22h.69c.18,0,.28-.07.28-.22V51c.53.47,1,.85,1.32,1.1a19.94,19.94,0,0,0,1.84,1,20.87,20.87,0,0,0,3,1A6.55,6.55,0,0,0,85.79,53c0-.07-.05-.11-.16-.11a11.58,11.58,0,0,1-2.38-.63,7.54,7.54,0,0,1-2.07-1.06,7.1,7.1,0,0,1-1.29-.94h5.95c.09,0,.14-.09.14-.29V49.4c0-.14-.05-.22-.14-.22H79.17v-.29C79.17,48.68,79.23,48.55,79.33,48.53Z"/><path class="cls-1" d="M86.55,40.32v-.56c0-.14-.05-.22-.14-.22h-5.1l.19-.5c0-.07.09-.13.21-.13a.22.22,0,0,0,.14-.22c0-.05-.07-.14-.19-.25L80.48,38a.11.11,0,0,0-.11.09,9.9,9.9,0,0,1-.48,1.46,5.61,5.61,0,0,1-.55,1A6.57,6.57,0,0,1,78.19,42s-.05.05-.05.09,0,.07.11.11c.23.09.46.18.69.25a.81.81,0,0,0,.37.07,7.12,7.12,0,0,0,.81-.83,10.26,10.26,0,0,0,.71-1.08H82a17.2,17.2,0,0,1,1.29,1.76,1.74,1.74,0,0,0,.92-.41c.07,0,.12-.11.12-.29-.28-.36-.58-.7-.9-1.06h3C86.5,40.59,86.55,40.5,86.55,40.32Z"/><path class="cls-1" d="M88.55,53.83h15.24c.14,0,.21-.11.21-.29v-.7c0-.18-.07-.29-.21-.29H97V45.67h5.81c.12,0,.19-.09.19-.29v-.7c0-.18-.07-.29-.19-.29H97V39.26c0-.22.05-.34.18-.36s.18-.11.18-.27-.46-.22-1.38-.22c-.19,0-.28.07-.28.22v5.76H89.52c-.14,0-.21.11-.21.29v.7c0,.2.07.29.21.29h6.13v6.88h-7.1c-.14,0-.21.11-.21.29v.7C88.33,53.72,88.41,53.83,88.55,53.83Z"/><path class="cls-1" d="M106.46,51.92a19.47,19.47,0,0,0,3-2.32,25.69,25.69,0,0,0,2.42-2.74c.42-.58.94-1.33,1.5-2.23v9.76c0,.14.09.22.28.22h.69c.21,0,.34-.07.34-.22V45.11a13.6,13.6,0,0,0,.79,1.3,14.1,14.1,0,0,0,2.29,2.9,13.39,13.39,0,0,0,3.05,2.41s.09-.05.18-.16a7.87,7.87,0,0,1,.67-.76c.12,0,.19-.11.19-.22A9.31,9.31,0,0,1,119.37,49a13.53,13.53,0,0,1-2.52-2.74,23.07,23.07,0,0,1-2.1-3.38h6.69c.14,0,.21-.09.21-.27v-.7a.19.19,0,0,0-.21-.22h-6.76V39c0-.22.05-.34.18-.36s.18-.11.18-.27-.46-.2-1.38-.2c-.19,0-.28.07-.28.2v3.31h-7.24a.19.19,0,0,0-.21.22v.7c0,.18.07.27.21.27h6.73a39.37,39.37,0,0,1-2.45,3.69,15.91,15.91,0,0,1-2.74,2.77,16.08,16.08,0,0,1-2.29,1.57.48.48,0,0,0,.05.18l.72.67A.38.38,0,0,0,106.46,51.92Z"/><path class="cls-1" d="M123.78,53.61h15.31c.14,0,.21-.11.21-.29v-.7c0-.13-.07-.2-.21-.2h-7V40.74h5.79c.12,0,.19-.09.19-.27v-.7c0-.14-.07-.22-.19-.22h-13c-.14,0-.19.07-.19.22v.7c0,.18.05.27.19.27h5.93V52.42h-7c-.14,0-.21.07-.21.2v.7C123.57,53.5,123.64,53.61,123.78,53.61Z"/><path class="cls-1" d="M153.09,50.24h3.32c.12,0,.19-.09.19-.29V49.4c0-.18-.07-.29-.19-.29h-3.32v-2.5l.71-.11a17,17,0,0,0,1.94-.43,1.16,1.16,0,0,1,.32-.05l.48.14a.19.19,0,0,0,.21-.22c0-.13-.32-.47-1-1a.59.59,0,0,0-.28-.07l-.16,0a7.11,7.11,0,0,1-1.84.61,11.39,11.39,0,0,1-1.87.27,20.18,20.18,0,0,1-2.49.13l-1-.07A.19.19,0,0,0,148,46c.18.25.34.49.49.68s.14.23.34.23q1.11,0,2.49-.11a2.94,2.94,0,0,0,.55-.05v2.34h-3.46c-.14,0-.19.11-.19.29V50c0,.2.05.29.19.29h3.46v2.45H147.7c-.14,0-.19.11-.19.29v.56c0,.18.05.29.19.29h9.39c.12,0,.19-.11.19-.29V53c0-.18-.07-.29-.19-.29h-4Z"/><path class="cls-1" d="M155.91,38.77h-6.69c-.18,0-.27.07-.27.22v4.63c0,.14.09.22.27.22h6.69c.18,0,.28-.07.28-.22V39C156.19,38.85,156.09,38.77,155.91,38.77Zm-1,4.07h-4.77V39.76H155Z"/><path class="cls-1" d="M141.49,50.68a.33.33,0,0,0,.28.13,13.86,13.86,0,0,0,1.2-1.75c.34-.63.65-1.31,1-2.05l.18-.47v7.85a.19.19,0,0,0,.21.22H145c.18,0,.28-.07.28-.22V46a3.21,3.21,0,0,0,.26.56,8.62,8.62,0,0,0,1.24,1.85.34.34,0,0,0,.21.13c.05,0,.12-.05.19-.16a2.87,2.87,0,0,0,.51-.54c.07-.05.12-.11.12-.14a.19.19,0,0,0-.12-.16,8.12,8.12,0,0,1-1.45-1.94,12.14,12.14,0,0,1-.69-1.55h2.12c.14,0,.21-.09.21-.29V43.2c0-.18-.07-.29-.21-.29h-2.4V40.27a7.38,7.38,0,0,0,2.07-.86l.48.07c.09,0,.14-.07.14-.22a9,9,0,0,0-.72-.92c-.11-.07-.18-.13-.25-.13a.49.49,0,0,0-.23.07,5.17,5.17,0,0,1-2.44,1,13.68,13.68,0,0,1-2.91.22c-.14,0-.21.09-.21.27a6.93,6.93,0,0,1,.39.68.28.28,0,0,0,.3.23,11.27,11.27,0,0,0,2.21-.2v2.38h-2.82c-.14,0-.21.11-.21.29v.56c0,.2.07.29.21.29h2.45c-.42,1.22-.74,2.11-1,2.63a14.68,14.68,0,0,1-1.08,2.05,11.51,11.51,0,0,1-.9,1.15.49.49,0,0,0,.05.18Z"/><path class="cls-1" d="M167.77,43.17,172,39.62c0-.11-.12-.27-.35-.49a.47.47,0,0,0-.34-.09h-10.2c-.14,0-.21.11-.21.29v.56c0,.2.07.29.21.29h8.53L167.3,42.1l-.69-.31c-.19,0-.28.07-.28.22v2.59h-1.78c-.14,0-.21.11-.21.29v.56c0,.2.07.29.21.29h1.78v1.4h-2.21q-.21,0-.21.27V48c0,.18.07.27.21.27h2.21v1.48h-3c-.14,0-.21.11-.21.29v.56c0,.2.07.29.21.29h3v1.89c0,.41-.44.63-1.31.63a9.59,9.59,0,0,1-1.24-.13c-.05,0-.07,0-.07.13a2.1,2.1,0,0,1,.28.83c0,.2.05.31.12.31h.9c1.69,0,2.54-.43,2.54-1.26v-2.4h2.63c.14,0,.21-.09.21-.29V50c0-.18-.07-.29-.21-.29h-2.63V48.26h2c.12,0,.19-.09.19-.27v-.58c0-.18-.07-.27-.19-.27h-2v-1.4h1.59c.14,0,.21-.09.21-.29V44.9c0-.18-.07-.29-.21-.29h-1.59V43.26A.28.28,0,0,0,167.77,43.17Z"/><path class="cls-1" d="M159.49,53.54a9.34,9.34,0,0,0,1.17-1,5.67,5.67,0,0,0,.85-1.08,10.67,10.67,0,0,0,.76-1.49,12,12,0,0,0,.49-1.46c.19-.67.35-1.35.49-2.05s.21-1.46.32-2.47c0-.09-.11-.22-.3-.4a.86.86,0,0,0-.32-.09h-3.87c-.14,0-.21.09-.21.27v.56c0,.2.07.29.21.29h3.3c-.12,1-.25,1.73-.35,2.32a15.26,15.26,0,0,1-.53,1.87,8.69,8.69,0,0,1-.76,1.51,5.73,5.73,0,0,1-1,1.26,6.19,6.19,0,0,1-1.32,1,.16.16,0,0,0-.05.11s0,.09.11.16c.25.16.48.34.72.52A.31.31,0,0,0,159.49,53.54Z"/><path class="cls-1" d="M174.08,51.83a7.5,7.5,0,0,1-1.55-2.41,12.33,12.33,0,0,1-.9-2.56,13.06,13.06,0,0,0,2.65-2.43.46.46,0,0,1,.41-.16c.12,0,.19,0,.19-.14a.39.39,0,0,0-.21-.34l-1-.72s-.09.05-.12.14a6.84,6.84,0,0,1-.81,1.21,6.11,6.11,0,0,1-1.11,1c-.07.07-.16.13-.25.2-.18-.83-.34-1.82-.46-2.94-.74.16-1.11.31-1.11.41.23,1.6.48,3,.74,4.07a22.53,22.53,0,0,0,1.06,3.06,10.77,10.77,0,0,0,2,3c.32.31.51.47.58.47a.25.25,0,0,0,.21-.14,7.55,7.55,0,0,1,.51-.67c.07,0,.11-.13.11-.25a.54.54,0,0,0-.12-.2A2.6,2.6,0,0,1,174.08,51.83Z"/><path class="cls-1" d="M192.26,40v-.41c0-.14-.05-.22-.14-.22h-3.64l.09-.18a.24.24,0,0,1,.26-.16c.11,0,.18-.07.18-.14s-.07-.14-.19-.22l-.83-.36c-.07,0-.12.07-.16.18a4.38,4.38,0,0,1-.64,1.15,6.06,6.06,0,0,1-.88,1,.29.29,0,0,0-.05.11s0,0,.11.07l.55.25a.42.42,0,0,0,.25.11s.11-.05.21-.16a5.54,5.54,0,0,0,.62-.83h4.13C192.21,40.18,192.26,40.11,192.26,40Z"/><path class="cls-1" d="M186.11,38.92h-4.34c-.14,0-.21.07-.21.2v6.12a.19.19,0,0,0,.21.22H186c.09,0,.14-.07.14-.22v-.41c0-.14-.05-.22-.14-.22h-1.31V43.49h1.11c.18,0,.26-.07.26-.22V41.1c0-.09-.09-.14-.26-.14h-1.11V39.76h1.38c.09,0,.14-.07.14-.22v-.43C186.26,39,186.2,38.92,186.11,38.92Zm-3.51.85h1.17V41H182.6Zm1.17,4.84H182.6V43.49h1.17Zm1.32-2.88v1H182.6v-1Z"/><path class="cls-1" d="M192.56,52.37a2.24,2.24,0,0,1-.85-.52,5.62,5.62,0,0,1-.25,1.13.55.55,0,0,1-.58.49H189.5c-.6,0-.9-.27-.9-.77v-.63h1.66c.18,0,.26-.07.26-.22V46.52c0-.14-.09-.22-.26-.22H183c-.18,0-.27.07-.27.22v5.33c0,.14.09.22.27.22h1.82a.06.06,0,0,1,0,0,2,2,0,0,1-.37.4,2.26,2.26,0,0,1-.6.41,4.52,4.52,0,0,1-.83.38l-.71.22c-.27.05-.56.11-.88.14,0,0-.05,0-.05,0a.27.27,0,0,0,.09.18,7.19,7.19,0,0,1,.56.68.33.33,0,0,0,.23.13l.87-.23a5.72,5.72,0,0,0,.9-.34,6.2,6.2,0,0,0,.81-.5c.25-.22.44-.41.62-.59a2.4,2.4,0,0,0,.46-.68c0-.07.07-.16.11-.25h1.48v1.4c0,.7.46,1.06,1.38,1.06h2.35c.6,0,1-.2,1.09-.56a5,5,0,0,0,.42-1.35A.24.24,0,0,0,192.56,52.37Zm-8.65-5.22h5.46v.77h-5.46Zm0,1.62h5.46v.76h-5.46Zm0,2.45v-.85h5.46v.85Z"/><path class="cls-1" d="M181.22,45.45a.12.12,0,0,0-.09.07c-.44.36-.9.72-1.36,1V43.06h1.17c.14,0,.21-.09.21-.29v-.56c0-.18-.07-.27-.21-.27h-1.17V39.55c0-.45.11-.72.34-.83s.21-.05.21-.16-.07-.09-.19-.16l-1.39-.18c-.23,0-.34.05-.34.13a.85.85,0,0,0,.07.34,4.49,4.49,0,0,1,.05.79v2.47h-1.85c-.14,0-.21.09-.21.27v.56c0,.2.07.29.21.29h1.85v4.36l0,0a15.2,15.2,0,0,1-2.38,1.33c.35,1,.58,1.48.69,1.48s.23-.16.41-.5c.42-.29.86-.59,1.31-.94v4c0,.41-.25.63-.74.63a7.43,7.43,0,0,1-1.18-.13c-.11,0-.14,0-.14.13a3.29,3.29,0,0,1,.34.83c0,.2.05.31.16.31h1c1.24,0,1.87-.43,1.87-1.26V47.83c.49-.38,1-.79,1.52-1.26a3.38,3.38,0,0,0,.07-1A.13.13,0,0,0,181.22,45.45Z"/><path class="cls-1" d="M191.91,42.72H187.3c-.14,0-.21.05-.21.13v2.54c0,.11.07.14.21.14h4.61c.14,0,.21,0,.21-.14V42.84C192.12,42.77,192,42.72,191.91,42.72Zm-3.37,2h-.48V43.49h.48Zm1.31,0h-.48V43.49h.48Zm1.31,0h-.48V43.49h.48Z"/><path class="cls-1" d="M191.76,41.94c.09,0,.14-.07.14-.22v-.43c0-.13-.05-.2-.14-.2H187.7c-.11,0-.14.07-.14.2v.43c0,.14,0,.22.14.22Z"/><path class="cls-1" d="M209.95,53a14.71,14.71,0,0,1-3.83-1.39,6.57,6.57,0,0,1-.6-.34,7.66,7.66,0,0,0,1.11-1.17A12.89,12.89,0,0,0,208,47.83a20.7,20.7,0,0,0,1.2-3.08,2.26,2.26,0,0,0-.34-.59.43.43,0,0,0-.28-.11h-3.32l2.28-4.57q0-.16-.37-.49a.5.5,0,0,0-.32-.07H196.05q-.21,0-.21.27v.58c0,.18.07.27.21.27h2.68a42.58,42.58,0,0,1-.41,5.46,16.4,16.4,0,0,1-1.11,4,9.88,9.88,0,0,1-1.66,2.29A6.61,6.61,0,0,1,194,53c.23.27.51.58.83.92a8.77,8.77,0,0,0,2.1-1.73,8.29,8.29,0,0,0,1.54-2.29,18.52,18.52,0,0,0,1.11-4,13.24,13.24,0,0,0,1.62,3,9.16,9.16,0,0,0,2.24,2.43l.09.05a11,11,0,0,1-2.63,1.3,19.14,19.14,0,0,1-1.92.54c-.11,0-.14.07-.14.14a.28.28,0,0,0,.09.18c.14.18.27.38.41.58a.36.36,0,0,0,.34.16,12.35,12.35,0,0,0,2.54-.86,12.53,12.53,0,0,0,2.33-1.31,18.51,18.51,0,0,0,3.57,1.84,4.62,4.62,0,0,0,1,.41.28.28,0,0,0,.27-.22,5.63,5.63,0,0,1,.6-.7.4.4,0,0,0,.18-.27C210.12,53.07,210.05,53,209.95,53ZM200,40h6l-2.07,4h-4.17C199.85,43,199.92,41.65,200,40Zm4.52,10.53a10.47,10.47,0,0,1-1.57-1.31,9,9,0,0,1-1.52-2,10.9,10.9,0,0,1-1.08-2.09h7.47a15.16,15.16,0,0,1-.71,1.85,10.13,10.13,0,0,1-1.27,2.2A11.82,11.82,0,0,1,204.49,50.57Z"/><path class="cls-1" d="M212.66,54.31a12.07,12.07,0,0,0,1.2-2.7,20.88,20.88,0,0,0,.69-3.53c.05-.5.11-1.1.14-1.78h1.54c0,1.91-.07,3.28-.12,4.11q-.11,1.65-.21,2.21c-.09.47-.26.7-.55.7s-.79,0-1.24-.05v.13a4,4,0,0,1,.35.94c0,.22.32.34.88.34a1.3,1.3,0,0,0,1.41-1,16.48,16.48,0,0,0,.42-2.9c.09-1.08.14-2.88.18-5.37,0-.18-.07-.29-.21-.29h-2.4c0-.7,0-1.49.05-2.39v-.05h3.39c.12,0,.19-.09.19-.29v-.7c0-.14-.07-.22-.19-.22h-2.35V39.26c0-.22.05-.34.18-.36s.16-.11.16-.27-.44-.22-1.31-.22c-.19,0-.28.07-.28.22v2.81H212a.19.19,0,0,0-.21.22v.7c0,.2.07.29.21.29h1.57c0,1.89-.05,3.33-.12,4.34a23.86,23.86,0,0,1-.62,3.64,8.21,8.21,0,0,1-1.31,2.86.31.31,0,0,0-.07.2c0,.07.05.13.18.14s.46.31.71.45A1.37,1.37,0,0,0,212.66,54.31Z"/><path class="cls-1" d="M221.86,39.46a.33.33,0,0,0,.25-.34c0-.09-.09-.18-.25-.25l-1.06-.45c-.09,0-.16.13-.23.38a12.28,12.28,0,0,1-1,2.57,14.66,14.66,0,0,1-1.34,2.3.43.43,0,0,0-.09.23s0,0,.12.07.42.2.67.31a.55.55,0,0,0,.3.11c.07,0,.19-.11.34-.32a14.84,14.84,0,0,0,1.06-2.2h6.81c.14,0,.21-.09.21-.29v-.7a.19.19,0,0,0-.21-.22h-6.36c.09-.25.19-.52.3-.83A.41.41,0,0,1,221.86,39.46Z"/><path class="cls-1" d="M227.79,52.15a2,2,0,0,1-.72-.65,3.54,3.54,0,0,1-.53,1.39c-.12.14-.48.23-1,.23h-3.39c-.64,0-1-.25-1-.77V47.24l1.64-.45v4.29c0,.14.09.22.28.22h.69c.18,0,.28-.07.28-.22V46.44l2.4-.65a26.08,26.08,0,0,1-.21,2.79c-.07.54-.19.81-.34.81h-.34a4.37,4.37,0,0,1-.9-.07c-.05,0-.07.05-.07.14.09.27.18.54.25.79s.16.25.51.25H226a1.1,1.1,0,0,0,.76-.22,2.44,2.44,0,0,0,.56-1.44c.11-.81.23-2.09.34-3.83a.89.89,0,0,0-.07-.38l-.21-.23a.24.24,0,0,0-.21-.09l-3.09.92V44c0-.22.05-.34.16-.38s.18-.09.18-.25-.44-.22-1.31-.22c-.19,0-.28.07-.28.22V45.6l-1.64.49V44.82c0-.13,0-.2.14-.22s.12-.09.12-.22-.07-.09-.21-.13L220,44.12c-.11,0-.14.07-.14.2v2.13l-1.38.41a.15.15,0,0,0-.07.14l.23.68c0,.11.09.16.19.16l1-.27v5.47c0,.83.69,1.26,2.07,1.26h4.41a1.19,1.19,0,0,0,1-.32,4.72,4.72,0,0,0,.67-1.57C228,52.31,228,52.22,227.79,52.15Z"/><path class="cls-1" d="M229.7,53.61H245c.14,0,.21-.11.21-.29v-.7c0-.13-.07-.2-.21-.2h-7V40.74h5.79c.12,0,.19-.09.19-.27v-.7c0-.14-.07-.22-.19-.22h-13c-.14,0-.19.07-.19.22v.7c0,.18.05.27.19.27h5.93V52.42h-7c-.14,0-.21.07-.21.2v.7C229.49,53.5,229.56,53.61,229.7,53.61Z"/><path class="cls-1" d="M253.62,44l-.81,1a20.34,20.34,0,0,1,1.84,1.82c.67.76,1.18,1.4,1.55,1.91l1-.92A26.84,26.84,0,0,0,253.62,44Z"/><path class="cls-1" d="M268.34,46.82l-.3,0c-.88.07-1.48.09-1.8.09.39,1.22.67,1.84.83,1.84s.26-.16.3-.5c.05-.18.14-.27.25-.27q4.53-.27,9.69-.81c.49.5,1,1.06,1.48,1.64a7.43,7.43,0,0,0,.53-.76.52.52,0,0,0,.09-.14c-.44-.54-1-1.13-1.61-1.8a21.33,21.33,0,0,0-2-1.73s-.09.05-.14.13a3.65,3.65,0,0,0-.55.79,11.5,11.5,0,0,1,1.17.86c-2.24.22-4.38.4-6.43.54.44-.58,1.13-1.51,2-2.81h5.91c.12,0,.19-.09.19-.29v-.56c0-.18-.07-.29-.19-.29H267.62c-.14,0-.19.11-.19.29v.56c0,.2.05.29.19.29h2.86c-.53.77-1.15,1.62-1.84,2.52Z"/><path class="cls-1" d="M280.17,43.62V40.11c0-.14-.09-.22-.27-.22h-6.55v-.7c0-.22.05-.34.16-.36s.18-.11.18-.27-.44-.22-1.31-.22c-.19,0-.28.07-.28.22v1.33h-6.62c-.18,0-.27.11-.27.29v3.44c0,.14.09.22.27.22h.69c.18,0,.28-.07.28-.22V41h12.48v2.59c0,.14.09.22.28.22h.69C280.08,43.83,280.17,43.76,280.17,43.62Z"/><path class="cls-1" d="M265,54.1h15.31c.14,0,.21-.09.21-.27v-.56c0-.2-.07-.29-.21-.29h-7V51h5c.14,0,.21-.09.21-.29v-.56c0-.18-.07-.29-.21-.29h-5v-.77c0-.22.05-.34.16-.36s.18-.11.18-.27-.44-.22-1.31-.22c-.19,0-.28.07-.28.22v1.4H267c-.14,0-.21.11-.21.29v.56c0,.2.07.29.21.29h5.1v2H265c-.14,0-.21.09-.21.29v.56C264.79,54,264.86,54.1,265,54.1Z"/><path class="cls-1" d="M14.28,79.8H8.65a17.56,17.56,0,0,1-.23-3c0-.14-.11-.22-.28-.22H4.63c-.14,0-.21.11-.21.29v.56c0,.2.07.29.21.29h2.7A15.35,15.35,0,0,0,7.5,79.8H1.38a.24.24,0,0,0-.27.27V92.46q0,.22.27.22h.69c.18,0,.28-.07.28-.22V87s.05.05.09.09l.64.72c.07.18.14.25.25.25a6.09,6.09,0,0,0,1.31-1,18.48,18.48,0,0,0,1.71-1.84,18.73,18.73,0,0,0,1.31-2.11,8.2,8.2,0,0,0,.44-.81,9.21,9.21,0,0,0,.85,2,8.14,8.14,0,0,0,1.84,2.45A4.84,4.84,0,0,0,12.34,88a.55.55,0,0,0,.35-.11c.19-.22.41-.41.62-.61l.07,0v3.22a.57.57,0,0,1-.28.52,4,4,0,0,1-1.55.16c-.11,0-.16,0-.16.09a3.25,3.25,0,0,1,.39,1.12.21.21,0,0,0,.23.22,7.26,7.26,0,0,0,1.85-.4,1.23,1.23,0,0,0,.76-1.06v-11C14.62,79.89,14.49,79.8,14.28,79.8Zm-8.1,3.53a13.52,13.52,0,0,1-1.77,2.09,12.33,12.33,0,0,1-2.07,1.44V80.92H7.42A26.94,26.94,0,0,1,6.18,83.33Zm7.2,3.6a.36.36,0,0,1-.11-.07,7.11,7.11,0,0,1-1.71-1.13A6.91,6.91,0,0,1,9.85,83.6a9.08,9.08,0,0,1-1-2.68h4.5Z"/><path class="cls-1" d="M33.17,91H26.41V87h5c.14,0,.21-.09.21-.27v-.58q0-.27-.21-.27H20.21q-.21,0-.21.27v.58c0,.18.07.27.21.27h5V91h-7c-.14,0-.19.09-.19.29v.56c0,.18.05.27.19.27h15c.14,0,.21-.09.21-.27v-.56C33.38,91.07,33.31,91,33.17,91Z"/><path class="cls-1" d="M33.42,82.46a2.12,2.12,0,0,1-1.08-.34.16.16,0,0,0-.18.13c-.07.54-.19.85-.41.94a1.54,1.54,0,0,1-.94.2h-2c-.65,0-1-.25-1-.77V79.29h3.8v2c0,.14.09.22.28.22h.69c.18,0,.26-.07.26-.22V78.39c0-.14-.09-.22-.26-.22H26.27v-.92c0-.22.05-.34.18-.36s.18-.11.18-.27-.44-.22-1.31-.22c-.19,0-.28.07-.28.22v1.55H18.41c-.18,0-.26.11-.26.29v3.08q0,.22.26.22h.69c.18,0,.28-.07.28-.22V79.29h4.06a8.76,8.76,0,0,1-.76,1.53,6.63,6.63,0,0,1-1.34,1.55,10.28,10.28,0,0,1-1.68,1.22,10.12,10.12,0,0,1-1.59.7,6.61,6.61,0,0,1,.58.92c0,.09.12.13.3.13a10.73,10.73,0,0,0,1-.47,11.92,11.92,0,0,0,1.78-1.17A7.69,7.69,0,0,0,23.34,82a13.26,13.26,0,0,0,1-1.76.29.29,0,0,1,.26-.18c.14,0,.21,0,.21-.09a.32.32,0,0,0-.19-.27l-.83-.38h2.82v4.09q0,1.19,1.59,1.19h3.3a1.92,1.92,0,0,0,1.24-.29,3,3,0,0,0,.9-1.6C33.65,82.55,33.56,82.48,33.42,82.46Z"/><path class="cls-1" d="M46.13,84.08h-6.2a.19.19,0,0,0-.21.22v6.61a.19.19,0,0,0,.21.22h.69c.18,0,.28-.07.28-.22v-.49h4.34v.41c0,.14.05.22.19.22h.69c.18,0,.28-.07.28-.22V84.3C46.41,84.16,46.3,84.08,46.13,84.08Zm-.88,5.28H40.9V87.74h4.34Zm0-2.67H40.9V85.15h4.34Z"/><path class="cls-1" d="M49.92,76.85H44.13c-.18,0-.27.07-.27.2v5.64c0,.2.09.29.27.29H49v7.36a.78.78,0,0,1-.3.68,3.36,3.36,0,0,1-1.62.22c-.11,0-.16,0-.16.09a4.08,4.08,0,0,1,.41,1.13c0,.14.09.22.23.22a5.55,5.55,0,0,0,1.89-.5,1.5,1.5,0,0,0,.79-1.33V77C50.28,76.92,50.15,76.85,49.92,76.85ZM49,81.91H45.1V80.43H49Zm0-2.54H45.1V77.89H49Z"/><path class="cls-1" d="M42.07,76.85H36.28c-.19,0-.28.07-.28.2V92.38c0,.14.09.22.28.22H37c.18,0,.28-.07.28-.22V83h4.82a.25.25,0,0,0,.28-.29V77C42.35,76.92,42.24,76.85,42.07,76.85Zm-1,5.06H37.25V80.43H41.1Zm0-2.54H37.25V77.89H41.1Z"/><path class="cls-1" d="M52.75,79.51v.56c0,.2.07.29.21.29H59.1c.14,0,.21-.09.21-.29v-.56c0-.18-.07-.27-.21-.27H53C52.82,79.24,52.75,79.33,52.75,79.51Z"/><path class="cls-1" d="M58.63,82c0-.18-.07-.29-.21-.29h-4.7c-.14,0-.21.11-.21.29v.56c0,.2.07.29.21.29h4.7c.14,0,.21-.09.21-.29Z"/><path class="cls-1" d="M58.41,77.89c.14,0,.21-.09.21-.27V77c0-.18-.07-.27-.21-.27H53.79c-.14,0-.21.09-.21.27v.58c0,.18.07.27.21.27Z"/><path class="cls-1" d="M58.41,84.3H53.65c-.14,0-.19.09-.19.27v.58c0,.18.05.27.19.27h4.77q.21,0,.21-.27v-.58C58.63,84.39,58.56,84.3,58.41,84.3Z"/><path class="cls-1" d="M58.63,86.89H53.45a.25.25,0,0,0-.28.29v5.2c0,.14.09.22.28.22h.69c.18,0,.26-.07.26-.22v-.7h3.25v.63c0,.14.09.22.26.22h.71c.18,0,.26-.07.26-.22v-5.2Q58.89,86.89,58.63,86.89Zm-1,3.66H54.41V88h3.25Z"/><path class="cls-1" d="M69,79.87a3.84,3.84,0,0,1-.56-.22,1.43,1.43,0,0,0-.23-.07c-.11,0-.16,0-.16.11a6.41,6.41,0,0,1-.3,1.37.47.47,0,0,1-.49.29h-.62a.88.88,0,0,1-.49-.11C66,81.2,66,81.09,66,81V76.85c0-.14-.09-.22-.27-.22H61.57c-.14,0-.19.07-.19.22v1.62a6.55,6.55,0,0,1-.23,1.75A3.6,3.6,0,0,1,59.44,82a.28.28,0,0,0,.12.22l.46.58a.38.38,0,0,0,.32.13,6.1,6.1,0,0,0,1.11-.86,3.17,3.17,0,0,0,.85-1.49,8.6,8.6,0,0,0,.25-2.11v-.88h2.21v4.25a.6.6,0,0,0,.21.52,1.94,1.94,0,0,0,1,.22h1.73a1,1,0,0,0,1-.47,11.64,11.64,0,0,0,.55-2A.27.27,0,0,0,69,79.87Z"/><path class="cls-1" d="M59.47,91.41a.12.12,0,0,0-.11.13s0,.09.11.16.26.4.41.59a.32.32,0,0,0,.32.16,9,9,0,0,0,2-.72,9.42,9.42,0,0,0,1.91-1.17,4.3,4.3,0,0,0,.51.38,12.2,12.2,0,0,0,1.8,1c.55.2,1.06.38,1.52.52a1.19,1.19,0,0,0,.3.11s.11-.05.19-.16a5.16,5.16,0,0,1,.62-.63.33.33,0,0,0,.09-.2s-.05-.07-.16-.09a11,11,0,0,1-2.35-.76,6,6,0,0,1-1.64-.92A9,9,0,0,0,65.6,89a12.66,12.66,0,0,0,1.06-1.89,18.21,18.21,0,0,0,.92-2.56,2.29,2.29,0,0,0-.34-.58.41.41,0,0,0-.28-.13H60.27c-.14,0-.19.11-.19.29v.56c0,.2.05.29.19.29h5.9a9.91,9.91,0,0,1-.48,1.33,8.78,8.78,0,0,1-1,1.82A7.82,7.82,0,0,1,64,89a1.44,1.44,0,0,1-.26-.31,5.91,5.91,0,0,1-1-1.53,6.36,6.36,0,0,1-.51-1.58,3.12,3.12,0,0,0-1.11.22v.16a8.77,8.77,0,0,0,.88,2.21,4.37,4.37,0,0,0,1,1.53s0,0,.07.07A7.84,7.84,0,0,1,61,91,15.31,15.31,0,0,1,59.47,91.41Z"/><path class="cls-1" d="M76.9,86.82H71.37c-.18,0-.26.11-.26.29v5.28c0,.14.09.22.26.22h.69c.18,0,.28-.07.28-.22v-.85h3.58v.85c0,.14.09.22.28.22h.69c.18,0,.26-.07.26-.22V87C77.16,86.89,77.07,86.82,76.9,86.82Zm-1,3.6H72.34V88h3.58Z"/><path class="cls-1" d="M71.3,84.44V85c0,.18.07.27.21.27h5.31c.12,0,.19-.09.19-.27v-.56c0-.18-.07-.29-.19-.29H71.51C71.37,84.16,71.3,84.26,71.3,84.44Z"/><path class="cls-1" d="M76.83,82.82c.12,0,.19-.09.19-.29V82c0-.18-.07-.29-.19-.29H71.58c-.14,0-.21.11-.21.29v.56c0,.2.07.29.21.29Z"/><path class="cls-1" d="M71.65,76.77c-.14,0-.21.09-.21.27v.58c0,.18.07.27.21.27h5c.14,0,.21-.09.21-.27V77c0-.18-.07-.27-.21-.27Z"/><path class="cls-1" d="M77.85,80.36c.14,0,.21-.09.21-.29v-.56c0-.18-.07-.27-.21-.27H70.54c-.14,0-.19.09-.19.27v.56c0,.2.05.29.19.29Z"/><path class="cls-1" d="M86.27,81.54H82.83V77.26c0-.22.05-.34.16-.36s.18-.11.18-.27-.44-.22-1.31-.22c-.19,0-.28.07-.28.22v4.92h-3.3c-.14,0-.21.11-.21.29v.56c0,.2.07.29.21.29h3.3v9.71c0,.14.09.22.28.22h.69c.18,0,.28-.07.28-.22V82.68h3.44c.14,0,.21-.09.21-.29v-.56C86.48,81.65,86.41,81.54,86.27,81.54Z"/><path class="cls-1" d="M104,91a14.71,14.71,0,0,1-3.83-1.39,6.57,6.57,0,0,1-.6-.34,7.66,7.66,0,0,0,1.11-1.17,12.89,12.89,0,0,0,1.39-2.25,20.7,20.7,0,0,0,1.2-3.08,2.26,2.26,0,0,0-.34-.59.43.43,0,0,0-.28-.11H99.37l2.28-4.57q0-.16-.37-.49a.5.5,0,0,0-.32-.07H90.14q-.21,0-.21.27v.58c0,.18.07.27.21.27h2.68a42.58,42.58,0,0,1-.41,5.46,16.4,16.4,0,0,1-1.11,4,9.88,9.88,0,0,1-1.66,2.29A6.61,6.61,0,0,1,88.05,91c.23.27.51.58.83.92A8.77,8.77,0,0,0,91,90.17a8.29,8.29,0,0,0,1.54-2.29,18.52,18.52,0,0,0,1.11-4,13.24,13.24,0,0,0,1.62,3,9.16,9.16,0,0,0,2.24,2.43l.09.05A11,11,0,0,1,95,90.64a19.14,19.14,0,0,1-1.92.54c-.11,0-.14.07-.14.14a.28.28,0,0,0,.09.18c.14.18.27.38.41.58a.36.36,0,0,0,.34.16,12.35,12.35,0,0,0,2.54-.86,12.53,12.53,0,0,0,2.33-1.31,18.51,18.51,0,0,0,3.57,1.84,4.62,4.62,0,0,0,1,.41.28.28,0,0,0,.27-.22,5.63,5.63,0,0,1,.6-.7.4.4,0,0,0,.18-.27C104.21,91.07,104.14,91,104,91ZM94.06,78h6L98,82H93.86C93.93,81,94,79.65,94.06,78Zm4.52,10.53A10.47,10.47,0,0,1,97,87.25a9,9,0,0,1-1.52-2,10.9,10.9,0,0,1-1.08-2.09h7.47a15.16,15.16,0,0,1-.71,1.85,10.13,10.13,0,0,1-1.27,2.2A11.82,11.82,0,0,1,98.57,88.57Z"/><path class="cls-1" d="M118.29,76.83c.11,0,.18-.11.18-.27s-.44-.22-1.31-.22c-.19,0-.28.07-.28.22v2.11H114.2c-.14,0-.21.11-.21.29v.56c0,.2.07.29.21.29h2.68v2.74h-2.35c-.14,0-.19.11-.19.29v.56c0,.2.05.29.19.29h6c.14,0,.21-.09.21-.29v-.56c0-.18-.07-.29-.21-.29h-2.4V79.8H121c.12,0,.19-.09.19-.29V79c0-.18-.07-.29-.19-.29h-2.82V77.19C118.13,77,118.19,76.85,118.29,76.83Z"/><path class="cls-1" d="M106.34,80.92c-.11,0-.14.07-.14.22v.56c0,.2,0,.29.14.29h2.07a2.4,2.4,0,0,1-.33.94,1.9,1.9,0,0,1-.62.68,3.65,3.65,0,0,1-1.06.54c-.09,0-.12.05-.12.09s.05.14.16.22a3.53,3.53,0,0,1,.56.41c0,.05.11.07.23.07a3.5,3.5,0,0,0,1.24-.61,2.48,2.48,0,0,0,.74-.94,3.72,3.72,0,0,0,.3-1.26.52.52,0,0,1,0-.14h2.12v2.67c0,.14.09.22.28.22h.69c.18,0,.28-.07.28-.22V77.19c0-.22.05-.34.16-.36s.18-.11.18-.27-.44-.22-1.31-.22c-.19,0-.28.07-.28.22v1.91h-3.23V77c0-.22.05-.34.18-.36s.16-.11.16-.27-.44-.2-1.31-.2c-.18,0-.26.07-.26.2v3.46c0,.14.09.2.26.2h.69c.18,0,.28-.05.28-.2v-.36h3.23v1.4Z"/><path class="cls-1" d="M121.74,91.18a10.31,10.31,0,0,1-2.75-.86,7.58,7.58,0,0,1-1.36-.74c.64-.47,1.18-.85,1.66-1.17a.78.78,0,0,1,.42-.16l.42.05c.14,0,.21-.05.21-.2s-.34-.43-1-.94a.46.46,0,0,0-.25-.13.59.59,0,0,0-.34.14,16.63,16.63,0,0,1-2.07,1.69,5.27,5.27,0,0,1-1.08-1.19,5.89,5.89,0,0,1-.64-1h6.25c.14,0,.21-.09.21-.29v-.56c0-.18-.07-.29-.21-.29h-6.74V85q0-.32.16-.38c.11,0,.18-.09.18-.25s-.44-.22-1.31-.22c-.19,0-.28.07-.28.22v1.19h-6.81c-.14,0-.21.11-.21.29v.56c0,.2.07.29.21.29h5.47a7.35,7.35,0,0,1-1,.65,16.42,16.42,0,0,1-2.29,1,24.75,24.75,0,0,1-2.81.7s.05.11.16.22.41.47.58.67.14.23.23.23a17.91,17.91,0,0,0,3-1V91c-.67.11-1.27.22-1.8.29.35,1,.58,1.48.69,1.48s.25-.16.42-.49c1.89-.4,3.74-.81,5.58-1.26a3.64,3.64,0,0,0,.07-1,.14.14,0,0,0-.23-.11c-1.08.29-2.23.56-3.43.81l-.07,0V88.51a9.44,9.44,0,0,0,1.38-.88,8.82,8.82,0,0,0,1.17-.94h.32a10.14,10.14,0,0,0,1.27,2.21,5.94,5.94,0,0,0,1.61,1.58,14.57,14.57,0,0,0,3.34,1.69,3.38,3.38,0,0,0,.72.27.28.28,0,0,0,.26-.22,5.68,5.68,0,0,1,.6-.7.4.4,0,0,0,.18-.27S121.81,91.2,121.74,91.18Z"/><path class="cls-1" d="M127.22,78.32c-.27-.25-.58-.52-1-.83A13.38,13.38,0,0,0,125,76.7s-.09.05-.14.13a3.21,3.21,0,0,0-.55.79,7.14,7.14,0,0,1,1,.54,12.52,12.52,0,0,1,1.32,1.08,6.89,6.89,0,0,0,.53-.77A.52.52,0,0,0,127.22,78.32Z"/><path class="cls-1" d="M137.69,90.73a3.89,3.89,0,0,1-1.06-.74h.86c.18,0,.28-.07.28-.22v-5.2c0-.13-.11-.2-.28-.2h-7.86c-.19,0-.28.07-.28.2v5.2c0,.14.09.22.28.22h1.43a8,8,0,0,1-1.66,1,12.5,12.5,0,0,1-1.64.67.11.11,0,0,0-.12.13.4.4,0,0,0,.11.22,1.4,1.4,0,0,1,.37.45.3.3,0,0,0,.28.18,20.07,20.07,0,0,0,3.37-1.62c0-.05.14-.09.37-.09s.18,0,.18-.13-.26-.34-.79-.85H136c-.37.31-.55.49-.55.56a8.47,8.47,0,0,0,1.68,1.15,8.15,8.15,0,0,0,1.84.76,6.37,6.37,0,0,0,.76-.92A8.72,8.72,0,0,1,137.69,90.73Zm-4.75-1.78h-2.4V87.67h2.4Zm0-2.32h-2.4V85.42h2.4Zm3.65,2.32h-2.4V87.67h2.4Zm0-2.32h-2.4V85.42h2.4Z"/><path class="cls-1" d="M125.92,83.53l.53-.77a.51.51,0,0,0,.09-.14l-1.06-.79c-.35-.22-.81-.47-1.36-.76,0,0-.09.05-.14.13a3.65,3.65,0,0,0-.55.79,6.66,6.66,0,0,1,1,.52C125,82.82,125.46,83.17,125.92,83.53Z"/><path class="cls-1" d="M124.75,89.86a7.45,7.45,0,0,1-1,1.17.31.31,0,0,0-.07.23.2.2,0,0,0,.11.18,6.05,6.05,0,0,0,1.06,1.08c.09,0,.14-.07.14-.22a1.35,1.35,0,0,1,.11-.58c.37-.58.69-1.1,1-1.6q.71-1.3,1.54-3.13a.43.43,0,0,0,.09-.23s-.16-.38-.44-1c0-.09-.07-.14-.12-.14s-.07.05-.11.13c-.28.59-.6,1.24-1,1.94A17.2,17.2,0,0,1,124.75,89.86Z"/><path class="cls-1" d="M127.84,82.54v.56c0,.2.07.29.21.29h11c.14,0,.21-.09.21-.29v-.56q0-.27-.21-.27h-11Q127.84,82.27,127.84,82.54Z"/><path class="cls-1" d="M138.33,77.76h-1.78v-.65c0-.2,0-.31.12-.32s.14-.09.14-.23-.42-.22-1.24-.22c-.14,0-.21.05-.21.14v1.28h-3.8v-.58c0-.2,0-.31.14-.32s.14-.09.14-.23-.42-.22-1.24-.22c-.14,0-.21.05-.21.14v1.21h-1.73c-.14,0-.19.09-.19.27v.56c0,.2.05.29.19.29h1.73v2.54c0,.14.07.2.21.2h.69c.18,0,.26-.05.26-.2v-.36h3.8v.36c0,.14.07.2.21.2h.69c.18,0,.28-.05.28-.2V78.88h1.78c.14,0,.21-.09.21-.29V78C138.54,77.85,138.47,77.76,138.33,77.76Zm-3,2.25h-3.8V78.88h3.8Z"/><path class="cls-1" d="M151.25,77.46a.33.33,0,0,0,.25-.34c0-.09-.09-.18-.25-.25l-1.06-.45c-.09,0-.16.13-.23.38a12.28,12.28,0,0,1-1,2.57,14.66,14.66,0,0,1-1.34,2.3.43.43,0,0,0-.09.23s0,0,.12.07.42.2.67.31a.55.55,0,0,0,.3.11c.07,0,.19-.11.34-.32a14.84,14.84,0,0,0,1.06-2.2h6.81c.14,0,.21-.09.21-.29v-.7a.19.19,0,0,0-.21-.22h-6.36c.09-.25.19-.52.3-.83A.41.41,0,0,1,151.25,77.46Z"/><path class="cls-1" d="M157.18,90.15a2,2,0,0,1-.72-.65,3.55,3.55,0,0,1-.53,1.39c-.12.14-.48.23-1,.23H151.5c-.63,0-1-.25-1-.77V85.24l1.64-.45v4.29c0,.14.09.22.28.22h.69c.18,0,.28-.07.28-.22V84.44l2.4-.65a26.08,26.08,0,0,1-.21,2.79c-.07.54-.19.81-.34.81H155a4.37,4.37,0,0,1-.9-.07c-.05,0-.07.05-.07.14.09.27.18.54.25.79s.16.25.51.25h.62a1.1,1.1,0,0,0,.76-.22,2.44,2.44,0,0,0,.56-1.44c.11-.81.23-2.09.34-3.83a.89.89,0,0,0-.07-.38l-.21-.23a.24.24,0,0,0-.21-.09l-3.09.92V82c0-.22.05-.34.16-.38s.18-.09.18-.25-.44-.22-1.31-.22c-.19,0-.28.07-.28.22V83.6l-1.64.49V82.82c0-.13,0-.2.14-.22s.12-.09.12-.22-.07-.09-.21-.13l-1.17-.14c-.11,0-.14.07-.14.2v2.13l-1.38.41a.15.15,0,0,0-.07.14l.23.68c0,.11.09.16.19.16l1-.27v5.47c0,.83.69,1.26,2.07,1.26h4.41a1.19,1.19,0,0,0,1-.32,4.72,4.72,0,0,0,.67-1.57C157.43,90.31,157.34,90.22,157.18,90.15Z"/><path class="cls-1" d="M141,91.83c.23.14.46.31.71.45a1.37,1.37,0,0,0,.35,0,12.07,12.07,0,0,0,1.2-2.7,20.88,20.88,0,0,0,.69-3.53c.05-.5.11-1.1.14-1.78h1.54c0,1.91-.07,3.28-.12,4.11q-.11,1.65-.21,2.21c-.09.47-.26.7-.55.7s-.79,0-1.24-.05v.13a4,4,0,0,1,.35.94c0,.22.32.34.88.34a1.3,1.3,0,0,0,1.41-1,16.48,16.48,0,0,0,.42-2.9c.09-1.08.14-2.88.18-5.37,0-.18-.07-.29-.21-.29h-2.4c0-.7,0-1.49.05-2.39v-.05h3.39c.12,0,.19-.09.19-.29v-.7c0-.14-.07-.22-.19-.22h-2.35V77.26c0-.22.05-.34.18-.36s.16-.11.16-.27-.44-.22-1.31-.22c-.19,0-.28.07-.28.22v2.81h-2.61a.19.19,0,0,0-.21.22v.7c0,.2.07.29.21.29h1.57c0,1.89-.05,3.33-.12,4.34a23.86,23.86,0,0,1-.62,3.64,8.22,8.22,0,0,1-1.31,2.86.3.3,0,0,0-.07.2C140.82,91.75,140.87,91.81,141,91.83Z"/><path class="cls-1" d="M174.39,90.42h-7V78.74h5.79c.12,0,.19-.09.19-.27v-.7c0-.14-.07-.22-.19-.22h-13c-.14,0-.19.07-.19.22v.7c0,.18.05.27.19.27h5.93V90.42h-7c-.14,0-.21.07-.21.2v.7c0,.18.07.29.21.29h15.31c.14,0,.21-.11.21-.29v-.7C174.61,90.49,174.54,90.42,174.39,90.42Z"/><path class="cls-1" d="M184,84.8c.67.76,1.18,1.4,1.55,1.91l1-.92A26.82,26.82,0,0,0,183,82l-.81,1A20.34,20.34,0,0,1,184,84.8Z"/><path class="cls-1" d="M209.7,77.89h-7v-.63c0-.22.05-.34.16-.36s.18-.11.18-.27-.44-.22-1.31-.22c-.19,0-.28.07-.28.22v1.26h-7c-.14,0-.21.11-.21.29v.56c0,.2.07.29.21.29h3.39c-.14.11-.21.18-.21.22a12,12,0,0,1,1,1.82c.09.22.18.43.25.63h-3.57a.25.25,0,0,0-.28.29V92.38c0,.14.09.22.28.22h.69c.18,0,.26-.07.26-.22V82.82h3.3a4,4,0,0,1-.21,1,2.43,2.43,0,0,1-.64.85,4.2,4.2,0,0,1-.94.5,4,4,0,0,1-.9.27,12.32,12.32,0,0,0,.83.92,6.41,6.41,0,0,0,1.27-.47,2.93,2.93,0,0,0,.92-.61,3.1,3.1,0,0,0,.67-1.12,5.17,5.17,0,0,0,.23-1.31h2.22v2.32c0,.52.3.77.9.77h2.42c.53,0,1-.49,1.38-1.48l-1-.65c-.21.67-.41,1-.62,1h-1.73c-.09,0-.12-.07-.12-.22V82.82h3.58v7.8c0,.45-.6.7-1.73.77.14.45.23.79.28,1s.11.27.34.27c1.34-.29,2-.56,2.08-.85a1.83,1.83,0,0,0,.26-1.21V81.91c0-.14-.11-.22-.28-.22h-3.35a17.89,17.89,0,0,0,1-2,.28.28,0,0,1,.32-.22c.12,0,.19-.11.19-.22s-.09-.18-.26-.25l0,0h3.05c.14,0,.21-.09.21-.29v-.56C209.91,78,209.84,77.89,209.7,77.89Zm-4.94,2.52a8.5,8.5,0,0,1-.88,1.28h-3.69a8.67,8.67,0,0,0-.53-1.26,15.29,15.29,0,0,0-.79-1.4h6.55A7.05,7.05,0,0,1,204.76,80.41Z"/><path class="cls-1" d="M205.22,86.77h-6.27c-.19,0-.28.09-.28.27v4.72c0,.14.09.22.28.22h.69q.26,0,.26-.22v-.7h4.36v.63c0,.14.09.22.26.22h.69c.18,0,.28-.07.28-.22V87C205.5,86.84,205.39,86.77,205.22,86.77Zm-1,3.15H199.9v-2h4.36Z"/><path class="cls-1" d="M225.18,90.6a15.79,15.79,0,0,1-2.52-1,11.83,11.83,0,0,1-1.57-.94h5.51c.14,0,.21-.09.21-.29v-.56c0-.18-.07-.29-.21-.29h-6.2V86.12h4.68c.09,0,.14-.09.14-.27v-.58c0-.13-.05-.2-.14-.2H220.4v-1.4h5.51c.14,0,.21-.09.21-.29v-.56c0-.18-.07-.29-.21-.29h-3.09q.34-.89.64-1.89h3.83c.09,0,.14-.09.14-.29V79.8c0-.14-.05-.22-.14-.22h-2.37a15.19,15.19,0,0,0,.79-1.64c0-.11.12-.16.3-.18s.18-.05.18-.14-.05-.13-.16-.2l-1.09-.58a.19.19,0,0,0-.16.13c-.14.45-.32.94-.53,1.48a10,10,0,0,1-.67,1.13h-1.47v-2.4c0-.22.05-.34.18-.36s.18-.11.18-.27-.44-.22-1.31-.22c-.19,0-.28.07-.28.22v3h-2.35V77.26c0-.22.05-.34.18-.36s.18-.11.18-.27-.44-.22-1.32-.22c-.18,0-.27.07-.27.22v3h-1.13a10,10,0,0,0-.51-1.08,13.9,13.9,0,0,0-1.06-1.58c-.6.31-.88.49-.88.56a10.42,10.42,0,0,1,1,1.62c.07.16.16.32.23.49H212c-.11,0-.14.07-.14.22v.56c0,.2,0,.29.14.29h3.8q.42.81.9,1.89h-3.25c-.14,0-.21.11-.21.29v.56c0,.2.07.29.21.29h5.58v1.4h-4.89c-.11,0-.14.07-.14.2v.58c0,.18,0,.27.14.27h4.89v1.41h-6.34c-.14,0-.21.11-.21.29v.56c0,.2.07.29.21.29h5.58a10.21,10.21,0,0,1-1.22.83,14.92,14.92,0,0,1-2.47,1c-.83.25-1.84.5-3,.76,0,0,.05.11.16.22s.41.45.58.67.14.23.23.23a14.18,14.18,0,0,0,1.84-.52c.87-.32,1.66-.65,2.37-1a14.05,14.05,0,0,0,1.84-1.13,2.74,2.74,0,0,0,.44-.31v3.1c0,.14.09.22.28.22H220c.23,0,.35-.07.35-.22V89.27a6.54,6.54,0,0,0,.9.67,12.22,12.22,0,0,0,2.28,1.31,22.21,22.21,0,0,0,3,1.06s.11-.05.18-.14a6.28,6.28,0,0,1,.67-.77c.12-.05.19-.13.19-.2A15.78,15.78,0,0,1,225.18,90.6Zm-7.1-8.07q-.48-1-1-1.89h5.19a8.7,8.7,0,0,1-.3.9c-.11.29-.25.61-.42,1Z"/><path class="cls-1" d="M229.63,79.58h5.1c.14,0,.21-.09.21-.29v-.56q0-.27-.21-.27h-1.92V77.12c0-.22.05-.34.16-.36s.18-.11.18-.27-.44-.22-1.31-.22c-.19,0-.28.07-.28.22v2h-1.92c-.14,0-.21.09-.21.27v.56C229.42,79.49,229.49,79.58,229.63,79.58Z"/><path class="cls-1" d="M245.22,78.47h-2.28V77.26c0-.22.05-.34.18-.36s.16-.11.16-.27-.44-.22-1.31-.22c-.18,0-.26.07-.26.22v1.84h-2.08c-.14,0-.19.09-.19.27v.56c0,.2.05.29.19.29h5.6c.14,0,.21-.09.21-.29v-.56Q245.43,78.47,245.22,78.47Z"/><path class="cls-1" d="M240.87,83.31a4,4,0,0,0,1-.34c-.11-.52-.23-1-.37-1.49s-.35-1.06-.58-1.67c-.6.31-.9.49-.9.56a12.91,12.91,0,0,1,.56,1.71Q240.79,82.82,240.87,83.31Z"/><path class="cls-1" d="M244.1,83.31s.05-.05.11-.18a23.72,23.72,0,0,0,.58-2.32c0-.13.05-.2.12-.2a.2.2,0,0,0,.09-.18c0-.07-.07-.14-.21-.22l-.88-.34s-.07.07-.07.2a13.4,13.4,0,0,1-.28,1.42,11.08,11.08,0,0,1-.39,1.26.5.5,0,0,0,0,.14s0,0,.11.05.39.18.6.27A.38.38,0,0,0,244.1,83.31Z"/><path class="cls-1" d="M233.57,79.87s-.07.07-.07.2a13.4,13.4,0,0,1-.28,1.42,10.89,10.89,0,0,1-.39,1.26.51.51,0,0,0,0,.14s0,0,.12.05l.58.27a.41.41,0,0,0,.25.09s.05-.05.11-.18a23.44,23.44,0,0,0,.58-2.32c0-.13.05-.2.12-.2a.2.2,0,0,0,.09-.18c0-.07-.07-.14-.21-.22Z"/><path class="cls-1" d="M245.15,83.38h-5c-.14,0-.21.11-.21.29v.56c0,.2.07.29.21.29h1.78v2.38h-1.78c-.14,0-.21.11-.21.29v.56c0,.2.07.29.21.29h1.78v4.36c0,.14.09.22.28.22h.69c.18,0,.28-.07.28-.22V88H245c.14,0,.21-.09.21-.29v-.56c0-.18-.07-.29-.21-.29h-1.85V84.52h2c.14,0,.21-.09.21-.29v-.56C245.36,83.49,245.29,83.38,245.15,83.38Z"/><path class="cls-1" d="M234.73,86.48c0-.14-.05-.22-.14-.22a.13.13,0,0,0-.09,0c-.49.18-1,.34-1.57.49,0-.14,0-.29,0-.47v-1.8h1.57c.14,0,.21-.09.21-.29v-.56c0-.18-.07-.29-.21-.29h-3.74c.51-.14.78-.23.78-.29q-.13-.81-.32-1.51c-.14-.52-.3-1.1-.49-1.71-.6.31-.9.49-.9.56.18.58.34,1.17.48,1.75s.16.86.21,1.21h-.9c-.14,0-.21.11-.21.29v.56c0,.2.07.29.21.29h2.14v1.86c0,.25,0,.49,0,.74a.33.33,0,0,1-.12,0,22.67,22.67,0,0,1-2.61.59c.32.94.51,1.4.62,1.4s.23-.16.41-.49c.53-.13,1.06-.27,1.59-.41,0,.25-.09.5-.12.72a5.24,5.24,0,0,1-1.94,2.72.39.39,0,0,0,.11.23,5.15,5.15,0,0,1,.48.56.43.43,0,0,0,.32.13,6.76,6.76,0,0,0,1.24-1.22,5.15,5.15,0,0,0,1-2.09c.09-.43.16-.88.21-1.39.58-.14,1.18-.32,1.78-.5A3.19,3.19,0,0,0,234.73,86.48Z"/><path class="cls-1" d="M239.14,80.72h-1.82c0-1,0-2.16,0-3.46a.38.38,0,0,1,.26-.38.24.24,0,0,0,.14-.25c0-.07-.09-.13-.23-.16l-1.15-.13c-.14,0-.21.05-.21.14,0,.58.07,1,.07,1.21,0,1.1,0,2.11,0,3h-1.06c-.14,0-.21.07-.21.2v.58c0,.18.07.27.21.27h1a32.88,32.88,0,0,1-.28,3.76,14.74,14.74,0,0,1-.87,3.64,11.88,11.88,0,0,1-1.39,2.67.22.22,0,0,0,.05.16l1,.32h.18a15.2,15.2,0,0,0,1.24-2.59,20.58,20.58,0,0,0,1-4.7c.09-.83.16-1.93.21-3.26h1c0,3.58-.07,5.94-.18,7.09a4.71,4.71,0,0,1-.39,2,1.18,1.18,0,0,1-1,.34,3.15,3.15,0,0,1-.65-.09l-.11-.05c-.05,0-.07,0-.07.14a4.85,4.85,0,0,1,.19.85c0,.22.32.34.92.34a2.44,2.44,0,0,0,1.22-.27,1.37,1.37,0,0,0,.58-.88,12.18,12.18,0,0,0,.41-2.68c.09-1.39.14-3.91.14-7.56A.25.25,0,0,0,239.14,80.72Z"/><path class="cls-1" d="M249.93,83.4a20.88,20.88,0,0,0,1.36-2,20.05,20.05,0,0,0,1.31-2.88.38.38,0,0,1,.41-.25.27.27,0,0,0,.21-.29c0-.05-.07-.13-.19-.23l-1.25-.47c-.07,0-.14.05-.21.16a16.07,16.07,0,0,1-1,2.59,10,10,0,0,1-1,1.78,10.91,10.91,0,0,1-2.31,2.47.2.2,0,0,0-.11.18s0,.07.12.11l.72.31a.87.87,0,0,0,.41.07A13.76,13.76,0,0,0,249.93,83.4Z"/><path class="cls-1" d="M258.67,85.92c-.6.29-.9.49-.9.63.49.76,1,1.6,1.59,2.56-3,.4-5.61.7-7.73.88q2.41-4.59,3.74-7.13a.59.59,0,0,1,.53-.32c.14,0,.21,0,.21-.14s-.48-.38-1.4-.85a.69.69,0,0,0-.26-.05.28.28,0,0,0-.28.22A30.86,30.86,0,0,1,252.91,85q-.56,1.19-2.6,5.08c-.71.05-1.36.09-1.92.11.23,1.3.44,2,.62,2s.21-.09.26-.27a.34.34,0,0,1,.35-.27q2.36-.27,10.29-1.53c.35.65.71,1.31,1.08,2.07a2.24,2.24,0,0,0,1.06-.47c.07,0,.12-.13.12-.31a46.27,46.27,0,0,0-3.39-5.4A.18.18,0,0,0,258.67,85.92Z"/><path class="cls-1" d="M262.73,83.8a4.78,4.78,0,0,1-2.61-2.63A15.71,15.71,0,0,1,258.81,77c-.07-.14-.14-.23-.21-.23h-3.65c-.14,0-.21.09-.21.27v.58c0,.18.07.27.21.27h2.81a21,21,0,0,0,1.36,4.19,7.43,7.43,0,0,0,2.79,3,.36.36,0,0,0,.32-.2,6.48,6.48,0,0,1,.6-.59c.07-.07.12-.13.12-.2A.27.27,0,0,0,262.73,83.8Z"/><path class="cls-1" d="M273.34,76.47a3.65,3.65,0,0,0-.55.79,9.35,9.35,0,0,1,1.27.85,21.47,21.47,0,0,1,1.77,1.62,9.57,9.57,0,0,0,.6-.83.37.37,0,0,0,.09-.16c-.37-.36-.81-.76-1.32-1.22s-1-.74-1.71-1.17C273.44,76.34,273.39,76.4,273.34,76.47Z"/><path class="cls-1" d="M280.66,90.91h-5.1V86.48h4c.14,0,.21-.09.21-.29v-.56c0-.18-.07-.29-.21-.29h-4V81.28h4.54c.14,0,.21-.09.21-.29v-.56c0-.18-.07-.29-.21-.29H269.82c-.14,0-.19.11-.19.29V81c0,.2.05.29.19.29h4.48v4.07h-3.85c-.14,0-.21.11-.21.29v.56c0,.2.07.29.21.29h3.85v4.43h-4.89c-.14,0-.21.09-.21.29v.56c0,.18.07.27.21.27h11.25c.12,0,.19-.09.19-.27V91.2C280.86,91,280.79,90.91,280.66,90.91Z"/><path class="cls-1" d="M270.18,77.35c.09,0,.14-.05.14-.16a5.4,5.4,0,0,0-1.45-.92c-.07,0-.12.05-.14.14a16.73,16.73,0,0,1-1,2.66,14.65,14.65,0,0,1-1.66,2.77c-.49.65-1,1.24-1.47,1.82a.26.26,0,0,0,.14.22c.18.16.35.31.53.45a.46.46,0,0,0,.37.18q.66-.81,1.17-1.46v9.4c0,.14.09.22.28.22h.69c.18,0,.28-.07.28-.22V81.2a23.44,23.44,0,0,0,1.64-3.66A.6.6,0,0,1,270.18,77.35Z"/><path class="cls-1" d="M.55,116.52v3.24c0,.14.09.22.28.22h.69c.18,0,.28-.07.28-.22v-2.4h12v2.4c0,.14.09.22.28.22h.69c.18,0,.28-.07.28-.22v-3.29c0-.14-.11-.22-.28-.22h-6V115c0-.22.05-.34.18-.36s.18-.11.18-.27-.46-.2-1.38-.2c-.19,0-.28.07-.28.2v1.84H.83C.64,116.25.55,116.34.55,116.52Z"/><path class="cls-1" d="M15.15,127.36a2.11,2.11,0,0,1-1.08-.34c-.11,0-.16.07-.18.22-.07.92-.19,1.46-.41,1.64a1.16,1.16,0,0,1-.94.32H9c-.65,0-1-.25-1-.77V125l6.9-.85q.21,0,.21-.27v-.7c0-.18-.07-.29-.21-.29l-6.9.85v-2.61l.19,0a14.63,14.63,0,0,0,3.51-1,1.15,1.15,0,0,1,.37-.05l.48.22c.14,0,.21-.11.21-.36s-.34-.52-1-1.08a.42.42,0,0,0-.25-.11.88.88,0,0,0-.33.13,11.8,11.8,0,0,1-3.71,1.08,32.57,32.57,0,0,1-4.71.34.4.4,0,0,0,.09.29,2.11,2.11,0,0,1,.25.76c.05.14.19.22.42.22a24.47,24.47,0,0,0,3.25-.2v2.61l-6.21.76c-.14,0-.19.09-.19.27v.7c0,.2.05.29.19.29l6.21-.76v4q0,1.19,1.59,1.19h4.82a1.54,1.54,0,0,0,1.24-.43,5.36,5.36,0,0,0,.9-2.38C15.38,127.45,15.29,127.38,15.15,127.36Z"/><path class="cls-1" d="M33.17,119.28h-7c.11-1,.19-2.32.23-4a.46.46,0,0,1,.26-.38.27.27,0,0,0,.16-.25L25,114.41a27.52,27.52,0,0,1,0,4.2c0,.22,0,.45-.07.67h-7q-.21,0-.21.27v.72q0,.27.21.27H24.7c-.05.29-.11.58-.18.86a15.18,15.18,0,0,1-.85,2.4,11.16,11.16,0,0,1-1.29,2.14,6.52,6.52,0,0,1-1.45,1.53,10.25,10.25,0,0,1-1.68,1.15c-.6.32-1.09.54-1.47.7a.4.4,0,0,0,.18.29,6.41,6.41,0,0,1,.69.7c.07.14.14.22.25.22a21.41,21.41,0,0,0,3.69-2.63,10,10,0,0,0,1.64-2.27,15.24,15.24,0,0,0,1.24-2.74c.11-.32.19-.68.28-1a16.08,16.08,0,0,0,1,2.74,10.78,10.78,0,0,0,1.55,2.65,13.24,13.24,0,0,0,3.23,2.84,2.8,2.8,0,0,0,.71.45.36.36,0,0,0,.32-.23,7.09,7.09,0,0,1,.67-.79c.12-.11.19-.2.19-.31a.19.19,0,0,0-.12-.16,7.5,7.5,0,0,1-2.65-1.51A10.16,10.16,0,0,1,28.37,125a11.81,11.81,0,0,1-1.06-2.18,14.12,14.12,0,0,1-.74-2.27h6.6q.21,0,.21-.27v-.72Q33.38,119.28,33.17,119.28Z"/><path class="cls-1" d="M49.73,120.19c.18,0,.26-.07.26-.22v-1.69h1.18c.07,0,.12-.07.12-.22v-.56c0-.14-.05-.22-.12-.22H50v-1.67c0-.14-.09-.22-.26-.22H46.62v-.49c0-.2,0-.31.14-.32s.12-.11.12-.25-.42-.2-1.24-.2c-.14,0-.21.05-.21.13v1.13H42.28c-.19,0-.28.07-.28.22v1.67H41c-.11,0-.14.07-.14.22v.56c0,.14,0,.22.14.22h1V120c0,.14.09.22.28.22h3.16v1H42.07c-.19,0-.28.07-.28.22V124c0,.14.09.2.28.2h2.84c-.25.36-.49.72-.76,1.06H40.83c-.11,0-.14.07-.14.22V126c0,.14,0,.22.14.22h2.51a14.34,14.34,0,0,1-1.68,1.67c0,.09.34.31,1,.63.19-.2.41-.41.64-.67.56.16,1.25.4,2,.68a15.06,15.06,0,0,1-1.62.5c-.55.11-1,.22-1.5.29a4.86,4.86,0,0,1-.87.11.28.28,0,0,0,.12.22,6.77,6.77,0,0,0,.51.79c0,.07.07.13.19.13a25.46,25.46,0,0,0,2.82-.76,15.47,15.47,0,0,0,1.64-.7s0,0,.07,0c1.13.45,2.21,1,3.25,1.49,0,0,.19-.25.53-.72l.09-.13c-.79-.4-1.75-.83-2.88-1.33a1.29,1.29,0,0,0,.18-.16,4.6,4.6,0,0,0,.9-1.15,4.92,4.92,0,0,0,.48-.86h1.89c.07,0,.12-.07.12-.22v-.56c0-.14-.05-.22-.12-.22H45.53c.25-.32.53-.67.81-1.06h3.58c.18,0,.28-.05.28-.2v-2.61c0-.14-.11-.22-.28-.22h-3.3v-1Zm-3.11-3.8h2.21v.9H46.62Zm0,1.89h2.21v.92H46.62Zm-3.44-1.89h2.26v.9H43.18Zm0,2.81v-.92h2.26v.92Zm-.21,4v-1.06h2.47v1.06Zm5.1,3a4.71,4.71,0,0,1-.49.74,3.93,3.93,0,0,1-.92.88.43.43,0,0,1-.12.07c-.71-.25-1.55-.52-2.51-.83.21-.25.46-.54.71-.86Zm1-4.09v1.06H46.62v-1.06Z"/><path class="cls-1" d="M40.8,123.78a2.89,2.89,0,0,0,.46-.5c.07,0,.12-.09.12-.13s-.05-.13-.12-.18a8.93,8.93,0,0,1-1.5-2,11.55,11.55,0,0,1-.74-1.69h1.68c.09,0,.14-.09.14-.29v-.56c0-.14-.05-.22-.14-.22H39V115c0-.22,0-.32.14-.34s.14-.09.14-.23-.42-.2-1.24-.2c-.14,0-.21.05-.21.13v3.87H35.66c-.11,0-.14.07-.14.22V119c0,.2,0,.29.14.29h2a20.15,20.15,0,0,1-.55,2.14,12.24,12.24,0,0,1-.86,2.16A13.27,13.27,0,0,1,34.83,126c0,.07,0,.09.14.09a7,7,0,0,0,.74.38.36.36,0,0,0,.28.09,15.71,15.71,0,0,0,1.18-2.07c.21-.43.41-.92.62-1.46v7.4a.19.19,0,0,0,.21.22h.69c.18,0,.27-.07.27-.22v-8.84a1.47,1.47,0,0,0,.16.34,8.49,8.49,0,0,0,1.27,1.91.33.33,0,0,0,.23.13S40.73,123.88,40.8,123.78Z"/><path class="cls-1" d="M58.82,121.87a.13.13,0,0,0-.14-.13.1.1,0,0,0-.09.05c-.58.36-1.2.72-1.84,1v-4h1.87c.12,0,.19-.09.19-.27V118c0-.18-.07-.29-.19-.29H56.75v-2.11c0-.45.11-.72.35-.83s.19-.05.19-.16-.07-.09-.19-.16l-1.39-.2c-.23,0-.34.05-.34.14a.85.85,0,0,0,.07.34,4.14,4.14,0,0,1,.07.79v2.18H53.17c-.14,0-.21.11-.21.29v.56q0,.27.21.27h2.35v4.61l-.11.05a22,22,0,0,1-2.86,1.19c.35,1,.58,1.48.69,1.48s.23-.16.41-.5c.62-.29,1.24-.61,1.87-1v4.12c0,.41-.26.63-.76.63a7.79,7.79,0,0,1-1.38-.14c-.11,0-.14,0-.14.14a3.28,3.28,0,0,1,.34.83c0,.2,0,.31.14.31H54.9c1.24,0,1.85-.43,1.85-1.28V124c.65-.36,1.32-.76,2-1.17A3.61,3.61,0,0,0,58.82,121.87Z"/><path class="cls-1" d="M65.1,121a1.77,1.77,0,0,0,1,.23h1.45a.68.68,0,0,0,.74-.47,16,16,0,0,0,.44-2,.27.27,0,0,0-.25-.27,3.94,3.94,0,0,1-.56-.22,1.38,1.38,0,0,0-.23-.07.09.09,0,0,0-.11.11,9.5,9.5,0,0,1-.19,1.37c-.05.2-.16.29-.32.29h-.35a.85.85,0,0,1-.48-.11c-.11-.05-.14-.16-.14-.32v-4.43a.24.24,0,0,0-.26-.27H61.24c-.19,0-.28.09-.28.27v1.66a5.37,5.37,0,0,1-.26,1.76,4.08,4.08,0,0,1-2,1.85.32.32,0,0,0,.12.25l.46.61a.38.38,0,0,0,.32.13,6,6,0,0,0,1.31-.88,3.3,3.3,0,0,0,1-1.51,7.52,7.52,0,0,0,.3-2.16V116h2.68v4.48A.65.65,0,0,0,65.1,121Z"/><path class="cls-1" d="M69,129.43a13.93,13.93,0,0,1-2.54-.81,7.91,7.91,0,0,1-1.64-.92c.14-.13.27-.27.41-.41a9.08,9.08,0,0,0,1.2-1.76,16.08,16.08,0,0,0,1-2.38,2,2,0,0,0-.35-.59.4.4,0,0,0-.28-.11H59.93q-.21,0-.21.27v.56c0,.2.07.29.21.29h.81a8.67,8.67,0,0,0,.88,2.21,4.86,4.86,0,0,0,1.13,1.66,1,1,0,0,0,.23.23,3.66,3.66,0,0,1-.34.23,8.87,8.87,0,0,1-2.54,1.17q-.79.24-1.64.43c-.09,0-.12,0-.12.11a.24.24,0,0,0,.09.16c.12.2.26.4.41.59a.36.36,0,0,0,.34.16,12.57,12.57,0,0,0,4.48-1.89,1,1,0,0,0,.23-.18l.48.36a16.88,16.88,0,0,0,2,1c.58.22,1.13.41,1.62.56a2.29,2.29,0,0,0,.32.13s.11-.05.19-.16a5.09,5.09,0,0,1,.62-.63.33.33,0,0,0,.09-.2S69.09,129.47,69,129.43Zm-5.12-2.48a4.52,4.52,0,0,1-.48-.52,6.88,6.88,0,0,1-1-1.69,6.74,6.74,0,0,1-.42-1.17h4a8.31,8.31,0,0,1-.51,1.17,7.59,7.59,0,0,1-1.09,1.71A4.4,4.4,0,0,1,63.87,126.95Z"/><path class="cls-1" d="M85.46,129.56c-1-.2-1.66-.38-2.14-.52a9.44,9.44,0,0,1-1.5-.61h1.41c.18,0,.28-.07.28-.22v-7.38c0-.14-.11-.22-.28-.22H73.72c-.19,0-.28.07-.28.22v7.38c0,.14.09.22.28.22H75.2a12.29,12.29,0,0,1-1.92.77c-.65.22-1.43.43-2.31.65-.14,0-.21.05-.21.13a.4.4,0,0,0,.11.22,1.51,1.51,0,0,1,.39.45.24.24,0,0,0,.26.16,36.41,36.41,0,0,0,5-1.53c0-.07.14-.09.37-.09s.18-.05.18-.13a2.78,2.78,0,0,0-.56-.63h4.7c-.41.36-.6.59-.6.7a.7.7,0,0,0,.12.09,22.74,22.74,0,0,0,4,1.42l.25,0a3.75,3.75,0,0,0,.76-1S85.58,129.59,85.46,129.56Zm-10.77-7.89h7.57v1.26H74.69Zm0,2.32h7.57v1.12H74.69Zm0,3.37v-1.19h7.57v1.19Z"/><path class="cls-1" d="M71,114.92c-.14,0-.21.07-.21.2v.7c0,.2.07.29.21.29h3.58c.12,0,.19-.09.19-.29v-.7a.18.18,0,0,0-.19-.2Z"/><path class="cls-1" d="M85.37,119.73a6.64,6.64,0,0,1-1.45-.56,3.57,3.57,0,0,1-.83-.52,3.63,3.63,0,0,1-.9-.83,3.11,3.11,0,0,1-.58-.86,2,2,0,0,1-.18-.49h2.42l-1,1.33q0,.22,1,.49a.16.16,0,0,0,.14-.07l1.73-2.32c0-.09-.12-.23-.37-.42a.6.6,0,0,0-.32-.07H78.84c.05-.11.12-.22.19-.36a.4.4,0,0,1,.35-.18c.07,0,.12-.05.12-.16a4.47,4.47,0,0,0-1.24-.7.08.08,0,0,0-.07.07,6.32,6.32,0,0,1-.56,1.15,6.64,6.64,0,0,1-1,1.22c-.28.29-.58.54-.87.79a.22.22,0,0,0,.11.18,4.26,4.26,0,0,0,.44.38.32.32,0,0,0,.28.14,14.17,14.17,0,0,0,1.17-1.08c.11-.11.23-.25.35-.4h1.94c0,.09-.07.16-.11.23a3.32,3.32,0,0,1-.41.68,4.6,4.6,0,0,1-.67.76,4.81,4.81,0,0,1-.92.67,5.38,5.38,0,0,1-.79.36,5.27,5.27,0,0,1-1,.25s-.05.05-.05.07a.33.33,0,0,0,.11.18c.18.22.37.43.55.68a.31.31,0,0,0,.23.11,7.59,7.59,0,0,0,1-.32,5.48,5.48,0,0,0,1-.54,5.33,5.33,0,0,0,.92-.76,5.82,5.82,0,0,0,.67-.88,3.1,3.1,0,0,0,.21-.36.19.19,0,0,0,.05.13,4.24,4.24,0,0,0,.71,1,10.78,10.78,0,0,0,1,.86,8.89,8.89,0,0,0,1.31.83,5.38,5.38,0,0,0,1.64.58.37.37,0,0,0,.3-.14,6.33,6.33,0,0,1,.58-.68c.05,0,.09-.09.09-.22s-.05,0-.12-.07A8.49,8.49,0,0,1,85.37,119.73Z"/><path class="cls-1" d="M71.58,121.6c.09,0,.14-.07.14-.22a.3.3,0,0,1,.14-.27q.74-.4,1.27-.76a19.48,19.48,0,0,0,2-1.48c.07,0,.12-.07.12-.11s-.14-.34-.39-.92c0-.07-.07-.13-.11-.13a.19.19,0,0,0-.12.05c-.35.29-.76.59-1.24.92a15,15,0,0,1-1.66,1,11.42,11.42,0,0,1-1.22.54c-.07,0-.11.07-.11.11a.27.27,0,0,0,.11.2A5,5,0,0,0,71.58,121.6Z"/><path class="cls-1" d="M95.1,118.43h2.54c.14,0,.21-.09.21-.29v-.56c0-.18-.07-.29-.21-.29H95.1c-.14,0-.21.11-.21.29v.56C94.88,118.34,95,118.43,95.1,118.43Z"/><path class="cls-1" d="M93.51,126.8a.17.17,0,0,0-.14.11,15.69,15.69,0,0,1-1.4,1.26,8.71,8.71,0,0,1-1.73,1.1,5.35,5.35,0,0,1-1.18.45c-.07,0-.11.07-.11.11s.05.11.16.14l.65.54c0,.11.14.16.3.16a17.88,17.88,0,0,0,2.45-1.33,10.27,10.27,0,0,0,1.54-1.26,1.16,1.16,0,0,1,.44-.14c.11,0,.18,0,.18-.09s-.05-.14-.14-.25Z"/><path class="cls-1" d="M103.38,129.52a10.59,10.59,0,0,1-4.29-2.65c-.55.5-.81.79-.81.9a.37.37,0,0,0,.12.2,19.11,19.11,0,0,0,4.17,2.72.86.86,0,0,0,.25.05,3.71,3.71,0,0,0,.76-1C103.57,129.68,103.5,129.59,103.38,129.52Z"/><path class="cls-1" d="M97.44,119.83H95.24c-.14,0-.21.05-.21.14V124c0,.11.07.14.21.14h2.21c.12,0,.19,0,.19-.14V120C97.64,119.89,97.57,119.83,97.44,119.83Zm-.62,3.51h-1v-2.67h1Z"/><path class="cls-1" d="M104,125.47h-.69V115.4c0-.14-.11-.22-.28-.22h-2.68c-.14,0-.21.11-.21.29V116c0,.2.07.29.21.29h1.71v2.25h-1.78c-.14,0-.21.09-.21.27v.58c0,.18.07.27.21.27h1.78v2.11h-1.78c-.14,0-.21.11-.21.29v.56c0,.2.07.29.21.29h1.78v2.54H99.44V114.92c0-.14-.11-.22-.28-.22H93.37c-.14,0-.19.07-.19.22v10.55h-3v-2.54h2.26c.14,0,.21-.09.21-.29v-.56c0-.18-.07-.29-.21-.29H90.21v-2.11h2.26c.14,0,.21-.09.21-.27v-.58q0-.27-.21-.27H90.21v-2l.46-.11a5,5,0,0,0,.92-.31,5.3,5.3,0,0,0,.64-.31.08.08,0,0,1,.05,0l.34.07c.09,0,.14,0,.14-.13a10.07,10.07,0,0,0-.71-1c-.07-.09-.14-.14-.19-.14h0a3.8,3.8,0,0,1-.55.38,3.58,3.58,0,0,1-.85.38,3.33,3.33,0,0,1-.46.13l-.79-.32a.19.19,0,0,0-.21.22v10.06h-.62c-.14,0-.21.09-.21.27v.56c0,.2.07.29.21.29H104c.14,0,.21-.09.21-.29v-.56C104.21,125.56,104.14,125.47,104,125.47Zm-5.72,0H94.34v-9.71h3.94Z"/><path class="cls-1" d="M112.4,129a5.5,5.5,0,0,1-1.24-.2,3.51,3.51,0,0,1-1.25-.49,2.46,2.46,0,0,1-.58-.49,6.5,6.5,0,0,0,.28-.61c.21-.54.37-1,.49-1.46a17.88,17.88,0,0,0,.48-2c.11-.65.19-1.46.3-2.45,0-.09-.11-.22-.3-.38a.56.56,0,0,0-.32-.11h-2.08l2.65-4.23c0-.11-.12-.25-.37-.47a.47.47,0,0,0-.34-.09h-3.85c-.14,0-.21.11-.21.29v.56c0,.2.07.29.21.29h2.84l-3.46,5.35q0,.22,1,.49a.37.37,0,0,0,.32-.18l.55-.88h2.31c-.12,1-.25,1.73-.35,2.34a15.12,15.12,0,0,1-.53,1.85c-.09.23-.19.47-.3.72a3.21,3.21,0,0,1-.34-.7,8.1,8.1,0,0,1-.55-2.23.28.28,0,0,0-.32-.22h-.64c-.16,0-.23.07-.23.22a9.7,9.7,0,0,0,.79,3.13,5.66,5.66,0,0,0,.56,1,5.45,5.45,0,0,1-.69.85,6.62,6.62,0,0,1-1.29,1c-.05,0-.07.05-.07.13s0,.05.11.13a5.74,5.74,0,0,1,.67.49.31.31,0,0,0,.27.16,10.39,10.39,0,0,0,1.13-1,9.09,9.09,0,0,0,.67-.81,5,5,0,0,0,1,.68,5.55,5.55,0,0,0,1.54.5c1.2.13,3.05.2,5.6.2,2.33,0,3.81,0,4.43-.07a.27.27,0,0,0,.28-.2,5.14,5.14,0,0,1,.32-1,.81.81,0,0,0,.09-.23c-2.44.2-4.13.29-5.12.29C114.89,129.05,113.42,129,112.4,129Z"/><path class="cls-1" d="M121.58,118.36h-1V116c0-.14-.09-.22-.27-.22h-3.46v-.7c0-.22.05-.34.18-.36s.18-.11.18-.27-.44-.22-1.31-.22c-.19,0-.28.07-.28.22v1.33h-3.11c-.14,0-.19.11-.19.29v.56c0,.2.05.29.19.29h3.11v1.4h-4.34c-.14,0-.21.11-.21.29v.56c0,.2.07.29.21.29h4.34v1.4h-3.25c-.14,0-.19.09-.19.27v.58c0,.18.05.27.19.27h3.25v1.4h-3.25c-.14,0-.19.11-.19.29v.56c0,.2.05.29.19.29h3.25V126h-4.34q-.21,0-.21.27v.58c0,.18.07.27.21.27h4.34v1.21c0,.14.09.2.28.2h.69c.18,0,.27-.05.27-.2v-1.21h4.41c.14,0,.21-.09.21-.27v-.58q0-.27-.21-.27h-4.41v-1.48h3.46c.12,0,.19-.09.19-.29v-.56c0-.18-.07-.29-.19-.29h-3.46V122h3.46a.24.24,0,0,0,.27-.27v-2.25h1c.14,0,.21-.09.21-.29v-.56C121.79,118.46,121.72,118.36,121.58,118.36Zm-2.28,2.54h-2.49v-1.4h2.49Zm0-2.54h-2.49V117h2.49Z"/><path class="cls-1" d="M139.23,125.25h-1.11V115c0-.13-.09-.2-.26-.2H134.2c-.14,0-.21.07-.21.2v.72c0,.18.07.27.21.27h2.68v2.25h-2.61c-.14,0-.21.11-.21.29v.56c0,.2.07.29.21.29h2.61v2.32h-2.61q-.21,0-.21.27v.56c0,.2.07.29.21.29h2.61v2.39h-3.37v-5.76c0-.14-.11-.22-.28-.22H131v-1.84h2.35c.09,0,.14-.09.14-.27v-.58c0-.13-.05-.2-.14-.2H131V115c0-.22,0-.32.14-.34s.14-.09.14-.23-.37-.14-1.11-.14c-.18,0-.26.05-.26.14v5.71a.24.24,0,0,0,.26.27h2.14v4.86h-1.38v-3.31c0-.2,0-.31.14-.32s.14-.09.14-.23-.37-.14-1.11-.14c-.18,0-.26.05-.26.14v3.87H126v-2.39h2.82c.14,0,.21-.09.21-.29V122q0-.27-.21-.27H126v-2.32h2.75c.14,0,.21-.09.21-.29v-.56c0-.18-.07-.29-.21-.29H126v-2a13,13,0,0,0,2.31-.63,1.38,1.38,0,0,1,.23-.07l.49.14c.09,0,.14,0,.14-.14a5.06,5.06,0,0,0-.69-1.35.54.54,0,0,0-.21.11,9,9,0,0,1-1.43.61,7.56,7.56,0,0,1-1.08.25l-.81-.32c-.14,0-.19.07-.19.2v10.14h-1.18c-.14,0-.21.09-.21.27v.58q0,.27.21.27h15.66q.21,0,.21-.27v-.58C139.44,125.34,139.37,125.25,139.23,125.25Z"/><path class="cls-1" d="M134.67,126.58c-.65.47-1,.76-1,.85a11.58,11.58,0,0,0,2,2,8.15,8.15,0,0,0,2.24,1.28,5.73,5.73,0,0,0,.81-1,8.15,8.15,0,0,1-2.45-1.37A7.64,7.64,0,0,1,134.67,126.58Z"/><path class="cls-1" d="M129.75,127.22l-1.27-.63a.32.32,0,0,0-.18.09,5.42,5.42,0,0,1-.6.79,5.19,5.19,0,0,1-.78.7,9.07,9.07,0,0,1-1.39.94c-.35.16-.78.34-1.27.52-.05,0-.07,0-.07.05s.05.11.19.18a2.55,2.55,0,0,1,.51.63.33.33,0,0,0,.27.18l.9-.43c.35-.22.72-.43,1.09-.68a7.71,7.71,0,0,0,.94-.74,9.78,9.78,0,0,0,1.08-1.06.58.58,0,0,1,.41-.11c.23,0,.35-.07.35-.22S129.85,127.31,129.75,127.22Z"/><path class="cls-1" d="M156.81,129.2h-1.09V115c0-.14-.11-.22-.28-.22h-6.21c-.14,0-.19.09-.19.27V129.2h-1.52q-.21,0-.21.27V130c0,.18.07.29.21.29h9.3c.14,0,.21-.11.21-.29v-.56C157,129.29,157,129.2,156.81,129.2Zm-2.28,0h-4.34v-3.8h4.34Zm0-4.93h-4.34v-3.73h4.34Zm0-4.84h-4.34v-3.53h4.34Z"/><path class="cls-1" d="M147.86,124.84c.07-.05.12-.11.12-.14a.31.31,0,0,0-.14-.22,10.16,10.16,0,0,1-1.66-2.38,17.19,17.19,0,0,1-.76-1.84h2.63c.14,0,.21-.09.21-.29v-.56c0-.18-.07-.29-.21-.29h-2.82v-2.7a5.65,5.65,0,0,0,1.78-1l.49.07c.07,0,.12-.07.12-.22a9,9,0,0,0-.72-.92c-.11-.07-.18-.13-.23-.13a.3.3,0,0,0-.23.09,4.42,4.42,0,0,1-2.35,1.31,10.26,10.26,0,0,1-2.81.27c-.14,0-.21.11-.21.29a5.42,5.42,0,0,1,.39.68.28.28,0,0,0,.3.23,9.12,9.12,0,0,0,2.21-.27v2.3h-2.61c-.14,0-.21.11-.21.29V120c0,.2.07.29.21.29h2.44a14.84,14.84,0,0,1-.62,1.94,10.84,10.84,0,0,1-.94,1.94,11.63,11.63,0,0,1-1.57,2.14c0,.07.05.09.16.09a6.3,6.3,0,0,0,.78.38.38.38,0,0,0,.3.11,12.2,12.2,0,0,0,1.27-1.85c.26-.47.53-1,.79-1.6v7c0,.14.09.22.28.22h.69c.18,0,.28-.07.28-.22v-7.85a3.22,3.22,0,0,0,.26.61,12.36,12.36,0,0,0,1.41,2.25.4.4,0,0,0,.25.13c.05,0,.12,0,.19-.14A3.59,3.59,0,0,0,147.86,124.84Z"/><path class="cls-1" d="M174,123.63h-5.67v-1.48h5c.07,0,.12-.09.12-.29v-.56c0-.14-.05-.22-.12-.22h-5v-1.4h5c.07,0,.12-.09.12-.27v-.58c0-.13-.05-.2-.12-.2h-5v-1.4h5.46c.09,0,.14-.09.14-.29v-.56c0-.14-.05-.22-.14-.22h-5.21c.19-.27.37-.54.55-.83a.58.58,0,0,1,.39-.23c.12,0,.19-.07.19-.13a9.63,9.63,0,0,0-1.45-.72c-.05,0-.09.05-.11.14a6.3,6.3,0,0,1-.67,1.26,3.54,3.54,0,0,1-.39.5h-4a5.06,5.06,0,0,0,.32-.56.53.53,0,0,1,.42-.2c.07,0,.12-.05.12-.16a5.4,5.4,0,0,0-1.45-.92c-.07,0-.11.05-.12.14a9.68,9.68,0,0,1-.85,1.64,9.44,9.44,0,0,1-1.47,1.69c-.42.4-.87.76-1.29,1.1a.22.22,0,0,0,.14.22c.18.16.35.32.53.47a.51.51,0,0,0,.37.16c.74-.61,1.29-1.1,1.66-1.48v7c0,.14.05.2.19.2h.71c.18,0,.26-.05.26-.2v-.63H174c.07,0,.12-.09.12-.29v-.56C174.11,123.7,174.06,123.63,174,123.63Zm-6.9,0H162.6v-1.48h4.48Zm0-2.54H162.6v-1.4h4.48Zm0-2.45H162.6v-1.4h4.48Z"/><path class="cls-1" d="M173,125.88H161.08q-.26,0-.26.22v4.36q0,.22.26.22h.69c.18,0,.28-.07.28-.22V130h10v.49c0,.14.09.22.28.22H173c.18,0,.28-.07.28-.22V126.1C173.3,126,173.19,125.88,173,125.88Zm-1,3h-10v-2h10Z"/><path class="cls-1" d="M186.08,120.75a2.35,2.35,0,0,0-1.69-.72,2.29,2.29,0,0,0-1.69.72,2.37,2.37,0,0,0-.71,1.73,2.32,2.32,0,0,0,.71,1.73,2.23,2.23,0,0,0,1.69.72,2.29,2.29,0,0,0,1.69-.72,2.39,2.39,0,0,0,.71-1.73A2.45,2.45,0,0,0,186.08,120.75Zm-.46,3a1.65,1.65,0,0,1-1.24.52,1.6,1.6,0,0,1-1.24-.52,1.66,1.66,0,0,1-.51-1.26,1.72,1.72,0,0,1,.51-1.26,1.66,1.66,0,0,1,1.24-.52,1.72,1.72,0,0,1,1.24.52,1.79,1.79,0,0,1,.51,1.26A1.73,1.73,0,0,1,185.62,123.74Z"/></g></svg>